<svg id="Bar_Chart" data-name="Bar Chart" xmlns="http://www.w3.org/2000/svg" xmlns:xlink="http://www.w3.org/1999/xlink" width="103" height="40" viewBox="0 0 103 40">
  <defs>
    <linearGradient id="linear-gradient" x1="0.5" x2="0.5" y2="1" gradientUnits="objectBoundingBox">
      <stop offset="0" stop-color="#118000"/>
      <stop offset="1" stop-color="#4aac00" stop-opacity="0.502"/>
    </linearGradient>
  </defs>
  <path id="Bar_Chart-2" data-name="Bar Chart" d="M106,40V22h6V40Zm-9,0V10h8V40Zm-9,0V20h8V40Zm-9,0V27h8V40Zm-9,0V15h8V40Zm-9,0V5h8V40Zm-9,0V15h8V40Zm-9,0V20h8V40Zm-9,0V0h8V40Zm-9,0V10h8V40Zm-7,0V22h6V40ZM9,40V10h8V40Z" transform="translate(-9)" fill="url(#linear-gradient)"/>
</svg>
