<svg xmlns="http://www.w3.org/2000/svg" width="26.833" height="32.2" viewBox="0 0 26.833 32.2"><defs><style>.a{fill:#adb9c9;}</style></defs><g transform="translate(-2)"><path class="a" d="M28,22.692a8.986,8.986,0,0,1-3.192-6.876V12.075a9.4,9.4,0,0,0-8.05-9.284V1.342a1.342,1.342,0,0,0-2.683,0V2.791a9.4,9.4,0,0,0-8.05,9.284v3.741a9,9,0,0,1-3.2,6.887,2.347,2.347,0,0,0,1.527,4.131H26.485A2.348,2.348,0,0,0,28,22.692Z"/><path class="a" d="M13.255,25.025A5.039,5.039,0,0,0,18.185,21H8.326A5.039,5.039,0,0,0,13.255,25.025Z" transform="translate(2.161 7.175)"/></g></svg>