<svg id="brand-image" xmlns="http://www.w3.org/2000/svg" width="53.667" height="53.667" viewBox="0 0 53.667 53.667">
  <path id="Path_9259" data-name="Path 9259" d="M243.564,207.25a.944.944,0,0,0-1.234,1.236l.008.018,3,6.687a.786.786,0,1,0,1.435-.643l-.525-1.171,2.2-2.2,1.166.527a.786.786,0,0,0,.648-1.433l-6.67-3.015Zm3.346,3.238-1.353,1.353-1.1-2.464Z" transform="translate(-216.864 -185.461)" fill="#266ef1"/>
  <path id="Path_9260" data-name="Path 9260" d="M284.726,137.2a.787.787,0,0,0,.14.921l4.9,4.9a.786.786,0,0,0,1.112-1.112l-3.119-3.119,5.634,1.031a.878.878,0,0,0,.962-.442.914.914,0,0,0-.206-1.083l-4.792-4.7a.786.786,0,0,0-1.1,1.122l3.213,3.152-5.908-1.081A.787.787,0,0,0,284.726,137.2Z" transform="translate(-254.801 -119.399)" fill="#266ef1"/>
  <path id="Path_9261" data-name="Path 9261" d="M341.741,93.487l4.684,4.684a1.122,1.122,0,0,0,.643.3h0a.786.786,0,0,0,.555-.232c.041-.041,1-1.007,1.377-1.4,1.384-1.434,1.175-3.688-.5-5.36h0a4.716,4.716,0,0,0-2.614-1.42,3.241,3.241,0,0,0-2.805.961l-1.35,1.35a.786.786,0,0,0,0,1.113l0,0Zm2.457-1.355a1.66,1.66,0,0,1,1.469-.517,3.219,3.219,0,0,1,1.727.975h0c.893.893,1.387,2.215.478,3.156-.183.19-.517.529-.808.823-.565-.562-1.415-1.406-1.834-1.825L343.4,92.925Z" transform="translate(-305.71 -80.588)" fill="#266ef1"/>
  <path id="Path_9262" data-name="Path 9262" d="M129.02,310.874a2.365,2.365,0,0,0-.659-1.26h0a2.385,2.385,0,0,0-3.372,0l-1.427,1.427a.786.786,0,0,0,0,1.112l2.262,2.262h0l2.65,2.65a.786.786,0,0,0,.556.23h0a.787.787,0,0,0,.557-.233s1.306-1.318,1.667-1.679a2.654,2.654,0,0,0-2.236-4.508Zm-2.919-.148a.812.812,0,0,1,1.148,0h0a.812.812,0,0,1,0,1.148l-.511.514-.359.359-1.15-1.15Zm4.043,3.545c-.205.205-.714.717-1.117,1.124l-1.535-1.535.349-.351.77-.77a1.084,1.084,0,0,1,1.532,1.532Z" transform="translate(-110.405 -276.535)" fill="#266ef1"/>
  <path id="Path_9263" data-name="Path 9263" d="M183.717,262.686a.786.786,0,0,0,.049-1.571l-2.8-.178a2.727,2.727,0,0,0,.4-1.345,2.521,2.521,0,0,0-.732-1.883,2.647,2.647,0,0,0-3.737.072l-1.305,1.305h0a.786.786,0,0,0,0,1.112l4.912,4.911A.786.786,0,0,0,181.617,264l-1.544-1.544,3.594.229Zm-5.705-3.793a1.088,1.088,0,0,1,1.513-.072h0a.965.965,0,0,1,.272.723,1.183,1.183,0,0,1-.345.791c-.173.172-.473.475-.741.746-.265-.262-.559-.554-.726-.721l-.722-.719Z" transform="translate(-156.982 -230.037)" fill="#266ef1"/>
  <path id="Path_9264" data-name="Path 9264" d="M51.144,0H37.129a4.231,4.231,0,0,0-3.012,1.247l-4.83,4.83A.786.786,0,1,0,30.4,7.189l4.83-4.83a2.669,2.669,0,0,1,1.9-.787H51.144a.951.951,0,0,1,.95.95V16.538a2.669,2.669,0,0,1-.787,1.9L20.756,48.989,8.8,37.038A.786.786,0,0,0,7.692,38.15L19.644,50.1l-1.715,1.715a.951.951,0,0,1-1.344,0L1.851,37.081a.95.95,0,0,1,0-1.344l1.715-1.715L5.1,35.556A.786.786,0,1,0,6.21,34.444L4.677,32.911,27.821,9.767a.786.786,0,0,0-1.112-1.112L.739,34.626a2.523,2.523,0,0,0,0,3.568L15.473,52.928a2.523,2.523,0,0,0,3.568,0L52.419,19.549a4.231,4.231,0,0,0,1.247-3.012V2.523A2.525,2.525,0,0,0,51.144,0Z" fill="#266ef1"/>
  <path id="Path_9265" data-name="Path 9265" d="M427.5,43.94a2.523,2.523,0,1,0-2.523,2.523A2.525,2.525,0,0,0,427.5,43.94Zm-3.473,0a.95.95,0,1,1,.95.95A.951.951,0,0,1,424.022,43.94Z" transform="translate(-378.17 -37.076)" fill="#266ef1"/>
</svg>
