<svg xmlns="http://www.w3.org/2000/svg" width="68.15" height="57.35" viewBox="0 0 68.15 57.35">
  <path id="Vector_21" data-name="Vector 21" d="M16.2,18.9V35.1m0-16.2C29.16,18.9,41.4,9,45.9,4.05M16.2,18.9H6.75M16.2,35.1c7.2,1.35,23.22,6.48,29.7,16.2M16.2,35.1H6.75m9.45,0L12.994,47.25H6.75V35.1M45.9,51.3V4.05m0,47.25v4.05h5.4V0H45.9V4.05M6.75,35.1H0V18.9H6.75m0,16.2V18.9M56.7,14.85l5.4-2.7m-5.4,27,5.4,2.7M59.4,27h6.75" transform="translate(1 1)" fill="rgba(255,255,255,0)" stroke="#fff" stroke-linecap="round" stroke-linejoin="round" stroke-width="2"/>
</svg>
