<svg xmlns="http://www.w3.org/2000/svg" width="41.139" height="47.988" viewBox="0 0 41.139 47.988">
  <g id="Group_3032" data-name="Group 3032" transform="translate(1215.139 7004.883)">
    <g id="Group_42" data-name="Group 42" transform="translate(-1214.139 -7003.883)">
      <path id="Vector_25" data-name="Vector 25" d="M4.664,7.176l8.931,8.479L15.656,13.7,6.725,5.219M4.664,7.176,6.725,5.219M4.664,7.176C2.832,7.394-1.519,7.176.542,0A4.186,4.186,0,0,0,3.977,1.958C6.038,1.957,6.5,3.7,6.725,5.219" transform="translate(23.483 11.742)" fill="none" stroke="#f2bd6f" stroke-linecap="round" stroke-linejoin="round" stroke-width="2"/>
      <path id="Vector_24" data-name="Vector 24" d="M31.311,26.419H2.935M37.182,32.29H31.067m-24.217,0H0V26.419H2.935M6.849,32.29l-3.914,13.7H8.806l1.957-6.849M6.849,32.29H12.72m0,0H24.951m-12.231,0-1.957,6.849M24.951,32.29h6.115m-6.115,0,2.2,6.849m3.914-6.849,5.137,13.7H29.354l-2.2-6.849m-16.389,0H27.153M2.935,26.419V15.656M34.247,12.72V4.892h-9.3m-12.231,0H2.935V15.656M12.72,4.892V0H24.951V4.892m-12.231,0H24.951M2.935,15.656,6.849,12.72l5.871,3.914,4.892-3.914,4.525,2.935" fill="none" stroke="#f2bd6f" stroke-linecap="round" stroke-linejoin="round" stroke-width="2"/>
    </g>
  </g>
</svg>
