<svg xmlns="http://www.w3.org/2000/svg" width="21" height="14" viewBox="0 0 21 14"><defs><style>.a{fill:#266ef1;}</style></defs><g transform="translate(-4.5 -85.333)"><g transform="translate(4.5 85.333)"><path class="a" d="M240.066,213.448l-5.122,4.5-.02.018a.875.875,0,0,0,.618,1.494.887.887,0,0,0,.638-.277l4.5-5.122a.438.438,0,0,0-.618-.617Z" transform="translate(-225.042 -208.089)"/><path class="a" d="M10.5,85.333a10.5,10.5,0,0,0-10,13.7.438.438,0,0,0,.417.3H20.084a.438.438,0,0,0,.417-.3,10.5,10.5,0,0,0-10-13.7ZM18.812,96.27h1.282a9.583,9.583,0,0,1-.335,2.187H1.241A9.583,9.583,0,0,1,.905,96.27H2.187a.438.438,0,0,0,0-.875H.9a9.55,9.55,0,0,1,1.064-3.987l1.121.647A.438.438,0,0,0,3.52,91.3L2.4,90.652a9.689,9.689,0,0,1,2.918-2.918l.646,1.119a.437.437,0,1,0,.757-.438l-.647-1.121a9.55,9.55,0,0,1,3.987-1.064v1.29a.438.438,0,1,0,.875,0V86.23a9.55,9.55,0,0,1,3.987,1.064l-.647,1.121a.437.437,0,1,0,.757.438l.646-1.119A9.689,9.689,0,0,1,18.6,90.652L17.48,91.3a.438.438,0,0,0,.437.758l1.121-.647A9.55,9.55,0,0,1,20.1,95.4h-1.29a.438.438,0,1,0,0,.875Z" transform="translate(0 -85.333)"/></g></g></svg>