<svg xmlns="http://www.w3.org/2000/svg" width="38.723" height="32.609" viewBox="0 0 38.723 32.609"><defs><style>.a{fill:none;stroke:#c39eff;stroke-linecap:round;stroke-linejoin:round;stroke-width:2px;}</style></defs><path class="a" d="M18.362,27.258c-7.651,0-6.885-7.572-6.885-7.572l2.119-6.057m4.767,13.629c7.651,0,6.886-7.572,6.886-7.572l-2.119-6.057M18.362,27.258A15.715,15.715,0,0,1,9.181,24.1m9.181,3.159A15.713,15.713,0,0,0,27.543,24.1m-9.181,3.159c4.285,6.057,14.026,2.524,18.361,0L27.543,24.1m-9.181,3.159C14.69,33.315,4.591,29.782,0,27.258L9.181,24.1m13.948-10.47L20.745,6.814m2.383,6.814,6.8-2.65m-16.331,2.65-6.8-2.65m6.8,2.65,2.383-6.814M6.8,10.979,0,8.329,6.12,21.2a15.183,15.183,0,0,0,3.06,2.9M6.8,10.979,8.416,2.271l7.563,4.543m0,0L18.362,0l2.383,6.814m0,0,7.562-4.543,1.619,8.707m0,0,6.8-2.65L30.6,21.2a15.178,15.178,0,0,1-3.06,2.9" transform="translate(1 1)"/></svg>