<svg xmlns="http://www.w3.org/2000/svg" xmlns:xlink="http://www.w3.org/1999/xlink" width="32.412" height="32.102" viewBox="0 0 32.412 32.102"><defs><style>.a{fill:none;stroke:#6dd7a4;stroke-linecap:round;stroke-linejoin:round;stroke-width:1.5px;}.b{fill:url(#a);}</style><linearGradient id="a" y1="0.5" x2="1" y2="0.5" gradientUnits="objectBoundingBox"><stop offset="0" stop-color="#6dd7a4"/><stop offset="1" stop-color="#3ec684"/></linearGradient></defs><g transform="translate(1.061 0.75)"><path class="a" d="M0,5v6.87M0,5c0,1.874,2.5,5,9.992,5s9.992-3.123,9.992-5M0,5C0,3.123,2.5,0,9.992,0s9.992,3.747,9.992,5M13.115,26.23C5.621,27.729,1.249,24.773,0,23.107V17.487m0,0c1.041,1.457,4.871,4.247,11.866,3.747M0,17.487V11.866m0,0a15.107,15.107,0,0,0,14.364,3.123M19.985,5v6.87" transform="translate(0)"/><ellipse class="a" cx="9.368" cy="9.368" rx="9.368" ry="9.368" transform="translate(11.866 11.866)"/><path class="b" d="M6.258,7.732A2.164,2.164,0,0,1,5.6,9.318a3.089,3.089,0,0,1-1.7.824v1.037a.578.578,0,0,1-.175.425.593.593,0,0,1-.437.175.538.538,0,0,1-.412-.175.6.6,0,0,1-.162-.425v-1a4.407,4.407,0,0,1-1.324-.312A3.9,3.9,0,0,1,.262,9.118.663.663,0,0,1,0,8.606a.55.55,0,0,1,.175-.4.546.546,0,0,1,.412-.187.517.517,0,0,1,.362.137,4.629,4.629,0,0,0,.837.6,2.837,2.837,0,0,0,.924.275V6.145A4.07,4.07,0,0,1,.862,5.283,2.123,2.123,0,0,1,.225,3.66,2.156,2.156,0,0,1,.912,2.023a3.088,3.088,0,0,1,1.8-.787V.6A.6.6,0,0,1,2.873.175.593.593,0,0,1,3.31,0a.538.538,0,0,1,.412.175A.578.578,0,0,1,3.9.6v.662a4.11,4.11,0,0,1,1.087.312,2.742,2.742,0,0,1,.824.55A.714.714,0,0,1,6.1,2.66a.55.55,0,0,1-.175.4.524.524,0,0,1-.4.175.416.416,0,0,1-.287-.1,2.574,2.574,0,0,0-.587-.4A3.248,3.248,0,0,0,3.9,2.448V5.221A3.922,3.922,0,0,1,5.671,6.1,2.136,2.136,0,0,1,6.258,7.732ZM1.411,3.61a1.076,1.076,0,0,0,.325.812,2.657,2.657,0,0,0,.974.5V2.4a1.8,1.8,0,0,0-.962.425A1.052,1.052,0,0,0,1.411,3.61ZM3.9,8.968a1.892,1.892,0,0,0,.837-.462.976.976,0,0,0,.325-.724,1.165,1.165,0,0,0-.3-.787A2.1,2.1,0,0,0,3.9,6.458Z" transform="translate(18.111 15.613)"/></g></svg>