<svg xmlns="http://www.w3.org/2000/svg" width="33.927" height="32.605" viewBox="0 0 33.927 32.605"><defs><style>.a{fill:none;stroke:#ffa2b9;stroke-linecap:round;stroke-linejoin:round;stroke-width:2px;}</style></defs><g transform="translate(1.002 1.002)"><g transform="translate(10.638 0)"><path class="a" d="M5.319,0C2.45,0,0,.424,0,2.115S2.435,4.241,5.319,4.241c2.869,0,5.319-.419,5.319-2.112S8.2,0,5.319,0Z" transform="matrix(1, -0.002, 0.002, 1, 0, 9.073)"/><path class="a" d="M3.409,6.642A3.366,3.366,0,0,0,6.818,3.321,3.366,3.366,0,0,0,3.409,0,3.366,3.366,0,0,0,0,3.321,3.352,3.352,0,0,0,3.384,6.642Z" transform="matrix(1, -0.002, 0.002, 1, 1.892, 0.014)"/></g><g transform="translate(0 17.286)"><g transform="translate(21.276 0)"><path class="a" d="M5.319,0C2.45,0,0,.424,0,2.115S2.435,4.241,5.319,4.241c2.869,0,5.319-.419,5.319-2.112S8.2,0,5.319,0Z" transform="matrix(1, -0.002, 0.002, 1, 0, 9.073)"/><path class="a" d="M3.409,6.642A3.366,3.366,0,0,0,6.818,3.321,3.366,3.366,0,0,0,3.409,0,3.366,3.366,0,0,0,0,3.321,3.352,3.352,0,0,0,3.384,6.642Z" transform="matrix(1, -0.002, 0.002, 1, 1.892, 0.014)"/></g><g transform="translate(0 0)"><path class="a" d="M5.319,0C2.45,0,0,.424,0,2.115S2.435,4.241,5.319,4.241c2.869,0,5.319-.419,5.319-2.112S8.2,0,5.319,0Z" transform="matrix(1, -0.002, 0.002, 1, 0, 9.073)"/><path class="a" d="M3.409,6.642A3.366,3.366,0,0,0,6.818,3.321,3.366,3.366,0,0,0,3.409,0,3.366,3.366,0,0,0,0,3.321,3.352,3.352,0,0,0,3.384,6.642Z" transform="matrix(1, -0.002, 0.002, 1, 1.892, 0.014)"/></g></g><path class="a" d="M4.654,0V14.627m0,0H0m4.654,0H9.973" transform="translate(11.284 13.293)"/></g></svg>