<svg xmlns="http://www.w3.org/2000/svg" width="31.082" height="32.81" viewBox="0 0 31.082 32.81"><defs><style>.a{fill:none;stroke:#f2bd6f;stroke-linecap:round;stroke-linejoin:round;stroke-width:1.5px;}</style></defs><path class="a" d="M10.365,29.226V24.451a2.22,2.22,0,0,1,2.217-2.209h4.493a2.221,2.221,0,0,1,2.232,2.209h0V29.24a1.907,1.907,0,0,0,1.872,1.9h3a5.38,5.38,0,0,0,5.407-5.353h0V12.2a3.8,3.8,0,0,0-1.5-2.966L17.839,1.067a4.952,4.952,0,0,0-6.141,0L1.5,9.252A3.768,3.768,0,0,0,0,12.218V25.785a5.38,5.38,0,0,0,5.407,5.353h3a1.923,1.923,0,0,0,1.932-1.913h0" transform="translate(0.75 0.922)"/></svg>