<svg xmlns="http://www.w3.org/2000/svg" width="20.875" height="20.879" viewBox="0 0 20.875 20.879"><defs><style>.a{fill:#e14b77;}</style></defs><g transform="translate(-0.449 0)"><path class="a" d="M21.27,6.138a7.629,7.629,0,0,0-.485-2.533A5.348,5.348,0,0,0,17.73.551,7.649,7.649,0,0,0,15.2.065C14.08.012,13.725,0,10.89,0S7.7.012,6.587.061A7.631,7.631,0,0,0,4.054.547,5.094,5.094,0,0,0,2.2,1.754,5.14,5.14,0,0,0,1,3.6,7.65,7.65,0,0,0,.514,6.134C.461,7.252.449,7.607.449,10.442s.012,3.19.061,4.3A7.629,7.629,0,0,0,1,17.277,5.348,5.348,0,0,0,4.05,20.332a7.65,7.65,0,0,0,2.533.485c1.113.049,1.468.061,4.3.061s3.19-.012,4.3-.061a7.627,7.627,0,0,0,2.533-.485,5.34,5.34,0,0,0,3.055-3.055,7.655,7.655,0,0,0,.485-2.533c.049-1.114.061-1.468.061-4.3s0-3.19-.053-4.3Zm-1.88,8.524a5.723,5.723,0,0,1-.359,1.937,3.463,3.463,0,0,1-1.982,1.982,5.743,5.743,0,0,1-1.937.359c-1.1.049-1.432.061-4.217.061s-3.12-.012-4.217-.061a5.72,5.72,0,0,1-1.937-.359,3.213,3.213,0,0,1-1.2-.779,3.246,3.246,0,0,1-.779-1.2A5.744,5.744,0,0,1,2.4,14.667c-.049-1.1-.061-1.432-.061-4.217s.012-3.12.061-4.217a5.72,5.72,0,0,1,.359-1.937,3.173,3.173,0,0,1,.783-1.2,3.241,3.241,0,0,1,1.2-.779,5.747,5.747,0,0,1,1.937-.359C7.782,1.909,8.113,1.9,10.9,1.9s3.12.012,4.217.061a5.723,5.723,0,0,1,1.937.359,3.21,3.21,0,0,1,1.2.779,3.245,3.245,0,0,1,.779,1.2,5.746,5.746,0,0,1,.359,1.937c.049,1.1.061,1.432.061,4.217s-.012,3.112-.061,4.213Zm0,0"/><path class="a" d="M130.312,124.5a5.363,5.363,0,1,0,5.363,5.364A5.365,5.365,0,0,0,130.312,124.5Zm0,8.843a3.479,3.479,0,1,1,3.479-3.479A3.48,3.48,0,0,1,130.312,133.343Zm0,0" transform="translate(-119.422 -119.422)"/><path class="a" d="M364.954,89.854A1.252,1.252,0,1,1,363.7,88.6,1.252,1.252,0,0,1,364.954,89.854Zm0,0" transform="translate(-347.236 -84.988)"/></g></svg>