<svg xmlns="http://www.w3.org/2000/svg" width="60.6" height="58.126" viewBox="0 0 60.6 58.126">
  <g id="Leads_Icon" data-name="Leads Icon" transform="translate(-23.218 38.791)">
    <path id="Union_5" data-name="Union 5" d="M39.066,52.243c0-3.1,4.493-3.893,9.761-3.9,5.3-.012,9.768.779,9.773,3.889s-4.488,3.885-9.756,3.891l-.115,0C43.485,56.123,39.073,55.323,39.066,52.243ZM0,52.243c0-3.1,4.491-3.893,9.761-3.9,5.3-.012,9.766.779,9.772,3.889s-4.488,3.885-9.756,3.891l-.114,0C4.416,56.123.007,55.323,0,52.243Zm29.258-1.02h0Zm-8.546,0h0ZM29.258,51.223Zm0,0V24.4h-.051c-5.25,0-9.665-.8-9.675-3.881-.007-3.1,4.493-3.892,9.761-3.9,5.3-.01,9.769.783,9.776,3.889s-4.488,3.884-9.761,3.9h-.049Zm19.514-7.31a6.272,6.272,0,1,1,.047,0Zm-39.064,0a6.1,6.1,0,1,1,.019-12.19,6.1,6.1,0,1,1,.026,12.19ZM29.239,12.189A6.151,6.151,0,0,1,23.013,6.11a6.262,6.262,0,0,1,12.519-.028,6.178,6.178,0,0,1-6.249,6.107Z" transform="translate(24.218 -37.791)" fill="none" stroke="#266ef1" stroke-linecap="round" stroke-linejoin="round" stroke-width="2"/>
  </g>
</svg>
