<svg xmlns="http://www.w3.org/2000/svg" width="716.67" height="511.69" viewBox="0 0 716.67 511.69">
  <g id="Group_3080" data-name="Group 3080" transform="translate(7.797 -269.309)">
    <rect id="Rectangle_447" data-name="Rectangle 447" width="716.67" height="0.358" transform="translate(-7.797 716.265)" fill="#e6e6e6"/>
    <rect id="Rectangle_448" data-name="Rectangle 448" width="47.475" height="0.358" transform="translate(123.646 737.951)" fill="#e6e6e6"/>
    <rect id="Rectangle_450" data-name="Rectangle 450" width="27.509" height="0.358" transform="translate(266.49 743.226)" fill="#e6e6e6"/>
    <rect id="Rectangle_451" data-name="Rectangle 451" width="61.911" height="0.358" transform="translate(375.512 751.228)" fill="#e6e6e6"/>
    <rect id="Rectangle_452" data-name="Rectangle 452" width="9.077" height="0.358" transform="translate(353.673 751.228)" fill="#e6e6e6"/>
    <rect id="Rectangle_453" data-name="Rectangle 453" width="134.269" height="0.358" transform="translate(507.728 743.226)" fill="#e6e6e6"/>
    <rect id="Rectangle_454" data-name="Rectangle 454" width="31.518" height="125.037" transform="translate(343.959 593.828)" fill="#e0e0e0"/>
    <path id="Path_9280" data-name="Path 9280" d="M265.121,389.36h5.986V372.332H258.844Z" transform="translate(104.37 329.505)" fill="#fafafa"/>
    <rect id="Rectangle_455" data-name="Rectangle 455" width="31.518" height="125.037" transform="translate(205.849 593.828)" fill="#e0e0e0"/>
    <rect id="Rectangle_456" data-name="Rectangle 456" width="143.335" height="114.588" transform="translate(232.142 593.828)" fill="#fafafa"/>
    <path id="Path_9281" data-name="Path 9281" d="M304.132,301.074v30.317H171.192V301.074H304.132m.553-.553H170.639v31.423H304.685V300.521Z" transform="translate(66.148 298.386)" fill="#e0e0e0"/>
    <path id="Path_9282" data-name="Path 9282" d="M173.385,389.36H167.4V372.332h12.263Z" transform="translate(64.743 329.505)" fill="#fafafa"/>
    <path id="Path_9283" data-name="Path 9283" d="M215.187,312.44a3.171,3.171,0,1,0,3.171-3.169A3.171,3.171,0,0,0,215.187,312.44Z" transform="translate(85.452 302.178)" fill="#e6e6e6"/>
    <path id="Path_9284" data-name="Path 9284" d="M304.132,326.541v30.317H171.192V326.541H304.132m.553-.553H170.639v31.423H304.685V325.988Z" transform="translate(66.148 309.422)" fill="#e0e0e0"/>
    <path id="Path_9285" data-name="Path 9285" d="M215.187,337.909a3.171,3.171,0,1,0,3.171-3.171A3.17,3.17,0,0,0,215.187,337.909Z" transform="translate(85.452 313.213)" fill="#e6e6e6"/>
    <path id="Path_9286" data-name="Path 9286" d="M304.132,352.008v30.317H171.192V352.008H304.132m.553-.553H170.639V382.88H304.685V351.455Z" transform="translate(66.148 320.458)" fill="#e0e0e0"/>
    <path id="Path_9287" data-name="Path 9287" d="M215.187,363.376a3.171,3.171,0,1,0,3.171-3.171A3.171,3.171,0,0,0,215.187,363.376Z" transform="translate(85.452 324.249)" fill="#e6e6e6"/>
    <path id="Path_9297" data-name="Path 9297" d="M66.8,228.148v8.639a17.453,17.453,0,0,0,17.4,17.4h8.639a17.452,17.452,0,0,0,17.4-17.4v-8.639Z" transform="translate(21.151 267.024)" fill="#f5f5f5"/>
    <path id="Path_9298" data-name="Path 9298" d="M195.667,284.265c0,10.02,11.224,18.221,24.943,18.221h12.383c13.72,0,24.944-8.2,24.944-18.221Z" transform="translate(76.993 291.342)" fill="#e0e0e0"/>
    <path id="Path_9299" data-name="Path 9299" d="M450.875,327.259c-7.511,6.13-17.877,17.356-27.375,33.149-6.325,10.518-10.139,21.539-11.814,36.1.036-16.481.087-34.191.145-50.9,1.908-4.3,6.265-14.213,9.391-22.045,10.43-26.131,14.315-32.557,23.7-55.1,12.512-30.063,25.333-65.734,21.662-62.885-7.481,5.809-36.149,59.491-39.248,67.173-10.658,26.431-13.627,45.7-15.471,64.29.057-15.7.12-30.112.179-41.233.192-36.276.808-47.984,1.109-51.593,1.161-1.835,2.53-3.975,3.328-5.127,6.734-9.737,9.331-18.031,15.675-32.553,8.991-20.578,16.736-57.114,14.471-55.271-9.426,7.671-16.86,24.168-26.63,45.187s-6.975,33.107-8.913,51.06c-.408,3.523-.719,16.817-.943,35.243-2.534-19.63-7.287-32.565-15.96-44.32-10.665-14.46-20.984-24.226-28.556-29.326s13.073,30.415,22.946,45.917c8.794,13.8,16.892,25.986,21.459,37.983-.242,24.972-.354,56.593-.355,86.028-2.265-13.4-5.963-27.82-10.9-38.988-5.928-13.422-15.049-34-22.308-40.988-1.743-1.677,7.591,38.356,13.582,49s10.389,20.679,14.16,26.713c.88,1.408,3.8,6.837,5.464,9.959.017,35.934.2,67.642.512,78.435h1.552c-.1-2.785-.122-21.064-.089-45.258,3.738-13.137,12.287-28.126,19.343-41.8C438.691,361.182,458.387,321.127,450.875,327.259Z" transform="translate(149.933 233.678)" fill="#e0e0e0"/>
    <g id="Group_3053" data-name="Group 3053" transform="translate(530.032 665.101)">
      <path id="Path_9300" data-name="Path 9300" d="M427.048,397.525H382.122l-3.391-44.037h51.708Z" transform="translate(-373.71 -343.762)" fill="#f0f0f0"/>
      <path id="Path_9301" data-name="Path 9301" d="M435.305,361.56H376.9L375.228,346.7h61.75Z" transform="translate(-375.228 -346.702)" fill="#f5f5f5"/>
    </g>
    <g id="Group_3056" data-name="Group 3056" transform="translate(505.311 286.656)">
      <rect id="Rectangle_464" data-name="Rectangle 464" width="74.634" height="81.953" fill="#e0e0e0"/>
      <rect id="Rectangle_465" data-name="Rectangle 465" width="77.092" height="81.953" transform="translate(5.626)" fill="#f5f5f5"/>
      <rect id="Rectangle_466" data-name="Rectangle 466" width="69.037" height="64.175" transform="translate(76.259 6.458) rotate(90)" fill="#fff"/>
    </g>
    <circle id="Ellipse_58" data-name="Ellipse 58" cx="20.021" cy="20.021" r="20.021" transform="translate(529.461 307.611)" fill="#f5f5f5"/>
    <g id="Group_3058" data-name="Group 3058" transform="translate(194.174 328.975)">
      <rect id="Rectangle_467" data-name="Rectangle 467" width="59.599" height="65.444" fill="#e0e0e0"/>
      <rect id="Rectangle_468" data-name="Rectangle 468" width="61.562" height="65.444" transform="translate(4.493)" fill="#f5f5f5"/>
      <rect id="Rectangle_469" data-name="Rectangle 469" width="55.129" height="51.247" transform="translate(60.897 5.157) rotate(90)" fill="#fff"/>
      <path id="Path_9302" data-name="Path 9302" d="M169.756,125.3l-14.015,24.275h28.031Z" transform="translate(-134.482 -106.517)" fill="#f5f5f5"/>
    </g>
    <path id="Path_9415" data-name="Path 9415" d="M277.909,0C431.393,0,555.817,7.267,555.817,16.23s-124.424,16.23-277.909,16.23S0,25.194,0,16.23,124.424,0,277.909,0Z" transform="translate(72.629 748.538)" fill="#fff"/>
    <path id="Path_9303" data-name="Path 9303" d="M371.258,165.175l-14.217-5.765s-18.762,34.218-24.136,35.944c-7.313,2.351-22.436,8.885-31.423,10.111-1.211,1.416-3.209,5.882-3.019,7.509,12.057,4.021,38.545-1.317,44.214-5.528C355.6,197.845,371.258,165.175,371.258,165.175Z" transform="translate(121.533 237.237)" fill="#e58a7b"/>
    <path id="Path_9304" data-name="Path 9304" d="M361.546,160.414c2.644,9.8-11.716,29.494-11.716,29.494l-18.866-10.582s3.517-8.094,7.823-16.339C345.74,149.676,358.526,149.227,361.546,160.414Z" transform="translate(135.623 234.233)" fill="#407bff"/>
    <path id="Path_9305" data-name="Path 9305" d="M361.546,160.414c2.644,9.8-11.716,29.494-11.716,29.494l-18.866-10.582s3.517-8.094,7.823-16.339C345.74,149.676,358.526,149.227,361.546,160.414Z" transform="translate(135.623 234.233)" opacity="0.2"/>
    <path id="Path_9306" data-name="Path 9306" d="M336.212,179.768l7.409,4.154,1.3-22.741C340.617,164.494,337.567,174.466,336.212,179.768Z" transform="translate(137.897 238.004)" opacity="0.2"/>
    <path id="Path_9307" data-name="Path 9307" d="M346.317,153.878s-14.647,32.588-6.107,93.277H397.93c.917-8.861-2.116-52.085,8.878-93.834a147.141,147.141,0,0,0-19.179-2.44c-7.354-.355-18.019-.591-24.537,0A111.956,111.956,0,0,0,346.317,153.878Z" transform="translate(138.47 233.386)" fill="#407bff"/>
    <path id="Path_9308" data-name="Path 9308" d="M346.317,153.878s-14.647,33.588-6.107,94.277H397.93c.917-8.861-2.116-53.085,8.878-94.834a147.141,147.141,0,0,0-19.179-2.44c-7.354-.355-18.019-.591-24.537,0A111.956,111.956,0,0,0,346.317,153.878Z" transform="translate(138.47 233.386)" opacity="0.2"/>
    <path id="Path_9309" data-name="Path 9309" d="M334.323,417.985c-.09,1.539,21.794,2.786,48.88,2.786s49.116-1.247,49.207-2.786-21.794-2.788-48.88-2.788S334.413,416.445,334.323,417.985Z" transform="translate(137.078 348.08)" fill="#e8ecf1" style="mix-blend-mode: multiply;isolation: isolate"/>
    <rect id="Rectangle_470" data-name="Rectangle 470" width="11.008" height="24.5" transform="translate(501.044 731.333) rotate(-21.073)" fill="#e58a7b"/>
    <path id="Path_9310" data-name="Path 9310" d="M397.511,417.01H386.719l-3.959-24.991h10.792Z" transform="translate(158.068 338.035)" fill="#e58a7b"/>
    <path id="Path_9311" data-name="Path 9311" d="M390.282,408.582h12.125a.876.876,0,0,1,.876.737l1.568,9.593a1.694,1.694,0,0,1-1.691,1.919c-4.228-.073-6.271-.321-11.6-.321-3.279,0-10.058.341-14.587.341-4.43,0-4.859-4.479-2.981-4.885,8.422-1.819,11.7-4.327,14.5-6.721A2.765,2.765,0,0,1,390.282,408.582Z" transform="translate(153.811 345.212)" fill="#263238"/>
    <path id="Path_9312" data-name="Path 9312" d="M366.908,406.968l11.5-3.343a.893.893,0,0,1,1.064.447l4.26,8.594a1.647,1.647,0,0,1-1.078,2.28c-4.164,1.137-6.963,1.848-12.176,3.364-3.6,1.046-7.266,2.752-10.825,3.886-2.464.785-8.25.818-11.247.818-4.43,0-5.418-4.673-3.52-4.885,4.806-.54,5.451-.29,8.1-1.62,4.386-2.2,7.779-4.023,11.576-8A5.4,5.4,0,0,1,366.908,406.968Z" transform="translate(141.257 343.049)" fill="#263238"/>
    <path id="Path_9313" data-name="Path 9313" d="M306.9,192.98l-11.875-5-4.889,13.157a48.943,48.943,0,0,0,14.68,0Z" transform="translate(117.931 249.618)" fill="#e58a7b"/>
    <path id="Path_9314" data-name="Path 9314" d="M287.485,187.758l-.313,8.753,4.25,4.726,4.889-13.155Z" transform="translate(116.646 249.521)" fill="#e58a7b"/>
    <rect id="Rectangle_471" data-name="Rectangle 471" width="11.013" height="12.629" transform="translate(501.041 731.345) rotate(-21.105)" fill="#cf6f64"/>
    <path id="Path_9315" data-name="Path 9315" d="M393.555,392.023h-10.8l2.046,12.882h10.8Z" transform="translate(158.068 338.037)" fill="#cf6f64"/>
    <path id="Path_9316" data-name="Path 9316" d="M338.123,219.481c.206,2.593.457,5.243.767,7.968l42.92-13.934a30.751,30.751,0,0,0,16.512-11.974c.162-3.83.383-7.85.707-12.049.148-2.048.324-4.139.516-6.261.206-2.209.441-4.462.707-6.731Z" transform="translate(138.725 244.643)" opacity="0.2"/>
    <path id="Path_9317" data-name="Path 9317" d="M348.342,177.572l-1.462-.175c.851-7.151,6.192-12.8,11.831-12.671l-.043,1.473C353.8,166.06,349.107,171.158,348.342,177.572Z" transform="translate(142.52 239.54)" fill="#fff"/>
    <path id="Path_9318" data-name="Path 9318" d="M353.3,186.806l-.242,0,.043-1.473c4.929.181,9.56-4.956,10.327-11.372l1.461.175C364.05,181.182,358.88,186.806,353.3,186.806Z" transform="translate(145.197 243.541)" fill="#fff"/>
    <path id="Path_9319" data-name="Path 9319" d="M379.672,131.5c-2.011,7.895-4.4,22.36.811,27.629,0,0-3.642,8.008-18.312,8.008-13.4,0-6.225-8.008-6.225-8.008,8.927-2.1,9.083-8.633,7.909-14.768Z" transform="translate(145.616 225.141)" fill="#e58a7b"/>
    <path id="Path_9320" data-name="Path 9320" d="M370.249,135.158l-9.361,7.607a24.723,24.723,0,0,1,.5,4.356c2.736,2.725,8.227-4.178,8.791-7.7A11.8,11.8,0,0,0,370.249,135.158Z" transform="translate(148.59 226.728)" fill="#cf6f64"/>
    <path id="Path_9321" data-name="Path 9321" d="M349.862,133.614a9.4,9.4,0,0,0,6.08,4.495c3.441.767,5.171-2.4,4.223-5.586-.854-2.867-3.674-6.722-7.132-6.062A4.779,4.779,0,0,0,349.862,133.614Z" transform="translate(143.528 222.927)" fill="#cf6f64"/>
    <path id="Path_9322" data-name="Path 9322" d="M355.088,113.93c-5.361,2.457-7.25,23.753-.51,26.9S365.242,109.279,355.088,113.93Z" transform="translate(143.981 217.342)" fill="#263238"/>
    <path id="Path_9323" data-name="Path 9323" d="M382.481,127.955c-1.283,10.691-1.494,16.981-7.214,22.468a13.778,13.778,0,0,1-23.439-7.313c-1.733-9.6.658-25.473,11.371-29.727C373.754,109.191,383.764,117.265,382.481,127.955Z" transform="translate(144.442 216.803)" fill="#e58a7b"/>
    <path id="Path_9324" data-name="Path 9324" d="M367.338,126.377c7.929-2.028,13.764-3.41,11.682,3.209-2.775,8.818-6.1,17.361-1.638,17.758,2.715.242,14.756-4.866,13.227-10.033-1.332-4.5,4.266-5.715,5.3-8.009,3.717-8.265-6.9-7.191-5.012-12.192,1.84-4.869-8.556-13.1-14.316-9.079-9.324,6.509-25.347,6.416-16.923-4.26,6.033-7.645-4.731-6.076-4.731-6.076s6.5,3.857-4.442,9.82C338.879,113.835,349.5,130.941,367.338,126.377Z" transform="translate(141.977 210.435)" fill="#263238"/>
    <path id="Path_9325" data-name="Path 9325" d="M379.173,133.614a11.009,11.009,0,0,1-6.609,4.495c-3.53.767-4.889-2.4-3.566-5.586,1.19-2.867,4.462-6.722,7.842-6.062C380.17,127.114,381.07,130.8,379.173,133.614Z" transform="translate(151.888 222.927)" fill="#e58a7b"/>
    <path id="Path_9326" data-name="Path 9326" d="M342.563,217.94s-9.689,86.713-10.445,119.622c-.785,34.231,32.835,141.032,32.835,141.032l17.216-7.23s-20.045-97.572-17.26-131.189c3.034-36.65,15.6-122.235,15.6-122.235Z" transform="translate(136.117 262.6)" fill="#407bff"/>
    <path id="Path_9327" data-name="Path 9327" d="M357.4,235.6c-7.719,16.026-2.518,47.709,1.664,66.488,1.591-13.257,3.476-27.648,5.273-40.962C364.16,240.654,362.569,224.85,357.4,235.6Z" transform="translate(145.358 268.748)" opacity="0.2"/>
    <path id="Path_9328" data-name="Path 9328" d="M372.817,390.826c.08-.034,2.041,5.485,2.041,5.485l-19.843,8.333-3.126-5.812Z" transform="translate(144.69 337.518)" fill="#407bff"/>
    <path id="Path_9329" data-name="Path 9329" d="M353.686,217.94s7.412,82.471,12.324,113.369c5.379,33.834,26.51,146.539,26.51,146.539h19.766s-11.842-109.973-14.08-143.471c-2.428-36.358-7.274-116.436-7.274-116.436Z" transform="translate(145.469 262.6)" fill="#407bff"/>
    <path id="Path_9330" data-name="Path 9330" d="M401.617,395.923c.085,0,.661,5.524.661,5.524H380.553L379,395.106Z" transform="translate(156.439 339.373)" fill="#407bff"/>
    <path id="Path_9331" data-name="Path 9331" d="M395.42,462.638a.183.183,0,0,1-.182-.163c-.107-1-10.789-100.286-12.8-130.384-2.18-32.661-6.565-105.081-6.609-105.809a.185.185,0,0,1,.173-.195h.012a.185.185,0,0,1,.183.173c.043.727,4.428,73.146,6.609,105.8,2.008,30.092,12.687,129.372,12.8,130.369a.182.182,0,0,1-.163.2Z" transform="translate(155.065 266.131)" opacity="0.2"/>
    <path id="Path_9332" data-name="Path 9332" d="M362.248,125.77c-.052.87-.553,1.575-1.122,1.575s-.989-.705-.937-1.575.553-1.577,1.122-1.577S362.3,124.9,362.248,125.77Z" transform="translate(148.285 221.976)" fill="#263238"/>
    <path id="Path_9333" data-name="Path 9333" d="M355.384,125.77c-.052.87-.553,1.575-1.122,1.575s-.989-.705-.939-1.575.555-1.577,1.124-1.577S355.435,124.9,355.384,125.77Z" transform="translate(145.31 221.976)" fill="#263238"/>
    <path id="Path_9334" data-name="Path 9334" d="M358.313,125.6s-2.273,5.022-4.594,7.445c1.455,1.438,4.112.78,4.112.78Z" transform="translate(145.483 222.583)" fill="#df5753"/>
    <path id="Path_9335" data-name="Path 9335" d="M357.172,134.886a.239.239,0,0,1-.241-.255.276.276,0,0,1,.271-.257,7.372,7.372,0,0,0,5.779-2.7.264.264,0,0,1,.358-.073.248.248,0,0,1,.053.353A7.813,7.813,0,0,1,357.172,134.886Z" transform="translate(146.875 225.17)" fill="#263238"/>
    <path id="Path_9336" data-name="Path 9336" d="M364.3,123.964a.508.508,0,0,1-.452-.039,4.036,4.036,0,0,0-3.651-.381.492.492,0,0,1-.668-.239.535.535,0,0,1,.279-.682,5.034,5.034,0,0,1,4.621.429.5.5,0,0,1,.13.7A.563.563,0,0,1,364.3,123.964Z" transform="translate(147.984 221.134)" fill="#263238"/>
    <path id="Path_9337" data-name="Path 9337" d="M352.21,122.247a.459.459,0,0,1-.195-.11.508.508,0,0,1,0-.721,5.331,5.331,0,0,1,4.418-1.777.476.476,0,0,1,.4.582.546.546,0,0,1-.6.43h0a4.264,4.264,0,0,0-3.486,1.445A.532.532,0,0,1,352.21,122.247Z" transform="translate(144.68 219.991)" fill="#263238"/>
    <path id="Path_9338" data-name="Path 9338" d="M410.064,163.517l-14.911-3.969s-14.621,35.987-19.784,38.338c-7.028,3.2-24.823,14.257-32.383,19.589-.42,1.783-.09,6.537.861,7.83,12.858-2.336,37.6-11.847,42.755-16.68C398.364,197.6,410.064,163.517,410.064,163.517Z" transform="translate(140.754 237.297)" fill="#e58a7b"/>
    <path id="Path_9339" data-name="Path 9339" d="M383.23,410.723a3.14,3.14,0,0,1-2.045-.549,1.46,1.46,0,0,1-.449-1.352.872.872,0,0,1,.48-.724c1.217-.611,4.584,1.527,4.964,1.772a.248.248,0,0,1,.1.259.278.278,0,0,1-.2.206A13.051,13.051,0,0,1,383.23,410.723Zm-1.472-2.233a.748.748,0,0,0-.335.065.331.331,0,0,0-.178.3.989.989,0,0,0,.291.929c.56.5,1.967.563,3.82.193A9.72,9.72,0,0,0,381.758,408.49Z" transform="translate(157.184 344.956)" fill="#407bff"/>
    <path id="Path_9340" data-name="Path 9340" d="M385.308,411.109a.254.254,0,0,1-.12-.03c-1.082-.606-3.1-2.971-2.8-4.175a.9.9,0,0,1,.853-.669,1.335,1.335,0,0,1,1.069.328c1.194,1.025,1.268,4.139,1.271,4.271a.272.272,0,0,1-.13.234A.263.263,0,0,1,385.308,411.109Zm-1.921-4.375c-.039,0-.077,0-.118.007-.334.04-.373.194-.389.258-.176.711,1.094,2.5,2.154,3.341-.072-.912-.31-2.726-1.075-3.383A.852.852,0,0,0,383.387,406.735Z" transform="translate(157.892 344.191)" fill="#407bff"/>
    <path id="Path_9341" data-name="Path 9341" d="M356.947,409.35a4.084,4.084,0,0,1-2.7-.017,1.332,1.332,0,0,1-.7-1.1.854.854,0,0,1,.292-.76c1.155-1.028,5.831.077,6.36.206a.237.237,0,0,1,.182.224.278.278,0,0,1-.161.258A19.522,19.522,0,0,1,356.947,409.35Zm-2.331-1.7a1.074,1.074,0,0,0-.453.205.323.323,0,0,0-.109.3.871.871,0,0,0,.454.725c.761.413,2.528.086,4.8-.867A13.884,13.884,0,0,0,354.616,407.647Z" transform="translate(145.406 344.546)" fill="#407bff"/>
    <path id="Path_9342" data-name="Path 9342" d="M359.524,409.1a.273.273,0,0,1-.107,0c-1.389-.257-4.356-1.9-4.383-3.139-.006-.288.129-.684.808-.92a1.831,1.831,0,0,1,1.476.086c1.557.768,2.371,3.52,2.405,3.638a.267.267,0,0,1-.062.251A.273.273,0,0,1,359.524,409.1Zm-3.39-3.621c-.049.013-.1.029-.149.044-.444.156-.441.338-.44.4.017.74,2.078,2.1,3.532,2.56-.289-.791-.986-2.388-2.007-2.891A1.336,1.336,0,0,0,356.134,405.479Z" transform="translate(146.053 343.629)" fill="#407bff"/>
    <path id="Path_9343" data-name="Path 9343" d="M348.821,199.373l-14.947,6.88-1.734,4.217,5.526,3.717s10.309-1.122,13.245-7.746Z" transform="translate(136.132 254.554)" fill="#e58a7b"/>
    <path id="Path_9344" data-name="Path 9344" d="M345.062,208.583c-.935-5.553-2.761-8.085-2.778-8.111l2.356-1.767c.092.122,2.257,3.047,3.327,9.388Z" transform="translate(140.528 254.264)" fill="#263238"/>
    <path id="Path_9345" data-name="Path 9345" d="M347.624,201.2a2.872,2.872,0,1,1-3.494-1.114A2.617,2.617,0,0,1,347.624,201.2Z" transform="translate(140.511 254.758)" fill="#263238"/>
    <path id="Path_9346" data-name="Path 9346" d="M326.3,209.728l1.986,2.011L341.7,206l-5.3-1.829Z" transform="translate(133.603 256.634)" fill="#e58a7b"/>
    <path id="Path_9347" data-name="Path 9347" d="M372.817,390.826c.08-.034,2.041,5.485,2.041,5.485l-19.843,8.333-3.126-5.812Z" transform="translate(144.69 337.518)" opacity="0.2"/>
    <path id="Path_9348" data-name="Path 9348" d="M401.617,395.923c.085,0,.661,5.524.661,5.524H380.553L379,395.106Z" transform="translate(156.439 339.373)" opacity="0.2"/>
    <path id="Path_9349" data-name="Path 9349" d="M402.324,162.525c3.945,12.708-11.408,30.071-11.408,30.071l-21.282-8.686a218.321,218.321,0,0,1,8.7-21.6C384.825,148.244,398.344,149.7,402.324,162.525Z" transform="translate(152.38 234.166)" fill="#407bff"/>
    <path id="Path_9350" data-name="Path 9350" d="M402.324,162.525c3.945,12.708-11.408,30.071-11.408,30.071l-21.282-8.686a218.321,218.321,0,0,1,8.7-21.6C384.825,148.244,398.344,149.7,402.324,162.525Z" transform="translate(152.38 234.166)" opacity="0.2"/>
    <rect id="Rectangle_472" data-name="Rectangle 472" width="9.155" height="1.473" transform="translate(334.036 269.309)" fill="#407bff"/>
    <rect id="Rectangle_473" data-name="Rectangle 473" width="24.62" height="1.472" transform="translate(460.658 352.332) rotate(-87.421)" fill="#407bff"/>
    <path id="Path_9416" data-name="Path 9416" d="M12.562,0H157.978a13.218,13.218,0,0,1,13.306,13.128L157.028,345.07A13.218,13.218,0,0,1,143.722,358.2H-1.694A13.218,13.218,0,0,1-15,345.07L-.744,13.128A13.218,13.218,0,0,1,12.562,0Z" transform="translate(284.182 278.233)" fill="#407bff"/>
    <path id="Path_9417" data-name="Path 9417" d="M11.567,0H151.734a12.859,12.859,0,0,1,12.826,12.891L150.818,338.861a12.859,12.859,0,0,1-12.826,12.891H-2.174A12.859,12.859,0,0,1-15,338.861L-1.258,12.891A12.859,12.859,0,0,1,11.567,0Z" transform="translate(287.865 280.995)" fill="#bfd1f9"/>
    <rect id="Rectangle_476" data-name="Rectangle 476" width="76.428" height="13.812" rx="6.906" transform="translate(292.203 415.434)" fill="#407bff"/>
    <rect id="Rectangle_477" data-name="Rectangle 477" width="76.428" height="13.812" rx="6.906" transform="translate(287.599 498.308)" fill="#407bff"/>
    <path id="Path_9357" data-name="Path 9357" d="M314.184,284.036H217.106l-1.444,32.306H312.74Z" transform="translate(85.658 291.242)" fill="#407bff" opacity="0.47"/>
    <path id="Path_9358" data-name="Path 9358" d="M309.269,319.938H212.19a.178.178,0,0,1-.123-.054.167.167,0,0,1-.046-.125l1.445-32.306a.17.17,0,0,1,.169-.165h97.077a.172.172,0,0,1,.123.054.163.163,0,0,1,.047.125l-1.445,32.306A.171.171,0,0,1,309.269,319.938Zm-96.9-.343h96.736l1.429-31.965H213.8Z" transform="translate(84.08 292.652)" fill="#fff"/>
    <path id="Path_9360" data-name="Path 9360" d="M305.316,139.481a37.947,37.947,0,0,1-7.977,21.577A38.552,38.552,0,0,1,266.954,176.2a34.829,34.829,0,0,1-35.064-36.719,38.769,38.769,0,0,1,38.346-36.721A34.808,34.808,0,0,1,305.316,139.481Z" transform="translate(92.674 212.689)" fill="#fff"/>
    <path id="Path_9361" data-name="Path 9361" d="M291.417,111.073a10.087,10.087,0,0,1-2.119,5.733,10.246,10.246,0,0,1-8.074,4.023,9.255,9.255,0,0,1-9.318-9.757,10.3,10.3,0,0,1,10.19-9.757A9.249,9.249,0,0,1,291.417,111.073Z" transform="translate(110.026 212.063)" fill="#407bff"/>
    <g id="Group_3078" data-name="Group 3078" transform="translate(288.519 439.376)">
      <rect id="Rectangle_475" data-name="Rectangle 475" width="141.806" height="25.783" rx="12.891" fill="#fff"/>
      <path id="Path_9362" data-name="Path 9362" d="M217.878,199.815a4.56,4.56,0,0,1-4.512,4.319,4.1,4.1,0,0,1-4.127-4.319,4.561,4.561,0,0,1,4.512-4.319A4.093,4.093,0,0,1,217.878,199.815Z" transform="translate(-200.122 -186.501)" fill="#263238"/>
      <path id="Path_9363" data-name="Path 9363" d="M231.365,199.815a4.559,4.559,0,0,1-4.512,4.319,4.093,4.093,0,0,1-4.125-4.319,4.559,4.559,0,0,1,4.512-4.319A4.093,4.093,0,0,1,231.365,199.815Z" transform="translate(-194.277 -186.501)" fill="#263238"/>
      <path id="Path_9364" data-name="Path 9364" d="M244.853,199.815a4.561,4.561,0,0,1-4.512,4.319,4.093,4.093,0,0,1-4.127-4.319,4.56,4.56,0,0,1,4.512-4.319A4.1,4.1,0,0,1,244.853,199.815Z" transform="translate(-188.433 -186.501)" fill="#263238"/>
    </g>
    <g id="Group_3079" data-name="Group 3079" transform="translate(283.915 522.249)">
      <rect id="Rectangle_475-2" data-name="Rectangle 475" width="141.806" height="25.783" rx="12.891" transform="translate(0)" fill="#fff"/>
      <path id="Path_9362-2" data-name="Path 9362" d="M217.878,199.815a4.56,4.56,0,0,1-4.512,4.319,4.1,4.1,0,0,1-4.127-4.319,4.561,4.561,0,0,1,4.512-4.319A4.093,4.093,0,0,1,217.878,199.815Z" transform="translate(-200.122 -186.501)" fill="#263238"/>
      <path id="Path_9363-2" data-name="Path 9363" d="M231.365,199.815a4.559,4.559,0,0,1-4.512,4.319,4.093,4.093,0,0,1-4.125-4.319,4.559,4.559,0,0,1,4.512-4.319A4.093,4.093,0,0,1,231.365,199.815Z" transform="translate(-194.277 -186.501)" fill="#263238"/>
      <path id="Path_9364-2" data-name="Path 9364" d="M244.853,199.815a4.561,4.561,0,0,1-4.512,4.319,4.093,4.093,0,0,1-4.127-4.319,4.56,4.56,0,0,1,4.512-4.319A4.1,4.1,0,0,1,244.853,199.815Z" transform="translate(-188.433 -186.501)" fill="#263238"/>
    </g>
    <ellipse id="Ellipse_60" data-name="Ellipse 60" cx="15.187" cy="14.523" rx="15.187" ry="14.523" transform="matrix(0.715, -0.699, 0.699, 0.715, 340.813, 340.128)" fill="#407bff"/>
    <path id="Path_9370" data-name="Path 9370" d="M295.5,146.893a38.552,38.552,0,0,1-30.385,15.142A34.826,34.826,0,0,1,236.1,146.893c6.969-6.937,18-11.444,30.206-11.444S289.154,139.955,295.5,146.893Z" transform="translate(94.513 226.853)" fill="#407bff"/>
    <ellipse id="Ellipse_61" data-name="Ellipse 61" cx="15.187" cy="14.523" rx="15.187" ry="14.523" transform="matrix(0.715, -0.699, 0.699, 0.715, 340.813, 340.128)" fill="#fff" opacity="0.1"/>
    <path id="Path_9371" data-name="Path 9371" d="M295.5,146.893a38.552,38.552,0,0,1-30.385,15.142A34.826,34.826,0,0,1,236.1,146.893c6.969-6.937,18-11.444,30.206-11.444S289.154,139.955,295.5,146.893Z" transform="translate(94.513 226.853)" fill="#fff" opacity="0.1"/>
    <path id="Path_9372" data-name="Path 9372" d="M137.492,213.979c-1.357,2.977-2.785,6.252-4.041,9.447-1.264,3.225-2.526,6.454-3.625,9.727a122.927,122.927,0,0,0-5.123,19.78l-.327,2.111a3.219,3.219,0,0,0,.1,1.068,10.988,10.988,0,0,0,1.575,3.324,41.716,41.716,0,0,0,6.368,7.139,97.2,97.2,0,0,0,7.912,6.616c2.751,2.116,5.652,4.187,8.49,6.126l-2.67,5.031a101.679,101.679,0,0,1-19.323-11.021,46.179,46.179,0,0,1-8.657-8.138,20.353,20.353,0,0,1-3.427-6.125,13.712,13.712,0,0,1-.691-4.221c.009-.354.029-.851.053-1.089l.07-.712.143-1.423A111.543,111.543,0,0,1,119,229.634c1.118-3.537,2.312-7.039,3.674-10.476,1.389-3.459,2.762-6.778,4.5-10.26Z" transform="translate(41.629 258.682)" fill="#e58a7b"/>
    <path id="Path_9373" data-name="Path 9373" d="M137.723,258.986l10.128-5.139-2.617,11.133s-6.955,1.942-10.188-1.433Z" transform="translate(50.724 278.16)" fill="#e58a7b"/>
    <path id="Path_9374" data-name="Path 9374" d="M154.047,255.675l-2.695,9.2-9.2.1,2.616-11.132Z" transform="translate(53.804 278.16)" fill="#e58a7b"/>
    <path id="Path_9375" data-name="Path 9375" d="M160.432,175a28.59,28.59,0,0,0,2.272,5.667,2.323,2.323,0,0,1-2.272.728Z" transform="translate(61.724 243.993)" fill="#df5753"/>
    <ellipse id="Ellipse_62" data-name="Ellipse 62" cx="1.074" cy="1.642" rx="1.074" ry="1.642" transform="translate(220.783 415.794)" fill="#263238"/>
    <path id="Path_9376" data-name="Path 9376" d="M160.04,172.993l2.179-.628S161.1,174.066,160.04,172.993Z" transform="translate(61.554 242.851)" fill="#263238"/>
    <path id="Path_9377" data-name="Path 9377" d="M141.518,182.336c1.307,6.672,2.613,18.9-2.055,23.351,0,0,1.825,6.77,14.223,6.77,13.634,0,6.516-6.768,6.516-6.768-7.442-1.777-7.25-7.3-5.953-12.483Z" transform="translate(52.638 247.172)" fill="#e58a7b"/>
    <path id="Path_9378" data-name="Path 9378" d="M138.382,176.689c.684,11.14.735,15.869,6.361,21.586,8.462,8.6,21.995,5.323,24.653-5.795,2.392-10.009.871-26.544-10.032-30.977A15.221,15.221,0,0,0,138.382,176.689Z" transform="translate(52.156 237.634)" fill="#e58a7b"/>
    <path id="Path_9379" data-name="Path 9379" d="M142.7,163.105c-5.586,2.037-13.038.522-10.114,17.763,3.1,18.255-1.67,24.261-1.67,24.261s21.2,4.518,42.845-.27c0,0-6.608-11.557-4.754-19.988,2.365-10.754.492-14.729.492-14.729S150.556,160.241,142.7,163.105Z" transform="translate(48.935 238.613)" fill="#263238"/>
    <path id="Path_9380" data-name="Path 9380" d="M155.64,176.734a11.235,11.235,0,0,0,1.754,5.976c1.511,2.323,3.3,1.377,3.75-1.035.4-2.17.1-5.994-1.829-7.476C157.412,172.736,155.667,174.211,155.64,176.734Z" transform="translate(59.648 243.394)" fill="#e58a7b"/>
    <path id="Path_9381" data-name="Path 9381" d="M135.818,167.1c-1.613-4.508,6.047-11.441,22.24-8.558s16.9,16.353,16.9,16.353l-3.277-3.889.146,4.094-16.641,3.2Z" transform="translate(50.967 236.567)" fill="#263238"/>
    <g id="Group_3068" data-name="Group 3068" transform="translate(188.124 448.785)">
      <path id="Path_9382" data-name="Path 9382" d="M136.722,200.617h0a2.523,2.523,0,0,1,2.078-2.9c5.042-.833,16.5-2.52,22.273-1.72,4.286.593,5.418,3.1,5.6,5.143a2.528,2.528,0,0,1-2.643,2.728l-24.924-1.125A2.531,2.531,0,0,1,136.722,200.617Z" transform="translate(-136.689 -195.786)" fill="#407bff"/>
      <path id="Path_9383" data-name="Path 9383" d="M136.722,200.617h0a2.523,2.523,0,0,1,2.078-2.9c5.042-.833,16.5-2.52,22.273-1.72,4.286.593,5.418,3.1,5.6,5.143a2.528,2.528,0,0,1-2.643,2.728l-24.924-1.125A2.531,2.531,0,0,1,136.722,200.617Z" transform="translate(-136.689 -195.786)" opacity="0.6"/>
    </g>
    <path id="Path_9384" data-name="Path 9384" d="M146.76,380.2,156,386.612l15.468-20.963-9.237-6.413Z" transform="translate(55.8 323.83)" fill="#e58a7b"/>
    <path id="Path_9385" data-name="Path 9385" d="M131.715,380.27l9.772,5.564,13.691-22.171-9.772-5.565Z" transform="translate(49.28 323.336)" fill="#e58a7b"/>
    <g id="Group_3069" data-name="Group 3069" transform="translate(187.619 681.439)">
      <path id="Path_9386" data-name="Path 9386" d="M169.2,365.653l-7.971,10.807-9.241-6.416,7.971-10.807Z" transform="translate(-129.555 -357.609)" fill="#cf6f64"/>
      <path id="Path_9387" data-name="Path 9387" d="M143.4,358.1l9.776,5.567-7.062,11.426-9.776-5.567Z" transform="translate(-136.336 -358.101)" fill="#cf6f64"/>
    </g>
    <g id="Group_3070" data-name="Group 3070" transform="translate(174.251 523.609)">
      <path id="Path_9388" data-name="Path 9388" d="M163.113,247.988s36.091,45.487,29.32,88.985c-5.468,35.134-37.141,82.708-37.141,82.708l-14.894-7.4s16.181-31.617,26.806-65.132a48.145,48.145,0,0,0-5.773-41.706c-18.282-26.7-47.573-10.816-27.87-57.453Z" transform="translate(-127.01 -247.988)" fill="#407bff"/>
      <path id="Path_9389" data-name="Path 9389" d="M163.113,247.988s36.091,45.487,29.32,88.985c-5.468,35.134-37.141,82.708-37.141,82.708l-14.894-7.4s16.181-31.617,26.806-65.132a48.145,48.145,0,0,0-5.773-41.706c-18.282-26.7-47.573-10.816-27.87-57.453Z" transform="translate(-127.01 -247.988)" opacity="0.6"/>
    </g>
    <path id="Path_9390" data-name="Path 9390" d="M166.134,269.956l-5.243-5.213c0,.411,10.162,63.143,13.02,80.774a107.489,107.489,0,0,0,3.844-15.805C181.07,308.414,174.1,286.63,166.134,269.956Z" transform="translate(61.923 282.882)" opacity="0.4"/>
    <g id="Group_3071" data-name="Group 3071" transform="translate(184.197 523.609)">
      <path id="Path_9391" data-name="Path 9391" d="M176.225,247.988s43.457,57.162,44.68,91.44c1.023,28.723-47.337,84.2-47.337,84.2l-14.04-9.082s28.278-39.443,35.4-71.683c-2.715-31.913-60.977-94.877-60.977-94.877Z" transform="translate(-133.949 -247.988)" fill="#407bff"/>
      <path id="Path_9392" data-name="Path 9392" d="M176.225,247.988s43.457,57.162,44.68,91.44c1.023,28.723-47.337,84.2-47.337,84.2l-14.04-9.082s28.278-39.443,35.4-71.683c-2.715-31.913-60.977-94.877-60.977-94.877Z" transform="translate(-133.949 -247.988)" opacity="0.6"/>
    </g>
    <path id="Path_9393" data-name="Path 9393" d="M128.685,200.469c-4.655,1.1-9.1,17.993-9.1,17.993l18.149,12.116s6.049-13.353,3.937-19.2C139.471,205.284,134.561,199.083,128.685,200.469Z" transform="translate(44.023 254.944)" fill="#407bff"/>
    <path id="Path_9394" data-name="Path 9394" d="M128.794,207.994l-1.267,14.719,6.757,4.522a60.476,60.476,0,0,0,4.109-13.094Z" transform="translate(47.465 258.29)" opacity="0.2"/>
    <path id="Path_9395" data-name="Path 9395" d="M185.073,201.621s5.358,1.888-5.374,67.87H134.029c.767-18.588.788-30.049-8.1-68.2a134.892,134.892,0,0,1,19.393-2.556,145.393,145.393,0,0,1,20.739,0C174.972,199.554,185.073,201.621,185.073,201.621Z" transform="translate(46.775 254.118)" fill="#407bff"/>
    <path id="Path_9396" data-name="Path 9396" d="M173.734,209.348c1.035,2.86,2.13,5.951,3.269,8.923q1.638,4.521,3.4,9.019l3.515,9,.889,2.249.446,1.125.224.562c.039.1.032.093.017.082a3.149,3.149,0,0,0-1-.894,4,4,0,0,0-1.872-.546,3.7,3.7,0,0,0-1.594.288c-.646.31-.656.441-.642.42a1.858,1.858,0,0,0,.321-.325,20.5,20.5,0,0,0,2.048-3.34c.678-1.314,1.319-2.719,1.957-4.144,1.269-2.857,2.422-5.837,3.6-8.824s2.255-6.033,3.338-9.08l3.264-9.149,5.523,1.393c-1.094,6.543-2.505,12.952-4.19,19.383-.823,3.222-1.774,6.418-2.862,9.643-.542,1.615-1.15,3.226-1.845,4.869a29.932,29.932,0,0,1-2.725,5.184,12.733,12.733,0,0,1-1.25,1.547,7.992,7.992,0,0,1-2.612,1.845,6.47,6.47,0,0,1-2.782.52,6.393,6.393,0,0,1-3.026-.912,7.581,7.581,0,0,1-2.606-2.708c-.219-.363-.4-.74-.533-1.009l-.272-.556-.543-1.112-1.085-2.226c-1.415-2.983-2.8-5.981-4.118-9.013s-2.57-6.095-3.8-9.175c-1.178-3.126-2.342-6.155-3.377-9.48Z" transform="translate(62.752 256.87)" fill="#e58a7b"/>
    <path id="Path_9397" data-name="Path 9397" d="M171.237,200.767c5.49,1.309,11.657,17.527,11.657,17.527L166.58,232.2s-10.572-17.686-8.434-23.525C160.374,202.589,164.066,199.059,171.237,200.767Z" transform="translate(60.61 254.972)" fill="#407bff"/>
    <path id="Path_9398" data-name="Path 9398" d="M187.782,202.637l5.725-4.789,3.983,6.2-2.934,5.182s-4.673,4.277-8.811,2.1h0A7.436,7.436,0,0,1,187.782,202.637Z" transform="translate(72.421 253.893)" fill="#e58a7b"/>
    <path id="Path_9399" data-name="Path 9399" d="M201.364,197.863l-.429,1.56-9.071,1.524-.894-3.1Z" transform="translate(74.958 253.893)" fill="#e58a7b"/>
    <path id="Path_9400" data-name="Path 9400" d="M167.35,375.8l-16.366-10.588,2.93-5.1,18.395,11.307Z" transform="translate(57.63 324.208)" fill="#407bff"/>
    <path id="Path_9401" data-name="Path 9401" d="M144.249,377.725a9.813,9.813,0,0,1-4.052-1.4.264.264,0,0,1-.135-.259.267.267,0,0,1,.183-.228c.441-.139,4.324-1.329,5.425-.406a.907.907,0,0,1,.3.864,1.506,1.506,0,0,1-.808,1.241A2.025,2.025,0,0,1,144.249,377.725Zm-3.224-1.564c1.782.906,3.214,1.24,3.9.9a1,1,0,0,0,.52-.837.376.376,0,0,0-.122-.384C144.75,375.352,142.6,375.73,141.026,376.162Z" transform="translate(52.897 330.696)" fill="#263238"/>
    <path id="Path_9402" data-name="Path 9402" d="M140.328,377.313a.265.265,0,0,1-.257-.338c.037-.132.932-3.245,2.4-3.953a1.387,1.387,0,0,1,1.181-.036.927.927,0,0,1,.659.959c-.1,1.289-2.726,3.069-3.925,3.361A.3.3,0,0,1,140.328,377.313Zm2.778-3.909a.926.926,0,0,0-.4.1c-.877.423-1.614,2.1-1.965,3.125,1.261-.532,2.983-1.938,3.044-2.723.01-.128-.019-.294-.335-.426A.874.874,0,0,0,143.105,373.4Z" transform="translate(52.897 329.738)" fill="#263238"/>
    <path id="Path_9403" data-name="Path 9403" d="M158.831,382.4c-1.614,0-3.864-2.074-5.1-3.348a.269.269,0,0,1-.047-.305.289.289,0,0,1,.271-.146c.568.075,5.553.747,6.258,2.156a.862.862,0,0,1-.033.839,1.477,1.477,0,0,1-1.135.793A1.8,1.8,0,0,1,158.831,382.4Zm-4.152-3.156c1.812,1.76,3.4,2.735,4.3,2.614a.96.96,0,0,0,.738-.527.329.329,0,0,0,.019-.337C159.357,380.223,156.7,379.564,154.679,379.24Z" transform="translate(58.79 332.218)" fill="#263238"/>
    <path id="Path_9404" data-name="Path 9404" d="M154.836,379.954a5.419,5.419,0,0,1-.959-.072.267.267,0,0,1-.156-.431c.082-.1,2.021-2.437,3.853-2.6a1.937,1.937,0,0,1,1.475.464c.563.483.525.913.393,1.187C158.987,379.46,156.511,379.954,154.836,379.954Zm-.37-.538c1.6.089,4.161-.443,4.495-1.141.029-.059.113-.236-.258-.553a1.4,1.4,0,0,0-1.081-.338C156.419,377.49,155.076,378.766,154.467,379.417Z" transform="translate(58.79 331.46)" fill="#263238"/>
    <path id="Path_9405" data-name="Path 9405" d="M145.8,375.968l-12.156-3.437a.892.892,0,0,0-1.074.5l-4.1,9.226a1.807,1.807,0,0,0,1.191,2.415c4.26,1.125,6.373,1.453,11.718,2.964,3.29.93,8,2.63,12.54,3.914,4.442,1.256,6.053-3.139,4.277-4.081-7.965-4.221-8.593-7.115-10.772-10.322A2.933,2.933,0,0,0,145.8,375.968Z" transform="translate(47.814 329.575)" fill="#407bff"/>
    <path id="Path_9406" data-name="Path 9406" d="M159.652,379.972l-10.377-7.205a.889.889,0,0,0-1.175.12l-6.883,7.389a1.806,1.806,0,0,0,.341,2.67c3.661,2.45,5.551,3.449,10.115,6.616,2.808,1.949,8.412,6.274,12.289,8.966,3.793,2.632,6.745-1,5.372-2.467-6.158-6.583-7.516-10.708-8.533-14.449A2.94,2.94,0,0,0,159.652,379.972Z" transform="translate(53.205 329.62)" fill="#407bff"/>
    <path id="Path_9407" data-name="Path 9407" d="M153.732,372.779l-18.714-9.3,1.937-5.064,19.974,9.792Z" transform="translate(50.712 323.473)" fill="#407bff"/>
    <g id="Group_3072" data-name="Group 3072" transform="translate(178.499 520.587)">
      <path id="Path_9408" data-name="Path 9408" d="M131.594,246.222l-1.584,4.088c-.159.318.216.641.744.641h47.421c.411,0,.752-.2.778-.46l.411-4.088c.029-.284-.328-.523-.778-.523H132.338A.831.831,0,0,0,131.594,246.222Z" transform="translate(-129.973 -245.879)" fill="#407bff"/>
      <path id="Path_9409" data-name="Path 9409" d="M131.594,246.222l-1.584,4.088c-.159.318.216.641.744.641h47.421c.411,0,.752-.2.778-.46l.411-4.088c.029-.284-.328-.523-.778-.523H132.338A.831.831,0,0,0,131.594,246.222Z" transform="translate(-129.973 -245.879)" fill="#fff" opacity="0.4"/>
    </g>
    <g id="Group_3073" data-name="Group 3073" transform="translate(185.92 520.223)">
      <path id="Path_9410" data-name="Path 9410" d="M136.808,251.5h-1.238c-.247,0-.434-.126-.417-.282l.581-5.311c.017-.156.234-.284.48-.284h1.238c.247,0,.434.128.417.284l-.581,5.311C137.271,251.377,137.054,251.5,136.808,251.5Z" transform="translate(-135.151 -245.626)" fill="#407bff"/>
      <path id="Path_9411" data-name="Path 9411" d="M157.215,251.5h-1.238c-.247,0-.434-.126-.419-.282l.582-5.311c.017-.156.232-.284.479-.284h1.238c.247,0,.436.128.419.284l-.582,5.311C157.678,251.377,157.462,251.5,157.215,251.5Z" transform="translate(-126.308 -245.626)" fill="#407bff"/>
    </g>
    <g id="Group_3075" data-name="Group 3075" transform="translate(148.086 575.609)">
      <ellipse id="Ellipse_63" data-name="Ellipse 63" cx="38.401" cy="2.787" rx="38.401" ry="2.787" transform="translate(0 187.669)" fill="#f5f5f5" style="mix-blend-mode: multiply;isolation: isolate"/>
      <path id="Path_9412" data-name="Path 9412" d="M166.451,470.792c-6.794-1.972-14.272-4.514-18.9-7.217-.129-.075-.265-.129-.4-.2V432.664h13.665a4.091,4.091,0,1,0,0-8.182H147.157V284.267h-8.183V424.482H125.308a4.091,4.091,0,1,0,0,8.182h13.665v30.715c-.132.067-.267.122-.4.2-4.627,2.7-12.1,5.245-18.9,7.217a2.005,2.005,0,0,0,.562,3.93h45.648A2.005,2.005,0,0,0,166.451,470.792Z" transform="translate(-104.648 -284.267)" fill="#e0e0e0"/>
    </g>
    <g id="Group_3077" data-name="Group 3077" transform="translate(153.59 561.343)">
      <rect id="Rectangle_474" data-name="Rectangle 474" width="65.826" height="30.004" rx="5.18" fill="#407bff"/>
      <g id="Group_3076" data-name="Group 3076" transform="translate(6.956 30.005)">
        <path id="Path_9413" data-name="Path 9413" d="M117.448,295.247v2.609c0,2.15,2.339,3.909,5.2,3.909h41.514c2.859,0,5.2-1.759,5.2-3.909v-2.609Z" transform="translate(-117.448 -295.247)" fill="#407bff"/>
        <path id="Path_9414" data-name="Path 9414" d="M117.448,295.247v2.609c0,2.15,2.339,3.909,5.2,3.909h41.514c2.859,0,5.2-1.759,5.2-3.909v-2.609Z" transform="translate(-117.448 -295.247)" fill="#fff" opacity="0.3"/>
      </g>
    </g>
  </g>
</svg>
