<svg xmlns="http://www.w3.org/2000/svg" width="507.69" height="498.337" viewBox="0 0 507.69 498.337">
  <g id="Group_3278" data-name="Group 3278" transform="translate(-39.681 -34.054)">
    <g id="Background_Complete" data-name="Background Complete" transform="translate(39.681 34.054)">
      <g id="Group_3127" data-name="Group 3127">
        <g id="Group_3093" data-name="Group 3093" transform="translate(312.957 222.589)">
          <g id="Group_3087" data-name="Group 3087">
            <g id="Group_3081" data-name="Group 3081">
              <path id="Path_9418" data-name="Path 9418" d="M497.759,334.071H303.026V221.357H497.759Zm-193.545-1.188H496.571V222.545H304.214Z" transform="translate(-303.026 -221.357)" fill="#e0e0e0"/>
            </g>
            <g id="Group_3082" data-name="Group 3082" transform="translate(26.059 60.098)">
              <rect id="Rectangle_478" data-name="Rectangle 478" width="128.506" height="3.769" fill="#f0f0f0"/>
            </g>
            <g id="Group_3083" data-name="Group 3083" transform="translate(26.059 74.148)">
              <rect id="Rectangle_479" data-name="Rectangle 479" width="137.357" height="4.113" fill="#f0f0f0"/>
            </g>
            <g id="Group_3084" data-name="Group 3084" transform="translate(26.059 88.36)">
              <rect id="Rectangle_480" data-name="Rectangle 480" width="137.357" height="4.113" fill="#f0f0f0"/>
            </g>
            <g id="Group_3085" data-name="Group 3085" transform="translate(26.059 39.695)">
              <rect id="Rectangle_481" data-name="Rectangle 481" width="44.912" height="9.78" fill="#f0f0f0"/>
            </g>
            <g id="Group_3086" data-name="Group 3086" transform="translate(0.594 0.595)">
              <rect id="Rectangle_482" data-name="Rectangle 482" width="193.545" height="17.943" fill="#e0e0e0"/>
            </g>
          </g>
          <g id="Group_3092" data-name="Group 3092" transform="translate(179.229 3.262)">
            <g id="Group_3089" data-name="Group 3089">
              <g id="Group_3088" data-name="Group 3088">
                <path id="Path_9419" data-name="Path 9419" d="M453.86,236.7c-.247-.236,2.247-3.244,5.569-6.718s6.219-6.1,6.466-5.862-2.247,3.243-5.571,6.718S454.107,236.933,453.86,236.7Z" transform="translate(-453.843 -224.102)" fill="#fff"/>
              </g>
            </g>
            <g id="Group_3091" data-name="Group 3091">
              <g id="Group_3090" data-name="Group 3090">
                <path id="Path_9420" data-name="Path 9420" d="M465.895,236.7c-.247.237-3.142-2.389-6.465-5.862s-5.817-6.481-5.57-6.718,3.14,2.387,6.464,5.862S466.142,236.46,465.895,236.7Z" transform="translate(-453.843 -224.102)" fill="#fff"/>
              </g>
            </g>
          </g>
        </g>
        <g id="Group_3106" data-name="Group 3106" transform="translate(74.491)">
          <g id="Group_3100" data-name="Group 3100" transform="translate(0)">
            <g id="Group_3094" data-name="Group 3094">
              <rect id="Rectangle_483" data-name="Rectangle 483" width="193.546" height="111.525" fill="#fff"/>
            </g>
            <g id="Group_3095" data-name="Group 3095" transform="translate(25.465 59.504)">
              <rect id="Rectangle_484" data-name="Rectangle 484" width="128.506" height="3.769" fill="#f0f0f0"/>
            </g>
            <g id="Group_3096" data-name="Group 3096" transform="translate(25.465 73.553)">
              <rect id="Rectangle_485" data-name="Rectangle 485" width="137.357" height="4.112" transform="translate(0 0)" fill="#f0f0f0"/>
            </g>
            <g id="Group_3097" data-name="Group 3097" transform="translate(25.465 87.765)">
              <rect id="Rectangle_486" data-name="Rectangle 486" width="137.357" height="4.112" fill="#f0f0f0"/>
            </g>
            <g id="Group_3098" data-name="Group 3098" transform="translate(25.465 39.1)">
              <rect id="Rectangle_487" data-name="Rectangle 487" width="44.911" height="9.78" fill="#f0f0f0"/>
            </g>
            <g id="Group_3099" data-name="Group 3099">
              <rect id="Rectangle_488" data-name="Rectangle 488" width="193.546" height="17.943" fill="#e0e0e0"/>
            </g>
          </g>
          <g id="Group_3105" data-name="Group 3105" transform="translate(177.972 2.581)">
            <g id="Group_3102" data-name="Group 3102" transform="translate(0)">
              <g id="Group_3101" data-name="Group 3101">
                <path id="Path_9421" data-name="Path 9421" d="M252.139,48.822c-.247-.236,2.247-3.244,5.57-6.718s6.218-6.1,6.465-5.864-2.246,3.244-5.57,6.719S252.386,49.058,252.139,48.822Z" transform="translate(-252.122 -36.226)" fill="#fff"/>
              </g>
            </g>
            <g id="Group_3104" data-name="Group 3104">
              <g id="Group_3103" data-name="Group 3103">
                <path id="Path_9422" data-name="Path 9422" d="M264.174,48.822c-.247.236-3.141-2.39-6.464-5.862s-5.818-6.483-5.571-6.719,3.141,2.389,6.465,5.864S264.421,48.585,264.174,48.822Z" transform="translate(-252.122 -36.226)" fill="#fff"/>
              </g>
            </g>
          </g>
        </g>
        <g id="Group_3113" data-name="Group 3113" transform="translate(0 94.465)">
          <g id="Group_3107" data-name="Group 3107">
            <path id="Path_9423" data-name="Path 9423" d="M234.414,226.258H39.681V113.544H234.414ZM40.869,225.07H233.226V114.732H40.869Z" transform="translate(-39.681 -113.544)" fill="#e0e0e0"/>
          </g>
          <g id="Group_3108" data-name="Group 3108" transform="translate(26.058 60.098)">
            <rect id="Rectangle_489" data-name="Rectangle 489" width="128.506" height="3.769" fill="#f0f0f0"/>
          </g>
          <g id="Group_3109" data-name="Group 3109" transform="translate(26.058 74.148)">
            <rect id="Rectangle_490" data-name="Rectangle 490" width="137.357" height="4.112" fill="#f0f0f0"/>
          </g>
          <g id="Group_3110" data-name="Group 3110" transform="translate(26.058 88.36)">
            <rect id="Rectangle_491" data-name="Rectangle 491" width="137.357" height="4.112" fill="#f0f0f0"/>
          </g>
          <g id="Group_3111" data-name="Group 3111" transform="translate(26.058 39.695)">
            <rect id="Rectangle_492" data-name="Rectangle 492" width="44.912" height="9.78" fill="#f0f0f0"/>
          </g>
          <g id="Group_3112" data-name="Group 3112" transform="translate(0.594 0.595)">
            <rect id="Rectangle_493" data-name="Rectangle 493" width="193.545" height="17.943" fill="#e0e0e0"/>
          </g>
        </g>
        <g id="Group_3114" data-name="Group 3114" transform="translate(190.94 233.008)">
          <path id="Path_9510" data-name="Path 9510" d="M0,0H228.532V204.589H0Z" fill="#fff"/>
        </g>
        <g id="Group_3120" data-name="Group 3120" transform="translate(23.411 168.559)">
          <g id="Group_3115" data-name="Group 3115">
            <path id="Path_9508" data-name="Path 9508" d="M0,0H179.017V185.994H0Z" fill="#fff"/>
          </g>
          <g id="Group_3116" data-name="Group 3116">
            <path id="Path_9507" data-name="Path 9507" d="M0,0H179.017V20.265H0Z" fill="#e0e0e0"/>
          </g>
          <g id="Group_3117" data-name="Group 3117" transform="translate(7.266 5.997)">
            <path id="Path_9424" data-name="Path 9424" d="M73.013,184.867a3.763,3.763,0,1,1-3.759-3.929A3.846,3.846,0,0,1,73.013,184.867Z" transform="translate(-65.495 -180.938)" fill="#fff"/>
          </g>
          <g id="Group_3118" data-name="Group 3118" transform="translate(22.512 5.997)">
            <path id="Path_9425" data-name="Path 9425" d="M85.841,184.867a3.762,3.762,0,1,1-3.758-3.929A3.846,3.846,0,0,1,85.841,184.867Z" transform="translate(-78.324 -180.938)" fill="#fff"/>
          </g>
          <g id="Group_3119" data-name="Group 3119" transform="translate(37.758 5.997)">
            <path id="Path_9426" data-name="Path 9426" d="M98.67,184.867a3.762,3.762,0,1,1-3.759-3.929A3.846,3.846,0,0,1,98.67,184.867Z" transform="translate(-91.153 -180.938)" fill="#fff"/>
          </g>
        </g>
        <g id="Group_3126" data-name="Group 3126" transform="translate(253.602 40.679)">
          <g id="Group_3121" data-name="Group 3121">
            <path id="Path_9509" data-name="Path 9509" d="M0,0H228.532V227.768H0Z" fill="#fff"/>
          </g>
          <g id="Group_3122" data-name="Group 3122">
            <rect id="Rectangle_498" data-name="Rectangle 498" width="228.532" height="26.679" fill="#e0e0e0"/>
          </g>
          <g id="Group_3123" data-name="Group 3123" transform="translate(9.566 7.894)">
            <path id="Path_9427" data-name="Path 9427" d="M271.027,80.1a4.953,4.953,0,1,1-4.95-5.172A5.065,5.065,0,0,1,271.027,80.1Z" transform="translate(-261.13 -74.927)" fill="#fff"/>
          </g>
          <g id="Group_3124" data-name="Group 3124" transform="translate(29.524 8.005)">
            <path id="Path_9428" data-name="Path 9428" d="M286.484,76.584a4.953,4.953,0,1,1-7.156-.159A5.063,5.063,0,0,1,286.484,76.584Z" transform="translate(-277.924 -75.021)" fill="#fff"/>
          </g>
          <g id="Group_3125" data-name="Group 3125" transform="translate(49.708 7.894)">
            <path id="Path_9429" data-name="Path 9429" d="M304.8,80.1a4.953,4.953,0,1,1-4.948-5.172A5.064,5.064,0,0,1,304.8,80.1Z" transform="translate(-294.909 -74.927)" fill="#fff"/>
          </g>
        </g>
      </g>
    </g>
    <g id="Floor" transform="translate(103.846 531.772)">
      <g id="Group_3128" data-name="Group 3128">
        <path id="Path_9430" data-name="Path 9430" d="M462.275,453.18c0,.171-82.521.31-184.291.31-101.807,0-184.31-.139-184.31-.31s82.5-.309,184.31-.309C379.754,452.871,462.275,453.01,462.275,453.18Z" transform="translate(-93.674 -452.871)" fill="#263238"/>
      </g>
    </g>
    <g id="Plant" transform="translate(370.162 259.95)">
      <g id="Group_3146" data-name="Group 3146">
        <g id="Group_3130" data-name="Group 3130">
          <g id="Group_3129" data-name="Group 3129">
            <path id="Path_9431" data-name="Path 9431" d="M339.647,350.789c-18.358-12.826-22.524-36.633-21.8-58.034.121-3.571-.271-7.337,1.428-10.472s5.664-5.276,8.863-3.771c2.652,1.249,3.809,4.335,5.293,6.887a20.888,20.888,0,0,0,8.377,8c2.276,1.181,5.09,1.9,7.335.664,3.082-1.7,3.445-5.957,3.423-9.511q-.062-9.933-.124-19.865c-.023-3.552-.033-7.18,1.072-10.552s3.546-6.5,6.926-7.451,7.561,1,8.274,4.479a32.839,32.839,0,0,1,.1,4.424c.1,1.475.786,3.106,2.187,3.518,1.418.417,2.84-.591,3.9-1.63,3.667-3.588,6.156-8.208,8.482-12.8s4.582-9.3,7.91-13.213,7.93-7.013,13.018-7.3,10.51,2.852,11.8,7.847S414.477,242.1,411.3,246.15a79.334,79.334,0,0,1-16.512,15.74,6.525,6.525,0,0,0-2.763,2.97c-.771,2.368,1.474,4.72,3.811,5.5,2.649.882,5.522.607,8.293.933s5.771,1.548,6.819,4.167c1.456,3.631-1.582,7.437-4.569,9.93A67.969,67.969,0,0,1,386.27,297c-2.614.955-5.364,1.794-7.471,3.631s-3.38,5.03-2.107,7.532,4.542,3.307,7.28,2.8,5.187-1.994,7.8-2.978c4.882-1.843,11.188-1.507,14.314,2.713,2.056,2.774,2.237,6.636,1.2,9.942a25.905,25.905,0,0,1-5.386,8.781,68.316,68.316,0,0,1-29.17,20.5c-11.325,3.928-21.82,4.99-33.077.873" transform="translate(-317.772 -224.14)" fill="#407bff"/>
          </g>
        </g>
        <g id="Group_3133" data-name="Group 3133" transform="translate(21.072 2.992)">
          <g id="Group_3132" data-name="Group 3132">
            <g id="Group_3131" data-name="Group 3131">
              <path id="Path_9432" data-name="Path 9432" d="M407.637,226.658a2.688,2.688,0,0,1-.345.337l-1.055.94c-.931.822-2.3,2.037-4.027,3.647a133.424,133.424,0,0,0-13.57,14.647c-2.643,3.293-5.391,7.021-8.268,11.077s-5.909,8.423-8.932,13.127a160.685,160.685,0,0,0-8.766,15.184c-1.37,2.715-2.591,5.558-3.837,8.455s-2.5,5.836-3.77,8.811a326.341,326.341,0,0,0-12.661,34.19,158.632,158.632,0,0,0-5.921,29.152,116.244,116.244,0,0,0-.334,20.067c.187,2.365.367,4.2.535,5.439.068.594.122,1.061.163,1.412a2.914,2.914,0,0,1,.036.487,2.489,2.489,0,0,1-.1-.477c-.056-.348-.133-.813-.229-1.4-.209-1.235-.431-3.068-.657-5.438a111.164,111.164,0,0,1,.128-20.133,155.954,155.954,0,0,1,5.805-29.282,318.174,318.174,0,0,1,12.636-34.274q1.913-4.464,3.774-8.814c1.245-2.89,2.48-5.757,3.861-8.485a158.842,158.842,0,0,1,8.835-15.226c3.043-4.707,6.1-9.063,8.995-13.114s5.677-7.768,8.351-11.052a125.959,125.959,0,0,1,13.758-14.541c1.752-1.584,3.152-2.768,4.112-3.558l1.1-.891A2.523,2.523,0,0,1,407.637,226.658Z" transform="translate(-335.504 -226.657)" fill="#263238"/>
            </g>
          </g>
        </g>
        <g id="Group_3136" data-name="Group 3136" transform="translate(42.658 22.546)">
          <g id="Group_3135" data-name="Group 3135">
            <g id="Group_3134" data-name="Group 3134">
              <path id="Path_9433" data-name="Path 9433" d="M358.867,282.2a7.272,7.272,0,0,1-.347-1.515c-.187-.982-.409-2.41-.658-4.18-.5-3.538-1.029-8.447-1.59-13.861s-1.156-10.3-1.711-13.823c-.272-1.761-.506-3.185-.682-4.165a7.184,7.184,0,0,1-.2-1.543,7.075,7.075,0,0,1,.447,1.489c.252.967.557,2.382.888,4.138.675,3.513,1.345,8.411,1.906,13.834.54,5.344,1.027,10.179,1.4,13.873.178,1.667.33,3.073.452,4.2A6.991,6.991,0,0,1,358.867,282.2Z" transform="translate(-353.668 -243.112)" fill="#263238"/>
            </g>
          </g>
        </g>
        <g id="Group_3139" data-name="Group 3139" transform="translate(47.858 53.051)">
          <g id="Group_3138" data-name="Group 3138">
            <g id="Group_3137" data-name="Group 3137">
              <path id="Path_9434" data-name="Path 9434" d="M403.722,268.827a9.933,9.933,0,0,1-1.822.217c-1.173.1-2.869.247-4.959.49-4.184.45-9.941,1.277-16.254,2.467s-11.978,2.531-16.048,3.612c-2.04.525-3.678,1-4.814,1.313a9.609,9.609,0,0,1-1.783.437,9.818,9.818,0,0,1,1.708-.683c1.113-.393,2.738-.933,4.768-1.519,4.05-1.2,9.719-2.606,16.05-3.811a161.053,161.053,0,0,1,16.329-2.282c2.1-.183,3.81-.256,4.99-.279A9.649,9.649,0,0,1,403.722,268.827Z" transform="translate(-358.043 -268.78)" fill="#263238"/>
            </g>
          </g>
        </g>
        <g id="Group_3142" data-name="Group 3142" transform="translate(4.959 54.053)">
          <g id="Group_3141" data-name="Group 3141">
            <g id="Group_3140" data-name="Group 3140">
              <path id="Path_9435" data-name="Path 9435" d="M344.946,327.965a2.358,2.358,0,0,1-.313-.556l-.782-1.653c-.671-1.438-1.59-3.545-2.689-6.162-2.2-5.232-5.021-12.557-8.019-20.68s-5.746-15.468-7.837-20.739c-1.024-2.562-1.868-4.67-2.5-6.237-.267-.68-.488-1.241-.669-1.7a2.316,2.316,0,0,1-.193-.612,2.492,2.492,0,0,1,.313.559l.782,1.652c.671,1.438,1.59,3.544,2.689,6.162,2.2,5.232,5.021,12.557,8.02,20.684s5.745,15.465,7.836,20.736c1.026,2.561,1.868,4.67,2.5,6.235l.669,1.7A2.346,2.346,0,0,1,344.946,327.965Z" transform="translate(-321.945 -269.624)" fill="#263238"/>
            </g>
          </g>
        </g>
        <g id="Group_3145" data-name="Group 3145" transform="translate(27.96 92.825)">
          <g id="Group_3144" data-name="Group 3144">
            <g id="Group_3143" data-name="Group 3143">
              <path id="Path_9436" data-name="Path 9436" d="M402,302.255a2.392,2.392,0,0,1-.6.248l-1.764.592-6.5,2.106c-5.488,1.78-13.039,4.326-21.38,7.149s-15.926,5.3-21.453,6.97c-2.763.834-5,1.487-6.563,1.9-.72.189-1.314.345-1.8.473a2.328,2.328,0,0,1-.639.12,2.5,2.5,0,0,1,.6-.25c.474-.157,1.057-.353,1.764-.589l6.5-2.106c5.488-1.779,13.041-4.326,21.384-7.151s15.923-5.3,21.449-6.969c2.763-.834,5.006-1.487,6.566-1.906.72-.189,1.313-.346,1.8-.472A2.44,2.44,0,0,1,402,302.255Z" transform="translate(-341.3 -302.249)" fill="#263238"/>
            </g>
          </g>
        </g>
      </g>
    </g>
    <g id="Padlock" transform="translate(364.413 39.577)">
      <g id="Group_3156" data-name="Group 3156">
        <g id="Group_3148" data-name="Group 3148">
          <g id="Group_3147" data-name="Group 3147">
            <path id="Path_9437" data-name="Path 9437" d="M382.582,63.631l-6.125,2.19-2.618-8c-4.828-14.749-20.243-22.641-34.341-17.6s-21.648,21.15-16.819,35.9l2.618,8-6.144,2.2a9.771,9.771,0,0,0-5.727,12.215l17.037,52.041a9.179,9.179,0,0,0,11.714,6.073l63.429-22.69a9.821,9.821,0,0,0,5.78-12.331L394.349,69.587A9.168,9.168,0,0,0,382.582,63.631ZM334.237,71.99c-2.647-8.083,1.484-16.911,9.218-19.676a14.693,14.693,0,0,1,18.816,9.649l2.618,8L336.855,79.988ZM369.9,118.163l4.351,13.29a1.068,1.068,0,0,1-.681,1.331l-6.088,2.177a.986.986,0,0,1-1.244-.642l-4.352-13.29a11.88,11.88,0,0,1-10.728-8.323,12.492,12.492,0,0,1,7.357-15.663,11.7,11.7,0,0,1,14.989,7.67A12.7,12.7,0,0,1,369.9,118.163Z" transform="translate(-312.934 -38.702)" fill="#407bff"/>
          </g>
        </g>
        <g id="Group_3149" data-name="Group 3149" transform="translate(12.091 26.971)">
          <path id="Path_9438" data-name="Path 9438" d="M374.274,61.4c.057.162-11.349,4.432-25.477,9.538s-25.63,9.117-25.688,8.956,11.347-4.43,25.478-9.538S374.216,61.241,374.274,61.4Z" transform="translate(-323.109 -61.397)" fill="#263238"/>
        </g>
        <g id="Group_3151" data-name="Group 3151" transform="translate(29.807 29.166)">
          <g id="Group_3150" data-name="Group 3150">
            <path id="Path_9439" data-name="Path 9439" d="M384.935,63.244a1.45,1.45,0,0,1,.137.311c.09.242.2.549.346.932l1.269,3.6c1.092,3.181,2.647,7.708,4.56,13.284,1.909,5.629,4.174,12.311,6.687,19.727,1.242,3.723,2.6,7.591,3.9,11.677a17.491,17.491,0,0,1,.891,6.522,8.679,8.679,0,0,1-.961,3.288,8.989,8.989,0,0,1-2.246,2.648,21.166,21.166,0,0,1-6.031,3.079l-6.126,2.2-11.583,4.145-19.625,6.988L342.9,146.309l-3.612,1.237-.945.307a1.3,1.3,0,0,1-.329.084,1.459,1.459,0,0,1,.308-.144l.923-.365,3.573-1.346L356,141.237l19.579-7.113,11.571-4.18q3.009-1.087,6.119-2.208a20.624,20.624,0,0,0,5.854-2.983,8.4,8.4,0,0,0,2.093-2.46,8.111,8.111,0,0,0,.892-3.054,16.983,16.983,0,0,0-.86-6.291c-1.28-4.045-2.636-7.949-3.859-11.668-2.466-7.431-4.688-14.128-6.562-19.769-1.834-5.6-3.325-10.15-4.372-13.347-.493-1.546-.881-2.763-1.16-3.639-.118-.39-.213-.7-.286-.951A1.317,1.317,0,0,1,384.935,63.244Z" transform="translate(-338.016 -63.244)" fill="#263238"/>
          </g>
        </g>
        <g id="Group_3153" data-name="Group 3153" transform="translate(17.998 10.479)">
          <g id="Group_3152" data-name="Group 3152">
            <path id="Path_9440" data-name="Path 9440" d="M353.348,49.818c-.031.052-.631-.32-1.8-.79a15.914,15.914,0,0,0-5.189-1.04,17.655,17.655,0,0,0-7.654,1.446,17.086,17.086,0,0,0-7.263,6.07,16.029,16.029,0,0,0-2.793,9.023,27.738,27.738,0,0,0,1.21,7.777c.626,2.17,1.267,3.891,1.689,5.087a12.8,12.8,0,0,1,.614,1.876,11.38,11.38,0,0,1-.84-1.79c-.491-1.171-1.2-2.872-1.882-5.049a26.872,26.872,0,0,1-1.361-7.905,16.387,16.387,0,0,1,2.85-9.368,17.4,17.4,0,0,1,7.551-6.246,17.636,17.636,0,0,1,7.9-1.36,14.873,14.873,0,0,1,5.261,1.256,10.552,10.552,0,0,1,1.292.706C353.218,49.7,353.36,49.8,353.348,49.818Z" transform="translate(-328.079 -47.519)" fill="#263238"/>
          </g>
        </g>
        <g id="Group_3155" data-name="Group 3155" transform="translate(36.761 57.793)">
          <g id="Group_3154" data-name="Group 3154">
            <path id="Path_9441" data-name="Path 9441" d="M350.913,88.82a3.427,3.427,0,0,1,.6-.3,12.686,12.686,0,0,1,1.834-.661,13.009,13.009,0,0,1,3.089-.512,10.424,10.424,0,0,1,4.169.622c3.035,1.067,5.835,4.171,7.209,8.283a11.937,11.937,0,0,1,.055,6.824,15.464,15.464,0,0,1-3.886,6.424l.078-.315c1.578,4.33,3.3,9.045,5.086,13.949l.108.3-.3.1-2.717.91-5.913,1.981-.292.1-.1-.292c-1.628-4.928-3.412-9.572-4.707-14.014l.257.2a11.866,11.866,0,0,1-6.36-2.515,14.308,14.308,0,0,1-3.991-4.768,11.022,11.022,0,0,1-1.26-5.353,12.665,12.665,0,0,1,1-4.592,12.5,12.5,0,0,1,3.985-5.225,7.56,7.56,0,0,1,2.055-1.147,22.006,22.006,0,0,0-1.943,1.292,12.685,12.685,0,0,0-3.778,5.21,11.262,11.262,0,0,0,.367,9.6,13.9,13.9,0,0,0,3.887,4.567,11.374,11.374,0,0,0,6.071,2.366l.2.012.056.19c1.311,4.409,3.1,9.035,4.746,13.983l-.39-.195,5.912-1.983,2.717-.91-.193.4c-1.777-4.909-3.486-9.627-5.053-13.962l-.064-.175.141-.14a14.978,14.978,0,0,0,3.755-6.148,11.456,11.456,0,0,0,0-6.523c-1.3-3.993-3.969-7.028-6.867-8.093a10.3,10.3,0,0,0-4.031-.679,13.516,13.516,0,0,0-3.048.42C351.765,88.466,350.934,88.871,350.913,88.82Z" transform="translate(-343.868 -87.333)" fill="#263238"/>
          </g>
        </g>
      </g>
    </g>
    <g id="Device" transform="translate(227.058 92.147)">
      <g id="Group_3200" data-name="Group 3200" transform="translate(0 0)">
        <g id="Group_3163" data-name="Group 3163">
          <g id="Group_3157" data-name="Group 3157">
            <path id="Path_9442" data-name="Path 9442" d="M341.788,432.777l-118.7-.549a25.855,25.855,0,0,1-25.736-25.965l1.257-297.577a25.857,25.857,0,0,1,25.976-25.748l118.7.548a25.856,25.856,0,0,1,25.736,25.966L367.763,407.03A25.856,25.856,0,0,1,341.788,432.777Z" transform="translate(-197.354 -82.938)" fill="#455a64"/>
          </g>
          <g id="Group_3158" data-name="Group 3158" transform="translate(7.881 10.271)">
            <path id="Path_9443" data-name="Path 9443" d="M341.866,92.129l-23.013-.107a5.717,5.717,0,0,0-5.613,5.816l-.018,4.175a5.716,5.716,0,0,1-5.613,5.816l-44.858-.207a5.723,5.723,0,0,1-5.564-5.868l.019-4.175a5.723,5.723,0,0,0-5.565-5.867l-8.093-.038-20.142-.093a18.108,18.108,0,0,0-18.192,18.031l-1.228,290.458a18.107,18.107,0,0,0,18.024,18.185l118.46.547a18.109,18.109,0,0,0,18.192-18.031l1.228-290.458A18.108,18.108,0,0,0,341.866,92.129Z" transform="translate(-203.986 -91.581)" fill="#fff"/>
          </g>
          <g id="Group_3162" data-name="Group 3162" transform="translate(40.089 270.875)">
            <g id="Group_3161" data-name="Group 3161">
              <g id="Group_3160" data-name="Group 3160">
                <g id="Group_3159" data-name="Group 3159">
                  <path id="Path_9444" data-name="Path 9444" d="M320.817,338.743l-88.088-.406c-.911,0-1.647-1-1.641-2.218l.1-23.045c0-1.22.749-2.206,1.66-2.2l88.088.406c.911,0,1.648,1,1.642,2.219l-.1,23.043C322.474,337.762,321.73,338.748,320.817,338.743Z" transform="translate(-231.088 -310.872)" fill="#407bff"/>
                </g>
                <text id="Create_Account_" data-name="Create Account " transform="matrix(1, 0.005, -0.004, 1, 11.552, 16.269)" fill="#fff" font-size="9" font-family="Montserrat-Regular, Montserrat"><tspan x="0" y="0">Create Account </tspan></text>
              </g>
            </g>
          </g>
        </g>
        <g id="Group_3199" data-name="Group 3199" transform="translate(27.832 45.26)">
          <g id="Group_3164" data-name="Group 3164" transform="translate(0.861 50.778)">
            <rect id="Rectangle_499" data-name="Rectangle 499" width="30.561" height="5.607" transform="translate(0.026 0) rotate(0.264)" fill="#407bff"/>
            <rect id="Rectangle_500" data-name="Rectangle 500" width="30.561" height="5.607" transform="translate(0.026 0) rotate(0.264)" fill="#407bff" opacity="0.1"/>
          </g>
          <g id="Group_3166" data-name="Group 3166" transform="translate(0.443 64.496)">
            <g id="Group_3165" data-name="Group 3165">
              <path id="Path_9445" data-name="Path 9445" d="M341.778,196.129a2.731,2.731,0,0,0,.7-.163,1.881,1.881,0,0,0,1.15-1.6c0-1.9-.008-4.65-.015-8.187q0-2.672,0-5.921,0-.813,0-1.658a2.285,2.285,0,0,0-.333-1.557,1.754,1.754,0,0,0-1.406-.725l-1.862,0-17.165-.033-99.4-.368a1.611,1.611,0,0,0-1.31.662,2.3,2.3,0,0,0-.309,1.553q-.007,1.809-.015,3.607-.016,3.594-.031,7.14-.009,1.774-.017,3.532a10.59,10.59,0,0,0,.049,1.672,1.616,1.616,0,0,0,.928,1.071,1.8,1.8,0,0,0,.736.126l.87,0,1.734.008,3.448.017,26.392.14c16.815.1,31.958.2,44.686.272l30.126.239,8.189.1c.921.018,1.628.032,2.13.04.481.013.727.036.727.036s-.246.02-.727.029l-2.13.02-8.19.02-30.127-.04-44.687-.14-26.391-.1-3.448-.015-1.735-.007-.87,0a2.4,2.4,0,0,1-.969-.173,2.222,2.222,0,0,1-1.285-1.48,3.5,3.5,0,0,1-.074-.95l0-.879q.007-1.759.015-3.532.012-3.546.029-7.14.007-1.8.014-3.607a8.329,8.329,0,0,1,.031-.95,2.173,2.173,0,0,1,.4-.965,2.231,2.231,0,0,1,1.812-.917l99.4.55,17.166.125,1.862.015a2.076,2.076,0,0,1,1.663.871,2.584,2.584,0,0,1,.381,1.746c0,.563-.008,1.117-.013,1.658-.02,2.162-.037,4.139-.052,5.919-.044,3.541-.078,6.3-.1,8.2a1.939,1.939,0,0,1-1.254,1.648A1.414,1.414,0,0,1,341.778,196.129Z" transform="translate(-221.146 -175.295)" fill="#e0e0e0"/>
            </g>
          </g>
          <g id="Group_3167" data-name="Group 3167" transform="translate(9.063 72.348)">
            <rect id="Rectangle_501" data-name="Rectangle 501" width="55.906" height="5.242" transform="translate(0.024) rotate(0.265)" fill="#407bff"/>
            <rect id="Rectangle_502" data-name="Rectangle 502" width="55.906" height="5.242" transform="translate(0.024) rotate(0.265)" fill="#407bff" opacity="0.2"/>
          </g>
          <g id="Group_3168" data-name="Group 3168" transform="translate(0.644 101.954)">
            <rect id="Rectangle_503" data-name="Rectangle 503" width="30.561" height="5.608" transform="translate(0.026 0) rotate(0.264)" fill="#407bff"/>
            <rect id="Rectangle_504" data-name="Rectangle 504" width="30.561" height="5.608" transform="translate(0.026 0) rotate(0.264)" fill="#407bff" opacity="0.1"/>
          </g>
          <g id="Group_3170" data-name="Group 3170" transform="translate(0.226 115.675)">
            <g id="Group_3169" data-name="Group 3169">
              <path id="Path_9446" data-name="Path 9446" d="M341.028,239.189a4.754,4.754,0,0,0,.7-.133,2.463,2.463,0,0,0,1.506-1.346,3.231,3.231,0,0,0,.206-1.507q0-.865-.007-1.887c0-1.369-.006-2.942-.009-4.712s0-3.745,0-5.9v-1.652a2.574,2.574,0,0,0-.347-1.569,2.328,2.328,0,0,0-1.292-1,7.3,7.3,0,0,0-1.794-.1l-17.108-.033-99.052-.367a2.185,2.185,0,0,0-2.169,1.913c-.036,1.13-.019,2.379-.031,3.558q-.016,3.581-.032,7.115-.005,1.767-.015,3.52a7.49,7.49,0,0,0,.075,1.659,2.2,2.2,0,0,0,.868,1.218,2.357,2.357,0,0,0,1.478.38l1.729.009,3.434.017,26.3.139,44.53.272,30.021.238,8.162.1c.917.018,1.621.032,2.122.04.479.013.724.036.724.036s-.245.02-.725.029l-2.122.02-8.162.021L300,239.219l-44.531-.14-26.3-.1-3.436-.014L224,238.954a2.98,2.98,0,0,1-1.819-.485,2.811,2.811,0,0,1-1.114-1.563,7.622,7.622,0,0,1-.1-1.823q.007-1.754.013-3.52.016-3.533.03-7.116c.014-1.209-.01-2.357.034-3.627a2.8,2.8,0,0,1,2.787-2.459l99.051.548,17.107.125a7.422,7.422,0,0,1,1.892.131,2.655,2.655,0,0,1,1.468,1.152,2.906,2.906,0,0,1,.38,1.737q-.007.843-.013,1.652c-.018,2.155-.037,4.125-.052,5.9s-.034,3.343-.049,4.712c-.008.68-.014,1.31-.021,1.887a3.337,3.337,0,0,1-.246,1.558,2.513,2.513,0,0,1-1.6,1.356A1.917,1.917,0,0,1,341.028,239.189Z" transform="translate(-220.963 -218.36)" fill="#e0e0e0"/>
            </g>
          </g>
          <g id="Group_3171" data-name="Group 3171" transform="translate(0.419 155.329)">
            <rect id="Rectangle_505" data-name="Rectangle 505" width="30.562" height="5.608" transform="translate(0.026 0) rotate(0.263)" fill="#407bff"/>
            <rect id="Rectangle_506" data-name="Rectangle 506" width="30.562" height="5.608" transform="translate(0.026 0) rotate(0.263)" fill="#407bff" opacity="0.1"/>
          </g>
          <g id="Group_3173" data-name="Group 3173" transform="translate(0 169.049)">
            <g id="Group_3172" data-name="Group 3172">
              <path id="Path_9447" data-name="Path 9447" d="M340.837,284.1a4.791,4.791,0,0,0,.7-.132,2.468,2.468,0,0,0,1.506-1.348,3.226,3.226,0,0,0,.2-1.506q0-.868-.006-1.888c0-1.369,0-2.942-.008-4.711s0-3.746,0-5.9q0-.807,0-1.653a2.589,2.589,0,0,0-.347-1.568,2.344,2.344,0,0,0-1.292-1,7.436,7.436,0,0,0-1.8-.1l-17.106-.033-99.052-.367a2.184,2.184,0,0,0-2.17,1.913c-.036,1.13-.019,2.379-.031,3.558q-.014,3.581-.031,7.115-.007,1.767-.015,3.52a7.43,7.43,0,0,0,.074,1.659,2.2,2.2,0,0,0,.868,1.218,2.35,2.35,0,0,0,1.478.38l1.729.008,3.434.018,26.3.139,44.531.273,30.02.236,8.163.1c.916.017,1.622.03,2.122.04.478.013.723.034.723.034s-.245.02-.723.029l-2.122.02-8.163.021c-7.111-.011-17.362-.024-30.022-.04l-44.531-.14-26.3-.1-3.436-.015-1.728-.007a2.985,2.985,0,0,1-1.821-.485,2.814,2.814,0,0,1-1.114-1.563,7.629,7.629,0,0,1-.1-1.824q.007-1.752.014-3.519.014-3.533.029-7.116c.014-1.21-.01-2.357.034-3.628a2.8,2.8,0,0,1,2.787-2.458l99.052.548,17.106.125a7.429,7.429,0,0,1,1.893.131,2.66,2.66,0,0,1,1.466,1.152,2.909,2.909,0,0,1,.382,1.737q-.007.843-.014,1.652c-.019,2.155-.036,4.126-.051,5.9s-.034,3.343-.049,4.712q-.012,1.02-.024,1.887a3.322,3.322,0,0,1-.246,1.558,2.507,2.507,0,0,1-1.6,1.356A1.962,1.962,0,0,1,340.837,284.1Z" transform="translate(-220.773 -263.273)" fill="#e0e0e0"/>
            </g>
          </g>
          <g id="Group_3174" data-name="Group 3174" transform="translate(8.847 123.524)">
            <rect id="Rectangle_507" data-name="Rectangle 507" width="55.907" height="5.242" transform="translate(0.024 0) rotate(0.265)" fill="#407bff"/>
            <rect id="Rectangle_508" data-name="Rectangle 508" width="55.907" height="5.242" transform="translate(0.024 0) rotate(0.265)" fill="#407bff" opacity="0.2"/>
          </g>
          <g id="Group_3195" data-name="Group 3195" transform="translate(9.061 177.559)">
            <g id="Group_3184" data-name="Group 3184">
              <g id="Group_3175" data-name="Group 3175">
                <path id="Path_9448" data-name="Path 9448" d="M233.286,273.052a2.449,2.449,0,1,1-2.433-2.618A2.529,2.529,0,0,1,233.286,273.052Z" transform="translate(-228.398 -270.434)" fill="#407bff"/>
              </g>
              <g id="Group_3176" data-name="Group 3176" transform="translate(7.574 0.034)">
                <path id="Path_9449" data-name="Path 9449" d="M239.659,273.082a2.449,2.449,0,1,1-2.433-2.619A2.528,2.528,0,0,1,239.659,273.082Z" transform="translate(-234.771 -270.463)" fill="#407bff"/>
              </g>
              <g id="Group_3177" data-name="Group 3177" transform="translate(15.147 0.07)">
                <path id="Path_9450" data-name="Path 9450" d="M246.032,273.111a2.449,2.449,0,1,1-2.434-2.618A2.527,2.527,0,0,1,246.032,273.111Z" transform="translate(-241.144 -270.493)" fill="#407bff"/>
              </g>
              <g id="Group_3178" data-name="Group 3178" transform="translate(22.721 0.105)">
                <path id="Path_9451" data-name="Path 9451" d="M252.4,273.14a2.448,2.448,0,1,1-2.431-2.618A2.527,2.527,0,0,1,252.4,273.14Z" transform="translate(-247.517 -270.522)" fill="#407bff"/>
              </g>
              <g id="Group_3179" data-name="Group 3179" transform="translate(30.293 0.139)">
                <path id="Path_9452" data-name="Path 9452" d="M258.777,273.169a2.449,2.449,0,1,1-2.431-2.618A2.525,2.525,0,0,1,258.777,273.169Z" transform="translate(-253.889 -270.551)" fill="#407bff"/>
              </g>
              <g id="Group_3180" data-name="Group 3180" transform="translate(37.867 0.175)">
                <path id="Path_9453" data-name="Path 9453" d="M265.15,273.2a2.449,2.449,0,1,1-2.433-2.618A2.524,2.524,0,0,1,265.15,273.2Z" transform="translate(-260.262 -270.581)" fill="#407bff"/>
              </g>
              <g id="Group_3181" data-name="Group 3181" transform="translate(45.441 0.21)">
                <path id="Path_9454" data-name="Path 9454" d="M271.524,273.228a2.45,2.45,0,1,1-2.434-2.617A2.531,2.531,0,0,1,271.524,273.228Z" transform="translate(-266.635 -270.611)" fill="#407bff"/>
              </g>
              <g id="Group_3182" data-name="Group 3182" transform="translate(53.014 0.245)">
                <path id="Path_9455" data-name="Path 9455" d="M277.9,273.257a2.449,2.449,0,1,1-2.433-2.617A2.529,2.529,0,0,1,277.9,273.257Z" transform="translate(-273.008 -270.64)" fill="#407bff"/>
              </g>
              <g id="Group_3183" data-name="Group 3183" transform="translate(60.587 0.279)">
                <path id="Path_9456" data-name="Path 9456" d="M284.269,273.288a2.45,2.45,0,1,1-2.433-2.619A2.528,2.528,0,0,1,284.269,273.288Z" transform="translate(-279.38 -270.669)" fill="#407bff"/>
              </g>
            </g>
            <g id="Group_3194" data-name="Group 3194" opacity="0.2">
              <g id="Group_3185" data-name="Group 3185">
                <path id="Path_9457" data-name="Path 9457" d="M233.286,273.052a2.449,2.449,0,1,1-2.433-2.618A2.529,2.529,0,0,1,233.286,273.052Z" transform="translate(-228.398 -270.434)" fill="#407bff"/>
              </g>
              <g id="Group_3186" data-name="Group 3186" transform="translate(7.574 0.034)">
                <path id="Path_9458" data-name="Path 9458" d="M239.659,273.082a2.449,2.449,0,1,1-2.433-2.619A2.528,2.528,0,0,1,239.659,273.082Z" transform="translate(-234.771 -270.463)" fill="#407bff"/>
              </g>
              <g id="Group_3187" data-name="Group 3187" transform="translate(15.147 0.07)">
                <path id="Path_9459" data-name="Path 9459" d="M246.032,273.111a2.449,2.449,0,1,1-2.434-2.618A2.527,2.527,0,0,1,246.032,273.111Z" transform="translate(-241.144 -270.493)" fill="#407bff"/>
              </g>
              <g id="Group_3188" data-name="Group 3188" transform="translate(22.721 0.105)">
                <path id="Path_9460" data-name="Path 9460" d="M252.4,273.14a2.448,2.448,0,1,1-2.431-2.618A2.527,2.527,0,0,1,252.4,273.14Z" transform="translate(-247.517 -270.522)" fill="#407bff"/>
              </g>
              <g id="Group_3189" data-name="Group 3189" transform="translate(30.293 0.139)">
                <path id="Path_9461" data-name="Path 9461" d="M258.777,273.169a2.449,2.449,0,1,1-2.431-2.618A2.525,2.525,0,0,1,258.777,273.169Z" transform="translate(-253.889 -270.551)" fill="#407bff"/>
              </g>
              <g id="Group_3190" data-name="Group 3190" transform="translate(37.867 0.175)">
                <path id="Path_9462" data-name="Path 9462" d="M265.15,273.2a2.449,2.449,0,1,1-2.433-2.618A2.524,2.524,0,0,1,265.15,273.2Z" transform="translate(-260.262 -270.581)" fill="#407bff"/>
              </g>
              <g id="Group_3191" data-name="Group 3191" transform="translate(45.441 0.21)">
                <path id="Path_9463" data-name="Path 9463" d="M271.524,273.228a2.45,2.45,0,1,1-2.434-2.617A2.531,2.531,0,0,1,271.524,273.228Z" transform="translate(-266.635 -270.611)" fill="#407bff"/>
              </g>
              <g id="Group_3192" data-name="Group 3192" transform="translate(53.014 0.245)">
                <path id="Path_9464" data-name="Path 9464" d="M277.9,273.257a2.449,2.449,0,1,1-2.433-2.617A2.529,2.529,0,0,1,277.9,273.257Z" transform="translate(-273.008 -270.64)" fill="#407bff"/>
              </g>
              <g id="Group_3193" data-name="Group 3193" transform="translate(60.587 0.279)">
                <path id="Path_9465" data-name="Path 9465" d="M284.269,273.288a2.45,2.45,0,1,1-2.433-2.619A2.528,2.528,0,0,1,284.269,273.288Z" transform="translate(-279.38 -270.669)" fill="#407bff"/>
              </g>
            </g>
          </g>
          <g id="Group_3198" data-name="Group 3198" transform="translate(33.225)">
            <g id="Group_3196" data-name="Group 3196" transform="translate(21.061)">
              <path id="Path_9466" data-name="Path 9466" d="M275.948,129.916a4.606,4.606,0,0,0,2.745-4.264,4.331,4.331,0,1,0-8.643-.039,4.6,4.6,0,0,0,2.753,4.3c-6.65,1-6.348,8.231-6.348,8.231l15.727.072S282.541,130.912,275.948,129.916Z" transform="translate(-266.453 -121.023)" fill="#3b82ff"/>
              <path id="Path_9467" data-name="Path 9467" d="M275.948,129.916a4.606,4.606,0,0,0,2.745-4.264,4.331,4.331,0,1,0-8.643-.039,4.6,4.6,0,0,0,2.753,4.3c-6.65,1-6.348,8.231-6.348,8.231l15.727.072S282.541,130.912,275.948,129.916Z" transform="translate(-266.453 -121.023)" fill="#3b82ff" opacity="0.1"/>
            </g>
            <g id="Group_3197" data-name="Group 3197" transform="translate(0 21.669)">
              <rect id="Rectangle_509" data-name="Rectangle 509" width="56.083" height="6.706" transform="matrix(1, 0.005, -0.005, 1, 0.031, 0)" fill="#407bff"/>
              <rect id="Rectangle_510" data-name="Rectangle 510" width="56.083" height="6.706" transform="matrix(1, 0.005, -0.005, 1, 0.031, 0)" fill="#407bff" opacity="0.2"/>
            </g>
          </g>
        </g>
      </g>
    </g>
    <g id="Speech_Bubble" data-name="Speech Bubble" transform="translate(107.481 194.03)">
      <g id="Group_3206" data-name="Group 3206" transform="translate(0)">
        <g id="Group_3202" data-name="Group 3202">
          <g id="Group_3201" data-name="Group 3201">
            <path id="Path_9468" data-name="Path 9468" d="M127.313,168.678a3.233,3.233,0,0,1-.551.062l-1.617.119a17.973,17.973,0,0,0-2.607.348c-.51.1-1.073.144-1.648.314l-1.842.511a30.35,30.35,0,0,0-8.763,4.347,31.058,31.058,0,0,0-8.623,9.6,32.761,32.761,0,0,0-3.022,6.9A34.787,34.787,0,0,0,97.4,203.242c.039.728.2,1.452.289,2.188a15.488,15.488,0,0,0,.417,2.2,31.364,31.364,0,0,0,17.8,21.778,28.2,28.2,0,0,0,10.207,2.292,27.574,27.574,0,0,0,10.654-1.534l1.045-.383.138-.051.125.063,14.989,7.609-.446.38c-1.6-4.966-3.153-9.783-4.641-14.4l-.057-.177.132-.133a32,32,0,0,0,7.87-13.083,32.875,32.875,0,0,0,1.141-13.929,32.055,32.055,0,0,0-10.705-20.09,32.927,32.927,0,0,0-7.363-4.686,32.324,32.324,0,0,0-6.219-1.96l-2.332-.4-1.72-.12-1.054-.081a1.775,1.775,0,0,1-.358-.046,1.956,1.956,0,0,1,.359-.007l1.058.03,1.731.07,2.353.351a31.645,31.645,0,0,1,6.3,1.888,32.893,32.893,0,0,1,7.492,4.667,32.3,32.3,0,0,1,6.916,8.35,32.657,32.657,0,0,1,4.057,11.964,33.352,33.352,0,0,1-1.11,14.166,32.521,32.521,0,0,1-7.985,13.348l.075-.311c1.5,4.619,3.054,9.432,4.662,14.4l.235.726-.681-.346-14.993-7.6.263.013-1.067.392a28.2,28.2,0,0,1-10.893,1.565,28.841,28.841,0,0,1-10.429-2.353,31.889,31.889,0,0,1-18.105-22.234,15.862,15.862,0,0,1-.416-2.24c-.093-.747-.25-1.483-.285-2.225a35.14,35.14,0,0,1,1.312-12.554,33.037,33.037,0,0,1,3.105-6.989,31.216,31.216,0,0,1,8.806-9.659,30.156,30.156,0,0,1,8.9-4.295l1.865-.486c.581-.162,1.15-.194,1.665-.288a16.922,16.922,0,0,1,2.629-.289l1.627-.055A3.6,3.6,0,0,1,127.313,168.678Z" transform="translate(-96.733 -168.669)" fill="#407bff"/>
          </g>
        </g>
        <g id="Group_3205" data-name="Group 3205" transform="translate(18.825 16.692)">
          <g id="Group_3203" data-name="Group 3203">
            <path id="Path_9469" data-name="Path 9469" d="M131.106,193.78h-2.2l-4.793-6.68v-4.384s-3.4-.208-3,5.532-.032,4.279-.032,4.279-7.209.027-7.808.654c-.435.455-.632,7.615-.707,11.5a4.2,4.2,0,0,0,2.979,4.235,3.174,3.174,0,0,0,.775.1c1.8,0,10.984-1.462,10.984-1.462h3.793Z" transform="translate(-112.573 -182.715)" fill="#407bff"/>
          </g>
          <g id="Group_3204" data-name="Group 3204" transform="translate(19.708 9.861)">
            <path id="Path_9470" data-name="Path 9470" d="M134.269,191.013l-1.351,15.021h-3.761V191.316Z" transform="translate(-129.157 -191.013)" fill="#407bff"/>
          </g>
        </g>
      </g>
    </g>
    <g id="Character" transform="translate(138.058 201.104)">
      <g id="Group_3277" data-name="Group 3277">
        <g id="Group_3276" data-name="Group 3276">
          <g id="Group_3220" data-name="Group 3220" transform="translate(39.49 314.995)">
            <g id="Group_3207" data-name="Group 3207">
              <path id="Path_9471" data-name="Path 9471" d="M174.062,449.972V439.805l-18.219-.122-.151,15.36,1.13.084c5.026.326,25.574.8,28.942-.245C189.52,453.72,174.062,449.972,174.062,449.972Z" transform="translate(-155.692 -439.683)" fill="#407bff"/>
            </g>
            <g id="Group_3209" data-name="Group 3209" transform="translate(0.062 13.937)">
              <g id="Group_3208" data-name="Group 3208">
                <path id="Path_9472" data-name="Path 9472" d="M186.185,451.719c0,.172-6.815.31-15.22.31s-15.221-.138-15.221-.31,6.814-.308,15.221-.308S186.185,451.549,186.185,451.719Z" transform="translate(-155.744 -451.411)" fill="#263238"/>
              </g>
            </g>
            <g id="Group_3211" data-name="Group 3211" transform="translate(18.629 10.498)">
              <g id="Group_3210" data-name="Group 3210">
                <path id="Path_9473" data-name="Path 9473" d="M171.429,450.383c-.15-.078-.02-.616.371-1.144s.866-.814.985-.694-.127.569-.487,1.06S171.582,450.465,171.429,450.383Z" transform="translate(-171.368 -448.517)" fill="#263238"/>
              </g>
            </g>
            <g id="Group_3213" data-name="Group 3213" transform="translate(19.776 10.81)">
              <g id="Group_3212" data-name="Group 3212">
                <path id="Path_9474" data-name="Path 9474" d="M172.409,451c-.157-.059-.076-.662.283-1.3s.829-1.016.963-.911-.093.625-.424,1.216S172.572,451.067,172.409,451Z" transform="translate(-172.333 -448.779)" fill="#263238"/>
              </g>
            </g>
            <g id="Group_3215" data-name="Group 3215" transform="translate(0.294 10.631)">
              <g id="Group_3214" data-name="Group 3214">
                <path id="Path_9475" data-name="Path 9475" d="M161.2,452.2c-.071.05-.342-.216-.737-.664a12,12,0,0,0-1.6-1.6,4.193,4.193,0,0,0-1.97-.862c-.555-.074-.917.012-.95-.077-.031-.067.308-.32.964-.36a3.625,3.625,0,0,1,2.334.808,6.639,6.639,0,0,1,1.573,1.834C161.124,451.8,161.264,452.15,161.2,452.2Z" transform="translate(-155.939 -448.629)" fill="#263238"/>
              </g>
            </g>
            <g id="Group_3217" data-name="Group 3217" transform="translate(16.989 10.378)">
              <g id="Group_3216" data-name="Group 3216">
                <path id="Path_9476" data-name="Path 9476" d="M171.744,448.491c.089.144-.223.5-.744.687s-.986.126-1.011-.042.342-.368.8-.538S171.654,448.344,171.744,448.491Z" transform="translate(-169.988 -448.416)" fill="#263238"/>
              </g>
            </g>
            <g id="Group_3219" data-name="Group 3219" transform="translate(16.283 9.176)">
              <g id="Group_3218" data-name="Group 3218">
                <path id="Path_9477" data-name="Path 9477" d="M171.571,447.7c.015.17-.469.317-1.085.324s-1.1-.124-1.092-.295.5-.315,1.084-.323S171.553,447.529,171.571,447.7Z" transform="translate(-169.394 -447.405)" fill="#263238"/>
              </g>
            </g>
          </g>
          <g id="Group_3234" data-name="Group 3234" transform="translate(84.354 314.995)">
            <g id="Group_3221" data-name="Group 3221">
              <path id="Path_9478" data-name="Path 9478" d="M211.813,449.972V439.805l-18.219-.122-.151,15.2,1.129.083c5.026.326,25.575.954,28.943-.088C227.272,453.72,211.813,449.972,211.813,449.972Z" transform="translate(-193.444 -439.683)" fill="#407bff"/>
            </g>
            <g id="Group_3223" data-name="Group 3223" transform="translate(0.062 13.959)">
              <g id="Group_3222" data-name="Group 3222">
                <path id="Path_9479" data-name="Path 9479" d="M223.937,451.739c0,.17-6.815.31-15.22.31s-15.221-.14-15.221-.31,6.813-.31,15.221-.31S223.937,451.568,223.937,451.739Z" transform="translate(-193.496 -451.429)" fill="#263238"/>
              </g>
            </g>
            <g id="Group_3225" data-name="Group 3225" transform="translate(18.629 10.498)">
              <g id="Group_3224" data-name="Group 3224">
                <path id="Path_9480" data-name="Path 9480" d="M209.181,450.383c-.15-.078-.021-.616.371-1.144s.866-.814.985-.694-.127.569-.487,1.06S209.333,450.465,209.181,450.383Z" transform="translate(-209.12 -448.517)" fill="#263238"/>
              </g>
            </g>
            <g id="Group_3227" data-name="Group 3227" transform="translate(19.775 10.81)">
              <g id="Group_3226" data-name="Group 3226">
                <path id="Path_9481" data-name="Path 9481" d="M210.161,451c-.158-.059-.076-.662.283-1.3s.83-1.016.963-.911-.093.625-.424,1.216S210.323,451.067,210.161,451Z" transform="translate(-210.084 -448.779)" fill="#263238"/>
              </g>
            </g>
            <g id="Group_3229" data-name="Group 3229" transform="translate(0.294 10.631)">
              <g id="Group_3228" data-name="Group 3228">
                <path id="Path_9482" data-name="Path 9482" d="M198.947,452.2c-.07.05-.342-.216-.736-.664a12,12,0,0,0-1.6-1.6,4.192,4.192,0,0,0-1.972-.862c-.554-.074-.917.012-.948-.077-.032-.067.307-.32.963-.36a3.626,3.626,0,0,1,2.335.808,6.639,6.639,0,0,1,1.573,1.834C198.876,451.8,199.016,452.15,198.947,452.2Z" transform="translate(-193.691 -448.629)" fill="#263238"/>
              </g>
            </g>
            <g id="Group_3231" data-name="Group 3231" transform="translate(16.989 10.378)">
              <g id="Group_3230" data-name="Group 3230">
                <path id="Path_9483" data-name="Path 9483" d="M209.5,448.491c.088.144-.223.5-.744.687s-.986.126-1.011-.042.342-.368.8-.538S209.406,448.344,209.5,448.491Z" transform="translate(-207.74 -448.416)" fill="#263238"/>
              </g>
            </g>
            <g id="Group_3233" data-name="Group 3233" transform="translate(16.282 9.176)">
              <g id="Group_3232" data-name="Group 3232">
                <path id="Path_9484" data-name="Path 9484" d="M209.322,447.7c.017.17-.468.317-1.084.324s-1.1-.124-1.093-.295.5-.315,1.085-.323S209.306,447.529,209.322,447.7Z" transform="translate(-207.145 -447.405)" fill="#263238"/>
              </g>
            </g>
          </g>
          <g id="Group_3235" data-name="Group 3235" transform="translate(0 7.536)">
            <path id="Path_9485" data-name="Path 9485" d="M292.3,196.985c-.475-.49-1.644-.259-1.644-.259a6.309,6.309,0,0,0-.012-2.061c-.215-.671-1.714-.542-1.714-.542a6.969,6.969,0,0,1,.039-1.69.6.6,0,0,0-.348-.6,5.534,5.534,0,0,0-2.239-.408c-.919-.656,2.794-5.847,4.171-7.509,1.36-1.641,1.131-2.957-.1-2.954-.837,0-5.171,4.991-6.493,6.667s-4.868,6.334-4.988,2.614-1.616-6.53-2.549-7.01-1.942.645-1.425,1.678a13.55,13.55,0,0,1,.832,3.658,8.907,8.907,0,0,1-.137,3.007,34.661,34.661,0,0,1-1.6,5.367l-.092-.051s-25.939,24.871-27.81,26.647c-1.683,1.6-35.387-1.89-42.139-2.606a46.78,46.78,0,0,0-6.947-.474c-2.929.128-3.451.544-6.382.583A144.158,144.158,0,0,0,168.7,222.98a18.241,18.241,0,0,0-14.333,12.432c-6.814,21.27-22.234,71.622-24.981,99.91a118.224,118.224,0,0,0-5.565,11.5c-1.91,5.2-1.445,5.376-.8,5.5,1.728.32,3.705-9.017,4.443-6.766s-3.746,11.14-1.926,11.4c2.372.339,4.263-9.473,4.485-10.293.214-.8,1.412-.526,1.172.2-.343,1.047-3.688,12.135-1.362,12.49,1.289.2,1.428-2.152,1.428-2.152s2.365-10.6,3.457-10.4c1.109.208-.069,6.48-.617,8.567-.541,2.063.221,3.159,1.333,2.639.758-.354,2.585-6.706,3.077-8.783s1.743-7.795,3.421-4.474,4.218,5.241,5.267,5.282a1.164,1.164,0,0,0,.583-2.122,13.557,13.557,0,0,1-2.3-2.966,8.9,8.9,0,0,1-1.143-2.783,30.846,30.846,0,0,1-.828-6.013l-.194-1.223c2.661-13.183,10.332-51.859,21.351-76.568l4.537,9.338,1.97,6.912-12.093,29.875,51.592-.68-7.69-29.637,9.344-30.9h0c10.114.226,36.088.6,40.453-1.349,5.443-2.431,33.607-37.933,33.607-37.933h0a67.149,67.149,0,0,0,5.263-4.568S293.334,198.045,292.3,196.985Z" transform="translate(-122.462 -180.964)" fill="#ffbe9d"/>
          </g>
          <g id="Group_3249" data-name="Group 3249" transform="translate(18.284 44.639)">
            <g id="Group_3236" data-name="Group 3236">
              <path id="Path_9486" data-name="Path 9486" d="M153.944,276.6c1.493-5.109,9.184-30.371,9.184-30.371s3.774,20.6,2.782,23.076a43.663,43.663,0,0,1-3.243,6.129c-8.723,13.284-7.578,19.923-7.578,19.923l52.693-1.607c.128-7.369-4.233-24.5-5.146-27.232s2.114-11.689,2.114-11.689,5.954-6.048,5.723-9.16a50.307,50.307,0,0,0-1.037-8.3l32.063,1.181L240.492,216.8,194.4,212.185c-1.595,4.538-16.109,2.315-16.109,2.315-15.669.515-16.618,3.4-23.152,8.455s-17.293,48.509-17.293,48.509Z" transform="translate(-137.848 -212.185)" fill="#407bff"/>
            </g>
            <g id="Group_3238" data-name="Group 3238" transform="translate(28.464 57.356)">
              <g id="Group_3237" data-name="Group 3237">
                <path id="Path_9487" data-name="Path 9487" d="M180.594,262.367a11.318,11.318,0,0,1-2.777.14c-1.716-.011-4.086-.118-6.691-.378s-4.95-.631-6.634-.963a11.256,11.256,0,0,1-2.693-.69,13.784,13.784,0,0,1,2.763.259c1.695.219,4.035.516,6.625.777s4.941.436,6.645.557A13.715,13.715,0,0,1,180.594,262.367Z" transform="translate(-161.8 -260.449)" fill="#263238"/>
              </g>
            </g>
            <g id="Group_3240" data-name="Group 3240" transform="translate(30.435 54.776)">
              <g id="Group_3239" data-name="Group 3239">
                <path id="Path_9488" data-name="Path 9488" d="M183.889,258.295a12.355,12.355,0,0,1-2.877.98A52.243,52.243,0,0,1,166.484,261a12.25,12.25,0,0,1-3.026-.28,18.478,18.478,0,0,1,3.024-.157c1.863-.058,4.433-.195,7.254-.53s5.35-.8,7.176-1.185A18.408,18.408,0,0,1,183.889,258.295Z" transform="translate(-163.458 -258.277)" fill="#263238"/>
              </g>
            </g>
            <g id="Group_3242" data-name="Group 3242" transform="translate(64.178 34.803)">
              <g id="Group_3241" data-name="Group 3241">
                <path id="Path_9489" data-name="Path 9489" d="M196.264,241.471a11.393,11.393,0,0,1-.36,2.688c-.307,1.644-.788,3.9-1.4,6.378s-1.225,4.7-1.715,6.3a11.431,11.431,0,0,1-.923,2.549,12.2,12.2,0,0,1,.5-2.663c.449-1.854.966-3.983,1.535-6.335l1.57-6.326A12.221,12.221,0,0,1,196.264,241.471Z" transform="translate(-191.852 -241.471)" fill="#263238"/>
              </g>
            </g>
            <g id="Group_3244" data-name="Group 3244" transform="translate(0.577 56.982)">
              <g id="Group_3243" data-name="Group 3243">
                <path id="Path_9490" data-name="Path 9490" d="M154.4,264.538c-.045.165-3.679-.682-8.117-1.892s-8-2.326-7.954-2.492,3.678.683,8.117,1.894S154.45,264.374,154.4,264.538Z" transform="translate(-138.334 -260.134)" fill="#263238"/>
              </g>
            </g>
            <g id="Group_3246" data-name="Group 3246" transform="translate(57.484 1.239)">
              <g id="Group_3245" data-name="Group 3245">
                <path id="Path_9491" data-name="Path 9491" d="M200.9,236.9a4.34,4.34,0,0,1-1.364-.007,13.86,13.86,0,0,1-3.625-.864,15.2,15.2,0,0,1-4.729-2.879,14.814,14.814,0,0,1-3.867-5.57,15.3,15.3,0,0,1-1.065-6.7,10.518,10.518,0,0,1,1.626-5.3,5.486,5.486,0,0,1,3.008-2.215,3.7,3.7,0,0,1,1.015-.135c.234.006.354.031.354.05,0,.059-.493.031-1.3.315a5.5,5.5,0,0,0-2.717,2.229c-1.617,2.543-2.069,7.186-.351,11.525a14.708,14.708,0,0,0,3.678,5.377,15.531,15.531,0,0,0,4.508,2.895A23.386,23.386,0,0,0,200.9,236.9Z" transform="translate(-186.219 -213.227)" fill="#263238"/>
              </g>
            </g>
            <g id="Group_3248" data-name="Group 3248" transform="translate(99.58 4.031)">
              <g id="Group_3247" data-name="Group 3247">
                <path id="Path_9492" data-name="Path 9492" d="M221.93,237.479c-.17,0-.3-4.9-.286-10.951s.159-10.951.33-10.951.3,4.9.288,10.952S222.1,237.48,221.93,237.479Z" transform="translate(-221.642 -215.577)" fill="#263238"/>
              </g>
            </g>
          </g>
          <g id="Group_3256" data-name="Group 3256" transform="translate(25.812)">
            <g id="Group_3250" data-name="Group 3250" transform="translate(31.022 4.339)">
              <path id="Path_9493" data-name="Path 9493" d="M188.007,219.9c.13-2.652.408-5.648.408-5.648s6.558-.723,6.956-7.5,0-22.4,0-22.4l-11.945-6.082-13.139,10.369,1.991,33.87,12.091.769A3.486,3.486,0,0,0,188.007,219.9Z" transform="translate(-170.287 -178.274)" fill="#ffbe9d"/>
            </g>
            <g id="Group_3252" data-name="Group 3252" transform="translate(47.196 23.606)">
              <g id="Group_3251" data-name="Group 3251">
                <path id="Path_9494" data-name="Path 9494" d="M186.624,198.34c.019,0,.02.126-.1.291a.93.93,0,0,1-.755.332c-.761-.036-1.494-.877-1.764-1.905a3.258,3.258,0,0,1-.033-1.506,1.29,1.29,0,0,1,.714-1.021.646.646,0,0,1,.5.012.575.575,0,0,1,.269.273c.089.2.02.324,0,.314s-.02-.112-.119-.239a.438.438,0,0,0-.564-.119,1.065,1.065,0,0,0-.488.848,3.18,3.18,0,0,0,.055,1.343c.238.92.876,1.673,1.444,1.741a.858.858,0,0,0,.639-.175C186.554,198.424,186.6,198.328,186.624,198.34Z" transform="translate(-183.897 -194.486)" fill="#eb996e"/>
              </g>
            </g>
            <g id="Group_3253" data-name="Group 3253">
              <path id="Path_9495" data-name="Path 9495" d="M204.361,181.387c-.913-3.12-4.227-4.668-7.248-5.524-4.6-1.3-9.574-1.879-14.063-.226s-9.89,4.561-9.889,9.521c-2.65-.217-4.164,2.1-5.216,4.982a19.017,19.017,0,0,0-1.128,5.465l-.043-.014c-.341,6.492-2.15,15.437-6.359,20.238-2.324,2.651-5.671,4.484-7.026,7.785-1.178,2.87-.568,6.262-1.682,9.159-.983,2.557-3.159,4.373-4.719,6.6-3.4,4.846-3.629,11.693-1.133,17.1a21.7,21.7,0,0,0,12.936,11.179,30.3,30.3,0,0,0,17.063.159,28.52,28.52,0,0,0,11.43-5.663,19.153,19.153,0,0,0,6.562-11.078c.838-4.855-.522-9.784-1.521-14.605-3.161-15.254-2.259-16.047,1.731-30.2.09-.25.145-.509.215-.765.052-.188.1-.367.157-.56l-.008,0a8.724,8.724,0,0,0,.187-1.692,3.248,3.248,0,0,1-3.436-.743,3.592,3.592,0,0,1-.813-3.557,5.147,5.147,0,0,1,3.065-2.888c1.318-.555,2.736-.829,4.03-1.445,2.744-1.3,4.645-4.016,5.941-6.855C204.3,185.773,204.978,183.493,204.361,181.387Z" transform="translate(-144.183 -174.623)" fill="#263238"/>
            </g>
            <g id="Group_3255" data-name="Group 3255" transform="translate(48.347 27.748)">
              <g id="Group_3254" data-name="Group 3254">
                <path id="Path_9496" data-name="Path 9496" d="M186.911,197.972a5.4,5.4,0,0,1,.625,1.175c.353.75.827,1.809,1.352,3.026l.1.231-.251.021c-.4.034-.8.068-1.21.1-.829.053-1.521.153-2.324.144a.421.421,0,0,1-.307-.27.7.7,0,0,1-.019-.33c.036-.187.076-.324.113-.481l.209-.841a8.007,8.007,0,0,1,.5-1.646,7.881,7.881,0,0,1-.244,1.7l-.165.851c-.062.286-.165.717-.011.683.591-.026,1.434-.125,2.216-.182l1.21-.1-.152.252c-.509-1.223-.94-2.3-1.234-3.076A5.386,5.386,0,0,1,186.911,197.972Z" transform="translate(-184.866 -197.972)" fill="#e8505b"/>
              </g>
            </g>
          </g>
          <g id="Group_3275" data-name="Group 3275" transform="translate(32.971 126.203)">
            <g id="Group_3274" data-name="Group 3274">
              <g id="Group_3257" data-name="Group 3257">
                <path id="Path_9497" data-name="Path 9497" d="M152.76,282.426l52.693-1.607,22.918,89.532-4.221,102.7H196.26l3.457-100.513L179.333,310.21l3.14,166.822-28.157.416-2.967-156.806c-.124-4.358-1.558-14.192-1.023-18.515Z" transform="translate(-150.207 -280.819)" fill="#273464"/>
              </g>
              <g id="Group_3259" data-name="Group 3259" transform="translate(18.898 27.168)">
                <g id="Group_3258" data-name="Group 3258">
                  <path id="Path_9498" data-name="Path 9498" d="M183.355,307.17a10.128,10.128,0,0,1-2.585-.153c-1.585-.187-3.766-.522-6.155-1s-4.529-1.016-6.063-1.458a10.1,10.1,0,0,1-2.443-.857c.046-.172,3.873.755,8.629,1.708S183.378,306.993,183.355,307.17Z" transform="translate(-166.109 -303.68)" fill="#273464"/>
                </g>
              </g>
              <g id="Group_3261" data-name="Group 3261" transform="translate(45.485 186.291)">
                <g id="Group_3260" data-name="Group 3260">
                  <path id="Path_9499" data-name="Path 9499" d="M216.686,437.886c0,.172-6.315.31-14.1.31s-14.1-.138-14.1-.31,6.313-.308,14.1-.308S216.686,437.716,216.686,437.886Z" transform="translate(-188.481 -437.578)" fill="#273464"/>
                </g>
              </g>
              <g id="Group_3263" data-name="Group 3263" transform="translate(4.653 191.571)">
                <g id="Group_3262" data-name="Group 3262">
                  <path id="Path_9500" data-name="Path 9500" d="M181.484,442.33c0,.171-6.125.31-13.681.31s-13.681-.139-13.681-.31,6.124-.309,13.681-.309S181.484,442.159,181.484,442.33Z" transform="translate(-154.122 -442.021)" fill="#273464"/>
                </g>
              </g>
              <g id="Group_3265" data-name="Group 3265" transform="translate(25.662 28.618)">
                <g id="Group_3264" data-name="Group 3264">
                  <path id="Path_9501" data-name="Path 9501" d="M174.526,467.735c-.171,0-.911-36.45-1.654-81.407-.743-44.975-1.206-81.425-1.035-81.427s.912,36.442,1.654,81.417C174.234,431.275,174.7,467.732,174.526,467.735Z" transform="translate(-171.801 -304.9)" fill="#273464"/>
                </g>
              </g>
              <g id="Group_3267" data-name="Group 3267" transform="translate(50.97 1.607)">
                <g id="Group_3266" data-name="Group 3266">
                  <path id="Path_9502" data-name="Path 9502" d="M212.071,467.163a2.888,2.888,0,0,1-.013-.485l.026-1.424c.037-1.285.09-3.122.159-5.473.165-4.783.4-11.649.7-20.119.651-17.015,1.548-40.467,2.538-66.372.009-.239.019-.478.029-.7l.008.088c-6.245-25.006-11.89-47.609-15.981-64L194.765,289.3c-.544-2.266-.969-4.038-1.266-5.276-.133-.581-.236-1.036-.314-1.375a2.723,2.723,0,0,1-.087-.474,3.011,3.011,0,0,1,.147.459c.092.334.215.785.373,1.361.324,1.232.787,2.994,1.379,5.248,1.178,4.6,2.87,11.193,4.958,19.337,4.139,16.376,9.846,38.964,16.16,63.954l.012.043,0,.045c-.008.219-.019.459-.027.7-1.061,25.9-2.023,49.349-2.72,66.363-.377,8.467-.682,15.329-.895,20.111-.118,2.348-.21,4.184-.275,5.468-.037.6-.065,1.072-.088,1.421A2.776,2.776,0,0,1,212.071,467.163Z" transform="translate(-193.097 -282.171)" fill="#273464"/>
                </g>
              </g>
              <g id="Group_3269" data-name="Group 3269" transform="translate(48.191 89.894)">
                <g id="Group_3268" data-name="Group 3268">
                  <path id="Path_9503" data-name="Path 9503" d="M203.422,356.506c.029.169-2.731.783-6.162,1.373-2.562.441-4.775.743-5.742.8v-.241c.321.088.493.156.486.2s-.191.056-.524.042l-.72-.032.719-.209c.929-.272,3.116-.726,5.678-1.166C200.586,356.679,203.392,356.337,203.422,356.506Z" transform="translate(-190.758 -356.463)" fill="#273464"/>
                </g>
              </g>
              <g id="Group_3271" data-name="Group 3271" transform="translate(49.253 92.333)">
                <g id="Group_3270" data-name="Group 3270">
                  <path id="Path_9504" data-name="Path 9504" d="M202.719,359.536c-.023.172-2.5-.018-5.547-.252s-5.524-.436-5.52-.61,2.5-.25,5.569-.008S202.742,359.371,202.719,359.536Z" transform="translate(-191.652 -358.515)" fill="#273464"/>
                </g>
              </g>
              <g id="Group_3272" data-name="Group 3272" transform="translate(2.319)">
                <path id="Path_9505" data-name="Path 9505" d="M152.158,284.318c1.274,1.793,3.091,2.422,5.2,2.768a23.554,23.554,0,0,0,6.39-.12c13.6-1.509,28.014-2.9,41.335-6.146-17.242.966-35.451.641-52.693,1.607,0,0-.147,1.186-.182,1.472" transform="translate(-152.158 -280.819)" fill="#273464" opacity="0.2"/>
              </g>
              <g id="Group_3273" data-name="Group 3273" transform="translate(20.092 27.803)" opacity="0.2">
                <path id="Path_9506" data-name="Path 9506" d="M167.114,304.214l9.714,37.711-.68-36.122Z" transform="translate(-167.114 -304.214)" fill="#273464"/>
              </g>
            </g>
          </g>
        </g>
      </g>
    </g>
  </g>
</svg>
