<svg xmlns="http://www.w3.org/2000/svg" xmlns:xlink="http://www.w3.org/1999/xlink" width="174" height="32" viewBox="0 0 174 32"><defs><style>.a{fill:#266ef1;}.b{clip-path:url(#a);}</style><clipPath id="a"><rect class="a" width="150" height="32" transform="translate(0 0)"/></clipPath></defs><g transform="translate(0 -0.919)"><g class="b" transform="translate(0 0.919)"><path class="a" d="M0,28V26.327H.006a8.045,8.045,0,0,0,2.134-.2,1.343,1.343,0,0,0,.892-.71,4.233,4.233,0,0,0,.229-1.622V8.777a2.887,2.887,0,0,0-.28-1.547,1.448,1.448,0,0,0-1.2-.38H.1V5.176l8-1.268h2.191V8.2a5.406,5.406,0,0,0-.409-.992,3.643,3.643,0,0,0-.613-.873,2.124,2.124,0,0,0-.541-.4A2.635,2.635,0,0,0,8.053,5.7c-.076-.016-.155-.03-.234-.041a4.791,4.791,0,0,0-.653-.039c-.131,0-.269,0-.448.011l-.266.012c-.237.012-.482.024-.722.024a3.68,3.68,0,0,1-1.263-.183.105.105,0,0,0-.037-.007H4.415a.1.1,0,0,0-.073.054.108.108,0,0,0,0,.1c.106.212.2.442.3.665a6.975,6.975,0,0,0,.509,1.047,3.136,3.136,0,0,0,1.9,1.432,2.993,2.993,0,0,0,.636.075H7.83c.155,0,.312-.006.469-.011s.313-.011.466-.011a3.292,3.292,0,0,1,.768.074.329.329,0,0,0,.076.01h.029a.116.116,0,0,0,.1-.118c.025-.3-.533-1.076-1.362-1.354-.212-.07-.434-.132-.644-.187a.033.033,0,0,1-.026-.035.036.036,0,0,1,.029-.034h.011c.21.026.38.052.535.082a2.266,2.266,0,0,1,1.6,1,3.093,3.093,0,0,1,.441,1.162l.018.5a.646.646,0,0,1-.009.085.078.078,0,0,0,.014.057l.008.221a17.08,17.08,0,0,1,1.209-3.283,11.639,11.639,0,0,1,1.844-2.832,6.789,6.789,0,0,1,1.668-1.327,8.409,8.409,0,0,1,2.119-.826c.244-.062.491-.112.737-.154a19.7,19.7,0,0,1,3.484-.212c2.413.019,4.858.175,7.116-.711A.313.313,0,0,1,28.7.922a.327.327,0,0,1,.244.475A59.8,59.8,0,0,1,26.58,6.911a10,10,0,0,1-5.875,4.733,9.61,9.61,0,0,1-2.005.307c-.639.039-1.291.039-1.941.039a14.786,14.786,0,0,0-3.9.337.86.86,0,0,1-.332.036c-1.125-.138.634-3.609,3.829-4.8.653-.244,1.333-.459,2.018-.672a.112.112,0,0,0-.016-.217.089.089,0,0,0-.034,0c-.57.091-1.132.192-1.688.319a7.235,7.235,0,0,0-4.955,3.339,9.921,9.921,0,0,0-1.209,3.313l.022.611v9.537a3.539,3.539,0,0,0,.28,1.622,1.6,1.6,0,0,0,1.07.71,11.561,11.561,0,0,0,2.573.2V28H0Z" transform="translate(0 -0.919)"/><path class="a" d="M26.836,25a4.734,4.734,0,0,0,1.238,3.093,4.19,4.19,0,0,0,3.113,1.1,8.729,8.729,0,0,0,1.663-.162,6.653,6.653,0,0,0,1.537-.487l.375,1.2a8.935,8.935,0,0,1-3.725.773,5.4,5.4,0,0,1-4.363-1.7,6.831,6.831,0,0,1-1.438-4.565,9.031,9.031,0,0,1,.325-2.47,5.614,5.614,0,0,1,.988-1.983,4.554,4.554,0,0,1,1.687-1.31,5.8,5.8,0,0,1,2.45-.474,4.52,4.52,0,0,1,3.525,1.322,5.219,5.219,0,0,1,1.2,3.642,8.647,8.647,0,0,1-.063,1.073,6.584,6.584,0,0,1-.187.948Zm3.85-5.738A3.914,3.914,0,0,0,29,19.6a3.124,3.124,0,0,0-1.175.948,4.333,4.333,0,0,0-.7,1.447,8.2,8.2,0,0,0-.288,1.834h6.975a1.37,1.37,0,0,0,.05-.449v-.4a4.509,4.509,0,0,0-.725-2.757,2.878,2.878,0,0,0-2.45-.96Zm9.5,5.289a5.208,5.208,0,0,0,.3,1.8,4.433,4.433,0,0,0,.825,1.422,3.817,3.817,0,0,0,1.225.936,3.471,3.471,0,0,0,1.525.337,3.675,3.675,0,0,0,1.363-.262,2.843,2.843,0,0,0,1.15-.848,4.511,4.511,0,0,0,.788-1.522,7.642,7.642,0,0,0,.3-2.308,5.3,5.3,0,0,0-.95-3.455,3.022,3.022,0,0,0-2.425-1.135A4.531,4.531,0,0,0,42,20.134a5.628,5.628,0,0,0-1.813,1.647Zm-.325-6.312.35,2.121a6.49,6.49,0,0,1,.713-.8,5.454,5.454,0,0,1,1-.761,6.125,6.125,0,0,1,1.25-.561,4.6,4.6,0,0,1,1.438-.225,4.169,4.169,0,0,1,2.038.487,4.319,4.319,0,0,1,1.475,1.322,6.131,6.131,0,0,1,.888,1.946,8.9,8.9,0,0,1,.3,2.333,9.673,9.673,0,0,1-.362,2.794A5.78,5.78,0,0,1,47.924,28.9a4.179,4.179,0,0,1-1.575,1.21,4.968,4.968,0,0,1-2.013.4,4.234,4.234,0,0,1-2.4-.7,4.69,4.69,0,0,1-1.575-1.671l-.175.05v6.935H38.511V18.238Zm14.35,12.05h-1.7V13.4h1.7ZM59.087,25a4.734,4.734,0,0,0,1.238,3.093,4.19,4.19,0,0,0,3.113,1.1,8.729,8.729,0,0,0,1.663-.162,6.652,6.652,0,0,0,1.537-.487l.375,1.2a8.935,8.935,0,0,1-3.725.773,5.4,5.4,0,0,1-4.363-1.7,6.831,6.831,0,0,1-1.438-4.565,9.031,9.031,0,0,1,.325-2.47A5.613,5.613,0,0,1,58.8,19.8a4.554,4.554,0,0,1,1.687-1.31,5.8,5.8,0,0,1,2.45-.474,4.52,4.52,0,0,1,3.525,1.322,5.219,5.219,0,0,1,1.2,3.642A8.648,8.648,0,0,1,67.6,24.05a6.584,6.584,0,0,1-.187.948Zm3.85-5.738a3.914,3.914,0,0,0-1.687.337,3.124,3.124,0,0,0-1.175.948,4.334,4.334,0,0,0-.7,1.447,8.208,8.208,0,0,0-.288,1.834h6.975a1.37,1.37,0,0,0,.05-.449v-.4a4.509,4.509,0,0,0-.725-2.757,2.878,2.878,0,0,0-2.45-.96Zm9.5,11.027H70.762V18.238h1.325l.375,2.1a7.124,7.124,0,0,1,.75-.786,6.224,6.224,0,0,1,2.25-1.31,4.566,4.566,0,0,1,1.45-.225,3.767,3.767,0,0,1,3,1.235A5.093,5.093,0,0,1,80.987,22.7v7.584h-1.65V22.7a3.546,3.546,0,0,0-.725-2.358,2.475,2.475,0,0,0-2-.861,4.508,4.508,0,0,0-2.388.661,6.025,6.025,0,0,0-1.788,1.634Zm14.15,0h-1.7V18.238h1.7Zm-2.05-15.966a1.179,1.179,0,0,1,.313-.836,1.287,1.287,0,0,1,1.787,0,1.314,1.314,0,0,1,0,1.671,1.29,1.29,0,0,1-1.787,0A1.179,1.179,0,0,1,84.537,14.321Zm9.1,14.919a3.472,3.472,0,0,0,2.275-.586,1.854,1.854,0,0,0,.675-1.459,1.773,1.773,0,0,0-.237-.923,2.212,2.212,0,0,0-.65-.686,4.454,4.454,0,0,0-.975-.5q-.563-.212-1.188-.412a10.605,10.605,0,0,1-1.349-.536,5.311,5.311,0,0,1-1.15-.736,3.3,3.3,0,0,1-.8-1,2.747,2.747,0,0,1-.3-1.3,2.622,2.622,0,0,1,1.15-2.3,5.348,5.348,0,0,1,3.1-.8,9.815,9.815,0,0,1,1.949.187,6.981,6.981,0,0,1,1.65.536,4.769,4.769,0,0,1-.188.624q-.112.3-.188.574a7.316,7.316,0,0,0-1.425-.462,7.822,7.822,0,0,0-1.65-.162,3.685,3.685,0,0,0-2.112.487,1.506,1.506,0,0,0-.688,1.285,1.589,1.589,0,0,0,.725,1.422,7.35,7.35,0,0,0,1.875.823,9.114,9.114,0,0,1,3.038,1.5,3.135,3.135,0,0,1-.025,4.79,5.364,5.364,0,0,1-3.438.9,12.141,12.141,0,0,1-2.112-.175,5.838,5.838,0,0,1-1.662-.524q.075-.3.188-.624t.187-.6a9.3,9.3,0,0,0,1.55.462A8.463,8.463,0,0,0,93.638,29.239Zm9.525,1.048h-1.676V13.4h1.676v6.91a6.347,6.347,0,0,1,.75-.773,6.479,6.479,0,0,1,2.287-1.3,4.6,4.6,0,0,1,1.438-.225,3.767,3.767,0,0,1,3,1.235,5.094,5.094,0,0,1,1.076,3.455v7.584h-1.626V22.7a3.5,3.5,0,0,0-.738-2.358,2.511,2.511,0,0,0-2.012-.861,4.713,4.713,0,0,0-2.4.636,5.541,5.541,0,0,0-1.774,1.584Zm18.95-2.57-2.65-6.162q-.5-1.2-.825-2.208t-.624-2.133h-.075q.1.574.188,1.222t.15,1.3q.063.649.1,1.247t.037,1.073v8.233h-3.15V13.473h3.65l3.4,7.734a20.7,20.7,0,0,1,.837,2.2,12.068,12.068,0,0,1,.462,2h.05a12.15,12.15,0,0,1,.463-2,20.533,20.533,0,0,1,.837-2.2l3.4-7.734h3.65V30.287h-3.15V22.055q0-.474.037-1.073t.1-1.247q.063-.649.15-1.3t.188-1.222h-.075q-.3,1.123-.625,2.133t-.825,2.208l-2.65,6.162Zm27.275-5.913q0,4.191-2.212,6.337t-6.413,2.145h-5.25V13.473h5.25q4.2,0,6.413,2.133A8.22,8.22,0,0,1,149.388,21.805Zm-3.25,0a7.7,7.7,0,0,0-.375-2.557,4.344,4.344,0,0,0-1.063-1.721,4.071,4.071,0,0,0-1.687-.961,7.84,7.84,0,0,0-2.25-.3h-2V27.493h2a7.271,7.271,0,0,0,2.25-.324,4.094,4.094,0,0,0,1.687-1.023,4.678,4.678,0,0,0,1.063-1.771A7.818,7.818,0,0,0,146.138,21.805Zm5.45,6.861a1.976,1.976,0,0,1,.525-1.36,2.121,2.121,0,0,1,3,0,2.024,2.024,0,0,1,0,2.719,2.121,2.121,0,0,1-3,0A1.976,1.976,0,0,1,151.588,28.666Z" transform="translate(-5.261 -3.469)"/></g><path class="a" d="M203.259,33.067h.912l-2.384-6.582h-1L198.4,33.067h.912l.532-1.472h2.887Zm-.779-2.175h-2.393l1.2-3.343Zm2.411-.446a2.5,2.5,0,0,0,2.469,2.707,2.138,2.138,0,0,0,1.938-1.064v.978h.874V26.039H209.3v2.754a2.27,2.27,0,0,0-1.928-1.016A2.468,2.468,0,0,0,204.891,30.446Zm4.407.009a1.77,1.77,0,1,1-3.524-.009,1.757,1.757,0,0,1,1.757-1.918A1.783,1.783,0,0,1,209.3,30.455Zm6.076,1.2c-.038-1.862-3.058-1.187-3.058-2.422,0-.418.38-.722,1.016-.722a1,1,0,0,1,1.13.9h.864a1.746,1.746,0,0,0-1.966-1.634c-1.159,0-1.909.655-1.909,1.453,0,1.937,3.077,1.263,3.077,2.422,0,.427-.38.769-1.064.769-.731,0-1.178-.38-1.225-.883h-.893c.057.95.912,1.615,2.127,1.615C214.623,33.153,215.374,32.507,215.374,31.652Z" transform="translate(-41.374 -5.239)"/></g></svg>