<svg xmlns="http://www.w3.org/2000/svg" width="22.878" height="22.879" viewBox="0 0 22.878 22.879">
  <g id="logout" transform="translate(-0.014)">
    <g id="Group_2976" data-name="Group 2976" transform="translate(0.014)">
      <g id="Group_2975" data-name="Group 2975">
        <path id="Path_9250" data-name="Path 9250" d="M308.139,152.788a.964.964,0,0,0-.207-.311l-2.859-2.859a.953.953,0,1,0-1.348,1.348l1.233,1.233h-5.325a.953.953,0,1,0,0,1.907h5.325l-1.233,1.233a.953.953,0,1,0,1.348,1.348l2.859-2.859a.944.944,0,0,0,.207-.311A.954.954,0,0,0,308.139,152.788Z" transform="translate(-285.334 -142.666)" fill="#8c9db2"/>
        <path id="Path_9251" data-name="Path 9251" d="M16.22,13.346a.953.953,0,0,0-.953.953v4.766H11.453V3.813a.954.954,0,0,0-.68-.913L7.463,1.907h7.8V6.673a.953.953,0,1,0,1.907,0V.953A.953.953,0,0,0,16.22,0H.967a.85.85,0,0,0-.1.018.942.942,0,0,0-.4.141C.444.173.418.173.4.189S.388.2.38.211a.944.944,0,0,0-.254.3A.779.779,0,0,0,.1.592.9.9,0,0,0,.025.815.593.593,0,0,0,.027.9C.026.917.014.934.014.953V20.019a.953.953,0,0,0,.766.934l9.533,1.907a.887.887,0,0,0,.187.019.954.954,0,0,0,.953-.953v-.953H16.22a.953.953,0,0,0,.953-.953V14.3A.953.953,0,0,0,16.22,13.346Z" transform="translate(-0.014)" fill="#8c9db2"/>
      </g>
    </g>
  </g>
</svg>
