<svg xmlns="http://www.w3.org/2000/svg" width="13.272" height="32.414" viewBox="0 0 13.272 32.414"><defs><style>.a{fill:#266ef1;}</style></defs><g transform="translate(327 -83.033)"><g transform="translate(-327 83.033)"><path class="a" d="M162.913,123.191h-7.632a2.6,2.6,0,0,0-2.592,2.592V135.2a.913.913,0,1,0,1.826,0v-7.712a.507.507,0,1,1,1.014,0v18.454a1.53,1.53,0,0,0,3.059,0V135.4a.507.507,0,0,1,1.014,0v10.539a1.53,1.53,0,0,0,3.059,0V127.488a.507.507,0,1,1,1.014,0V135.2a.913.913,0,1,0,1.826,0v-9.416A2.6,2.6,0,0,0,162.913,123.191Z" transform="translate(-152.462 -115.286)"/><path class="a" d="M157.823,144.376a1.76,1.76,0,0,1-1.758-1.758V132.079a.279.279,0,1,0-.558,0v10.539a1.758,1.758,0,0,1-3.515,0V124.165a.279.279,0,1,0-.558,0v7.712a1.141,1.141,0,0,1-2.283,0V122.46a2.824,2.824,0,0,1,2.821-2.82H159.6a2.824,2.824,0,0,1,2.82,2.82v9.416a1.141,1.141,0,1,1-2.283,0v-7.712a.279.279,0,1,0-.558,0v18.454a1.76,1.76,0,0,1-1.759,1.758Zm-2.037-13.033a.736.736,0,0,1,.735.736v10.539a1.3,1.3,0,0,0,2.6,0V124.165a.735.735,0,1,1,1.471,0v7.712a.685.685,0,0,0,1.37,0V122.46A2.367,2.367,0,0,0,159.6,120.1H151.97a2.367,2.367,0,0,0-2.364,2.364v9.416a.685.685,0,1,0,1.37,0v-7.712a.735.735,0,1,1,1.471,0v18.454a1.3,1.3,0,0,0,2.6,0V132.079A.736.736,0,0,1,155.786,131.344Z" transform="translate(-149.151 -111.963)"/><circle class="a" cx="2.974" cy="2.974" r="2.974" transform="translate(3.661 0.228)"/><path class="a" d="M205.85,6.4a3.2,3.2,0,1,1,3.2-3.2A3.2,3.2,0,0,1,205.85,6.4Zm0-5.949A2.746,2.746,0,1,0,208.6,3.2,2.746,2.746,0,0,0,205.85.455Z" transform="translate(-199.214 0.001)"/></g></g></svg>