<svg xmlns="http://www.w3.org/2000/svg" width="39.76" height="30.481" viewBox="0 0 39.76 30.481"><defs><style>.a{fill:none;stroke:#fe5e71;stroke-linecap:round;stroke-linejoin:round;stroke-width:2px;}</style></defs><g transform="translate(1 1)"><path class="a" d="M0,10.574A5.356,5.356,0,0,0,4.6,5.282,5.354,5.354,0,0,0,.123,0" transform="translate(30.058 1.806)"/><path class="a" d="M0,0C2.516.376,4.273,1.257,4.273,3.073c0,1.25-.827,2.062-2.164,2.572" transform="translate(33.487 18.627)"/><path class="a" d="M11.1,0C5.113,0,0,.907,0,4.53S5.081,9.084,11.1,9.084c5.986,0,11.1-.9,11.1-4.522S17.117,0,11.1,0Z" transform="translate(7.782 19.397)"/><path class="a" d="M7.113,14.227a7.087,7.087,0,1,0-.052,0Z" transform="translate(11.768)"/><path class="a" d="M4.6,10.574A5.348,5.348,0,0,1,4.481,0" transform="translate(3.097 1.806)"/><path class="a" d="M4.273,0C1.756.376,0,1.257,0,3.073c0,1.25.827,2.062,2.164,2.572" transform="translate(0 18.627)"/></g></svg>