<svg xmlns="http://www.w3.org/2000/svg" width="28.266" height="31.721" viewBox="0 0 28.266 31.721"><defs><style>.a{fill:none;stroke:#ff8452;stroke-linecap:round;stroke-linejoin:round;stroke-width:1.2px;}</style></defs><path class="a" d="M4.031,16.7H0V12.669H4.031m0,4.031v9.79m0-9.79H6.91M4.031,26.49h-2.3v4.031m2.3-4.031H6.91m16.124,0V16.7m0,9.79h2.3v4.031m-2.3-4.031H19.867m3.167-9.79h4.031V12.669H23.035m0,4.031H19.867M1.728,30.521h23.61m-23.61,0H0m25.338,0h1.728M13.533,16.7v9.79m0-9.79H16.7m-3.167,0H10.222m3.311,9.79H16.7m-3.167,0H10.222M16.7,16.7v9.79m0-9.79h3.167M16.7,26.49h3.167m0-9.79v9.79M6.91,16.7v9.79m0-9.79h3.311M6.91,26.49h3.311m0-9.79v9.79M13.533,6.91l-9.5,5.759m9.5-5.759,9.5,5.759m-9.5-5.759V4.031m-9.5,8.638h19m-9.5-8.638V0h6.334V4.031Z" transform="translate(0.6 0.6)"/></svg>