<svg xmlns="http://www.w3.org/2000/svg" width="60.683" height="59.557" viewBox="0 0 60.683 59.557">
  <g id="App_promotion_Icon" data-name="App promotion Icon" transform="translate(-17.402 -10.637)">
    <g id="Icon" transform="translate(12 12)">
      <g id="Group_41" data-name="Group 41" transform="translate(6.402)">
        <path id="Vector_21" data-name="Vector 21" d="M5.32,6.207v5.32m0-5.32c4.256,0,8.276-3.251,9.754-4.877M5.32,6.207H2.22m3.1,5.32c2.365.443,7.626,2.128,9.754,5.32M5.32,11.527H2.22m3.1,0-1.053,3.99H2.217v-3.99m12.857,5.32V1.33m0,15.517v1.33h1.773V0H15.074V1.33M2.217,11.527H0V6.207H2.217m0,5.32V6.207m16.4-1.33L20.39,3.99m-1.773,8.867,1.773.887M19.5,8.867H21.72" transform="matrix(0.866, -0.5, 0.5, 0.866, 30.419, 10.862)" fill="none" stroke="#fff" stroke-linecap="round" stroke-linejoin="round" stroke-width="2"/>
        <path id="Vector_22" data-name="Vector 22" d="M51.212,19.2V51.212H0V0H32.008" transform="translate(0 5.981)" fill="none" stroke="#fff" stroke-linecap="round" stroke-linejoin="round" stroke-width="2"/>
        <path id="Vector_23" data-name="Vector 23" d="M0,20.271H8.535m9.6,0h-9.6m11.736-9.6,5.648,9.6m5.021,8.535-5.02-8.535m0,0h8.222M20.271,0l-3.2,5.529M8.535,20.271,17.071,5.529m0,0L13.87,0M5.335,25.606,3.2,28.807" transform="translate(8.535 16.65)" fill="none" stroke="#fff" stroke-linecap="round" stroke-linejoin="round" stroke-width="2"/>
      </g>
    </g>
  </g>
</svg>
