<svg xmlns="http://www.w3.org/2000/svg" width="46.513" height="46" viewBox="0 0 46.513 46"><defs><style>.a{fill:none;stroke:#ffa2b9;stroke-width:1.5px;}</style></defs><g transform="translate(-0.494 -0.267)"><g transform="translate(0.494 0.267)"><path class="a" d="M36.109,16.484l7.85-8.635L37.678,0,31.4,3.925,24.334.785l-2.093,1.57M36.109,16.484,24.334,7.85,20.409,9.42l-3.14-2.355,4.971-4.71M36.109,16.484l3.14,2.355-2.355,3.14-1.57-.785M28.259,15.7l7.065,5.495M25.61,18.839,32.4,24.726m-9.632-2.747,3.14,2.747m0,0,4.71,3.532,1.783-1.57V24.726m-6.492,0v1.962l-1.57,1.57-4.71-3.532m0,0,1.57-1.962-3.14-3.14m1.57,5.1-3.14,3.532-3.532-3.532M22.241,2.355,18.054.785l-6.28,1.57L6.28,0,0,7.85l6.28,5.1m0,0L2.355,17.269l3.14,2.355m.785-6.672L8.635,10.2l3.14,3.14m-6.28,6.28,6.28-6.28m-6.28,6.28-1.57,1.57,3.14,3.532,1.57-1.962m3.14-9.42,3.14,3.14m0,0-6.28,6.28m6.28-6.28,3.14,3.14m-9.42,3.14,3.14,3.14,1.177-1.177m5.1-5.1-5.1,5.1m22.372-3.532,1.308,2.355-2.093,1.57L32.4,24.726" transform="translate(1.57 10.99)"/></g></g></svg>