<svg xmlns="http://www.w3.org/2000/svg" width="57.466" height="53.741" viewBox="0 0 57.466 53.741">
  <path id="Vector_16" data-name="Vector 16" d="M8.7,28.9V26.727H6.525M8.7,28.9V44.128M8.7,28.9h4.35M32.627,43.041l3.263-6.525-3.263-1.523m0,8.048L19.576,37.6m13.051,5.438,9.788-2.061M8.7,44.128V46.3H0V26.727H6.525M8.7,44.128h5.438l19.576,7.613L55.466,46.3l-2.175-7.613L42.415,40.98M22.839,30.425,19.576,28.9H13.051m9.788,1.523,9.788,4.568m-9.788-4.568V16.939m9.788,18.054V22.7m0,0V10.414H22.839v6.525M32.627,22.7h9.788V37.6m0,3.377V37.6M22.839,16.939H13.051V28.9M6.525,26.727c0-5.438-1.958-13.921,7.613-21.751A20.776,20.776,0,0,1,35.89,1.713M42.415,37.6c2.9-2.9,8.266-11.094,6.525-20.664m-10.876-2.8L48.941,3.263" transform="translate(1 1)" fill="none" stroke="#266ef1" stroke-linecap="round" stroke-linejoin="round" stroke-width="2"/>
</svg>
