<svg id="Setting_Icon" data-name="Setting Icon" xmlns="http://www.w3.org/2000/svg" width="24" height="21.84" viewBox="0 0 24 21.84">
  <g id="Setting_Icon-2" data-name="Setting Icon">
    <path id="Path_33946" d="M17.528,4.864l-.622-.983A2.019,2.019,0,0,0,14.3,3.24h0a2.069,2.069,0,0,1-1.445.184,1.894,1.894,0,0,1-1.164-.8,1.555,1.555,0,0,1-.256-.833h0A1.659,1.659,0,0,0,10.891.527,2.01,2.01,0,0,0,9.519,0H8.265a2,2,0,0,0-1.35.51,1.656,1.656,0,0,0-.554,1.23h0A1.836,1.836,0,0,1,4.448,3.457a1.969,1.969,0,0,1-.915-.233h0a2.019,2.019,0,0,0-2.609.641l-.668,1a1.658,1.658,0,0,0,.7,2.374h0a1.666,1.666,0,0,1,0,3.015h0a1.65,1.65,0,0,0-.7,2.366h0l.632.991a1.892,1.892,0,0,0,1.15.831A2.081,2.081,0,0,0,3.5,14.285h0a2.059,2.059,0,0,1,1.445-.176,1.881,1.881,0,0,1,1.155.809,1.555,1.555,0,0,1,.256.833h0a1.833,1.833,0,0,0,1.913,1.741H9.519a1.834,1.834,0,0,0,1.913-1.733h0a1.657,1.657,0,0,1,.558-1.233,2,2,0,0,1,1.355-.507,2.1,2.1,0,0,1,.915.233h0a2.02,2.02,0,0,0,2.609-.633h0l.659-1a1.6,1.6,0,0,0,.195-1.319,1.764,1.764,0,0,0-.89-1.055h0a1.764,1.764,0,0,1-.89-1.055,1.6,1.6,0,0,1,.195-1.319,1.8,1.8,0,0,1,.7-.633h0a1.658,1.658,0,0,0,.7-2.366h0Z" transform="translate(3.279 2.073)" fill="none" stroke="#266ef1" stroke-linecap="round" stroke-linejoin="round" stroke-width="1.5"/>
    <ellipse id="Ellipse_737" cx="2.636" cy="2.399" rx="2.636" ry="2.399" transform="translate(9.539 8.42)" fill="none" stroke="#266ef1" stroke-linecap="round" stroke-linejoin="round" stroke-width="1.5"/>
  </g>
</svg>
