<svg xmlns="http://www.w3.org/2000/svg" width="50.04" height="53.241" viewBox="0 0 50.04 53.241">
  <path id="Union_8" data-name="Union 8" d="M11.7,53.165a16.23,16.23,0,0,0-4.308-6.342c-1-.931-1.444-1.007-2.038-2.766-.434-.913-.78-4.155,5.435-4.155a9,9,0,0,1,6.53,2.479V21.589c0-2.948,1.643-4.407,4.247-4.339s4.248,1.391,4.248,4.339v9.265a4.244,4.244,0,0,1,1.78-.36A4,4,0,0,1,31.65,34a4.452,4.452,0,0,1,1.424-.219,4,4,0,0,1,4.057,3.507,4.446,4.446,0,0,1,1.423-.219c2.945,0,4.248,2.4,4.248,5.342v2.375a1.782,1.782,0,0,1-1.781,1.781c-.984,0-.686-.8-.686-1.781V42.413a1.78,1.78,0,0,0-3.013-1.284V41.5a1.774,1.774,0,0,1-.549,1.285V48.35c0,.983-.113,1.85-1.1,1.85s-1.37-.868-1.37-1.85V42.413a7.361,7.361,0,0,1,.548-2.941v-.347a1.78,1.78,0,0,0-3.014-1.283v.37a1.779,1.779,0,0,1-.548,1.285v5.565c0,.984-.113,1.85-1.1,1.85s-1.37-.867-1.37-1.85V39.125a7.365,7.365,0,0,1,.548-2.942v-.346a1.781,1.781,0,1,0-3.561-.056v.056c0,.367.023.715,0,1.006v4.93c0,.983-.113,1.85-1.1,1.85s-1.37-.868-1.37-1.85V21.589a1.781,1.781,0,1,0-3.562,0V45.371c.41.761.626,1.692,0,2.157-.787.587-1.525.2-2.114-.587-1.268-1.707-3.847-4.574-6.882-4.574-2.482,0-2.985.684-2.988.691.02.264.02.318.917,1.151a19.6,19.6,0,0,1,5.155,7.545,1.78,1.78,0,0,1-1.636,2.487C11.546,54.241,11.987,53.84,11.7,53.165Zm37.054-7.124V10.084H3.25V33.042a1.626,1.626,0,0,1-1.625,1.625c-.9,0-.626-.728-.626-1.625V5.959A5.435,5.435,0,0,1,5.959,1H46.042A5.247,5.247,0,0,1,51,5.959V46.041c0,.9-.12,1.287-1.017,1.287s-1.232-.389-1.232-1.287Zm0-38.458V5.959a2.712,2.712,0,0,0-2.709-2.708H5.959A2.712,2.712,0,0,0,3.25,5.959V7.583Z" transform="translate(-0.96 -1)" fill="#fff"/>
</svg>
