<svg xmlns="http://www.w3.org/2000/svg" width="568" height="560.588" viewBox="0 0 568 560.588">
  <g id="We_are_reviewing_your_ad_this_useally_take_1-2_days." data-name="We are reviewing your ad, this useally take 1-2 days." transform="translate(-680 -368.412)">
    <text id="We_are_reviewing_your_ad_this_useally_take_1-2_days.-2" data-name="We are reviewing your ad, this useally take 1-2 days." transform="translate(680 849)" fill="#010010" font-size="22" font-family="Poppins-Regular, Poppins"><tspan x="0" y="23">We are reviewing your ad, this useally take 1-2 days.</tspan></text>
    <text id="Meanwhile_sit_back_and_relax_we_will_get_back_to_you" data-name="Meanwhile sit back and relax we will get back to you" transform="translate(704 897)" fill="#bfbfbf" font-size="20" font-family="Poppins-Regular, Poppins"><tspan x="0" y="21">Meanwhile sit back and relax we will get back to you</tspan></text>
    <g id="We_are_reviewing_your_ad_this_useally_take_1-2_days._Illustration" data-name="We are reviewing your ad, this useally take 1-2 days. Illustration" transform="translate(714 349)">
      <g id="freepik--Floor--inject-16">
        <path id="freepik--floor--inject-16-2" data-name="freepik--floor--inject-16" d="M468.18,135.15c0,74.641-104.806,135.15-234.09,135.15S0,209.791,0,135.15,104.806,0,234.09,0,468.18,60.509,468.18,135.15Z" transform="translate(15.96 203.97)" fill="#f5f5f5"/>
      </g>
      <g id="freepik--Shadow--inject-16">
        <path id="freepik--shadow--inject-16-2" data-name="freepik--shadow--inject-16" d="M97.5,26.3c0,14.525-21.826,26.3-48.75,26.3S0,40.825,0,26.3,21.826,0,48.75,0,97.5,11.775,97.5,26.3Z" transform="translate(297.28 381)" fill="#e6e6e6"/>
        <path id="freepik--shadow--inject-16-3" data-name="freepik--shadow--inject-16" d="M97.5,26.3c0,14.525-21.826,26.3-48.75,26.3S0,40.825,0,26.3,21.826,0,48.75,0,97.5,11.775,97.5,26.3Z" transform="translate(362.28 342.54)" fill="#e6e6e6"/>
      </g>
      <g id="freepik--Device--inject-16">
        <g id="freepik--device--inject-16-2" data-name="freepik--device--inject-16">
          <path id="Vector" d="M94.514,73.97l-64,37-.15-.08L6.034,96.84a13.13,13.13,0,0,1-5.9-12.92l9-46.92,64-37-9,46.92a13.13,13.13,0,0,0,5.9,12.92Z" transform="translate(168.486 250.73)" fill="#37474f"/>
          <path id="Vector-2" data-name="Vector" d="M8.95,34.27,0,80.78,64.01,43.83,72.29.81,68.26,0Z" transform="translate(168.67 253.44)" fill="#263238"/>
          <path id="Vector-3" data-name="Vector" d="M42.646,80.14,18.166,66.01a13.13,13.13,0,0,1-5.9-12.92l9-46.92L10.586,0,.266,53.68c-1.36,7.1,2.64,15.87,8.9,19.48l33.48,19.3Z" transform="translate(156.354 281.54)" fill="#263238"/>
          <path id="Vector-4" data-name="Vector" d="M64.02,0,0,36.99V49.32L64.02,12.33Z" transform="translate(198.97 324.69)" fill="#455a64"/>
          <path id="Vector-5" data-name="Vector" d="M261.57,1.228a12.177,12.177,0,0,1,5.34,9.66v196.46a12.57,12.57,0,0,1-5.69,9.85L16.34,358.588c-3.15,1.81-8.09,1.9-11,.2A12.27,12.27,0,0,1,0,349.128V152.678a12.6,12.6,0,0,1,5.69-9.86L250.54,1.438A12.1,12.1,0,0,1,261.57,1.228Z" transform="translate(64.05 19.412)" fill="#455a64"/>
          <path id="Vector-6" data-name="Vector" d="M15.7,211.86c-3.14,1.47-7.61,1.44-10.36-.14-2.95-1.7-5.34-6-5.34-9.65V5.61A11.67,11.67,0,0,1,1.67,0L12.35,6.17a11.61,11.61,0,0,0-1.67,5.6V208.23C10.68,211.6,12.87,213.11,15.7,211.86Z" transform="translate(64.01 166.48)" fill="#263238"/>
          <path id="Vector-7" data-name="Vector" d="M256.3,200.524V4.064c0-3.63-2.55-5.1-5.69-3.29L5.69,142.154A12.57,12.57,0,0,0,0,152.014v196.46c0,3.63,2.55,5.1,5.7,3.29l244.87-141.39a12.57,12.57,0,0,0,5.73-9.85Z" transform="translate(74.7 26.236)" fill="#37474f"/>
          <path id="Vector-8" data-name="Vector" d="M238.46.595,4.59,135.725A10.08,10.08,0,0,0,0,143.595v174.45c0,2.9,2,4.08,4.55,2.63l233.91-135.08a10,10,0,0,0,4.54-7.9V3.265C243,.365,241-.815,238.46.595Z" transform="translate(80 36.405)" fill="#266ef1"/>
          <g id="freepik--Window--inject-16">
            <path id="Vector-9" data-name="Vector" d="M0,275.67c0,3,2.11,4.22,4.71,2.72L220.8,153.63a10.42,10.42,0,0,0,4.71-8.16V0L0,130.2Z" transform="translate(88.77 64.16)" fill="#fafafa"/>
            <path id="Vector-10" data-name="Vector" d="M224.51,1.73V145.47a9.48,9.48,0,0,1-4.21,7.3L4.23,277.52a3.27,3.27,0,0,1-1.61.51c-1.45,0-1.6-1.65-1.6-2.36V130.78l223.51-129ZM225.53.05,0,130.2V275.67c0,2.13,1.06,3.36,2.6,3.36a4.24,4.24,0,0,0,2.11-.64L220.8,153.63a10.42,10.42,0,0,0,4.71-8.16V0Z" transform="translate(88.77 64.16)" fill="#e0e0e0"/>
            <path id="Vector-11" data-name="Vector" d="M2.17,25.935,46.58.3c1.19-.69,2.16-.13,2.16,1.25v126.33a4.8,4.8,0,0,1-2.16,3.75L2.17,157.265c-1.2.69-2.17.13-2.17-1.25V29.685a4.78,4.78,0,0,1,2.17-3.75Z" transform="translate(97.33 172.245)" fill="#f0f0f0"/>
            <path id="Vector-12" data-name="Vector" d="M2.17,16.573,30.34.313c1.19-.69,2.16-.2,2.16,1.1A4.65,4.65,0,0,1,30.34,5L2.17,21.263c-1.2.69-2.17.2-2.17-1.09a4.64,4.64,0,0,1,2.17-3.6Z" transform="translate(105.45 186.297)" fill="#fafafa"/>
            <path id="Vector-13" data-name="Vector" d="M0,3.27V4.96c0,.83.59,1.17,1.3.75l1.47-.84a2.87,2.87,0,0,0,1.3-2.25V.93c0-.83-.59-1.17-1.3-.75L1.3,1.02A2.91,2.91,0,0,0,0,3.27Z" transform="translate(105.45 211.73)" fill="#c39eff"/>
            <path id="Vector-14" data-name="Vector" d="M0,15.483c0,1.29,1,1.78,2.16,1.09L22.16,5a4.65,4.65,0,0,0,2.16-3.59c0-1.3-1-1.79-2.16-1.1l-20,11.57A4.65,4.65,0,0,0,0,15.483Z" transform="translate(113.58 195.677)" fill="#fafafa"/>
            <path id="Vector-15" data-name="Vector" d="M0,3.27V4.96c0,.83.59,1.17,1.3.75l1.47-.84a2.86,2.86,0,0,0,1.3-2.25V.93c0-.83-.59-1.17-1.3-.75L1.3,1.02A2.91,2.91,0,0,0,0,3.27Z" transform="translate(105.45 221.12)" fill="#c39eff"/>
            <path id="Vector-16" data-name="Vector" d="M0,15.483c0,1.29,1,1.78,2.16,1.09L22.16,5a4.65,4.65,0,0,0,2.16-3.59c0-1.3-1-1.79-2.16-1.1l-20,11.57A4.65,4.65,0,0,0,0,15.483Z" transform="translate(113.58 205.067)" fill="#fafafa"/>
            <path id="Vector-17" data-name="Vector" d="M0,3.276v1.69c0,.83.59,1.16,1.3.75l1.47-.85a2.86,2.86,0,0,0,1.3-2.25V.926c0-.83-.59-1.16-1.3-.75l-1.47.85A2.88,2.88,0,0,0,0,3.276Z" transform="translate(105.45 230.494)" fill="#c39eff"/>
            <path id="Vector-18" data-name="Vector" d="M0,15.473c0,1.3,1,1.79,2.16,1.1L22.16,5a4.65,4.65,0,0,0,2.16-3.6c0-1.29-1-1.78-2.16-1.09l-20,11.57A4.65,4.65,0,0,0,0,15.473Z" transform="translate(113.58 214.447)" fill="#fafafa"/>
            <path id="Vector-19" data-name="Vector" d="M0,3.276v1.69c0,.83.59,1.16,1.3.75l1.47-.85a2.86,2.86,0,0,0,1.3-2.25V.926c0-.83-.59-1.16-1.3-.75l-1.47.85A2.88,2.88,0,0,0,0,3.276Z" transform="translate(105.45 239.864)" fill="#c39eff"/>
            <path id="Vector-20" data-name="Vector" d="M0,15.473c0,1.3,1,1.79,2.16,1.1L22.16,5a4.65,4.65,0,0,0,2.16-3.6c0-1.29-1-1.78-2.16-1.09l-20,11.57A4.65,4.65,0,0,0,0,15.473Z" transform="translate(113.58 223.817)" fill="#fafafa"/>
            <path id="Vector-21" data-name="Vector" d="M2.17,16.573,30.33.313c1.2-.69,2.17-.2,2.17,1.09A4.64,4.64,0,0,1,30.33,5L2.17,21.263c-1.2.69-2.17.2-2.17-1.09a4.64,4.64,0,0,1,2.17-3.6Z" transform="translate(105.28 237.987)" fill="#fafafa"/>
            <path id="Vector-22" data-name="Vector" d="M0,3.27V4.96c0,.83.58,1.17,1.3.75l1.47-.84A2.86,2.86,0,0,0,4.06,2.62V.93C4.06.1,3.48-.24,2.77.18L1.3,1.02A2.87,2.87,0,0,0,0,3.27Z" transform="translate(105.28 263.42)" fill="#c39eff"/>
            <path id="Vector-23" data-name="Vector" d="M0,15.483c0,1.29,1,1.78,2.16,1.09L22.16,5a4.64,4.64,0,0,0,2.17-3.59c0-1.3-1-1.79-2.17-1.1l-20,11.57A4.65,4.65,0,0,0,0,15.483Z" transform="translate(113.41 247.367)" fill="#fafafa"/>
            <path id="Vector-24" data-name="Vector" d="M0,3.27V4.96c0,.83.58,1.17,1.3.75l1.47-.84A2.86,2.86,0,0,0,4.06,2.62V.93C4.06.1,3.48-.24,2.77.18L1.3,1.02A2.87,2.87,0,0,0,0,3.27Z" transform="translate(105.28 272.81)" fill="#c39eff"/>
            <path id="Vector-25" data-name="Vector" d="M0,15.483c0,1.29,1,1.78,2.16,1.09L22.16,5a4.64,4.64,0,0,0,2.17-3.59c0-1.3-1-1.79-2.17-1.1l-20,11.57A4.65,4.65,0,0,0,0,15.483Z" transform="translate(113.41 256.757)" fill="#fafafa"/>
            <path id="Vector-26" data-name="Vector" d="M0,3.276v1.69c0,.83.58,1.16,1.3.75l1.47-.85a2.85,2.85,0,0,0,1.29-2.25V.926c0-.83-.58-1.16-1.29-.75l-1.47.85A2.86,2.86,0,0,0,0,3.276Z" transform="translate(105.28 282.184)" fill="#c39eff"/>
            <path id="Vector-27" data-name="Vector" d="M0,15.473c0,1.3,1,1.79,2.16,1.1L22.16,5a4.64,4.64,0,0,0,2.17-3.6c0-1.29-1-1.78-2.17-1.09l-20,11.57A4.65,4.65,0,0,0,0,15.473Z" transform="translate(113.41 266.137)" fill="#fafafa"/>
            <path id="Vector-28" data-name="Vector" d="M0,3.276v1.69c0,.83.58,1.16,1.3.75l1.47-.85a2.85,2.85,0,0,0,1.29-2.25V.926c0-.83-.58-1.16-1.29-.75l-1.47.85A2.86,2.86,0,0,0,0,3.276Z" transform="translate(105.28 291.554)" fill="#c39eff"/>
            <path id="Vector-29" data-name="Vector" d="M0,15.473c0,1.3,1,1.79,2.16,1.1L22.16,5a4.64,4.64,0,0,0,2.17-3.6c0-1.29-1-1.78-2.17-1.09l-20,11.57A4.65,4.65,0,0,0,0,15.473Z" transform="translate(113.41 275.527)" fill="#fafafa"/>
            <path id="Vector-30" data-name="Vector" d="M0,133.568a10.44,10.44,0,0,1,4.71-8.17L220.8.648c2.6-1.51,4.71-.29,4.71,2.72v9.87L0,143.438Z" transform="translate(88.77 50.922)" fill="#37474f"/>
            <path id="Vector-31" data-name="Vector" d="M2.21.3A4.9,4.9,0,0,0,0,4.129c0,1.41,1,2,2.21,1.28A4.88,4.88,0,0,0,3.8,3.765,4.88,4.88,0,0,0,4.46,1.579C4.46.169,3.46-.4,2.21.3Z" transform="translate(285.54 68.951)" fill="#c39eff"/>
            <path id="Vector-32" data-name="Vector" d="M2.21.306A4.88,4.88,0,0,0,0,4.135c0,1.41,1,2,2.21,1.27a4.87,4.87,0,0,0,1.565-1.65,4.87,4.87,0,0,0,.645-2.18C4.42.165,3.43-.4,2.21.306Z" transform="translate(293.28 64.494)" fill="#c39eff"/>
            <path id="Vector-33" data-name="Vector" d="M2.23.3A4.88,4.88,0,0,0,0,4.129c0,1.41,1,2,2.22,1.28A4.9,4.9,0,0,0,3.782,3.758,4.9,4.9,0,0,0,4.43,1.579C4.44.169,3.45-.4,2.23.3Z" transform="translate(301 60.041)" fill="#c39eff"/>
          </g>
        </g>
      </g>
      <g id="freepik--Post--inject-16">
        <g id="freepik--post-it--inject-16">
          <path id="Vector-34" data-name="Vector" d="M0,68.01,117.8,0V18.76L0,86.77Z" transform="translate(172.18 92.83)" fill="#266ef1"/>
          <path id="Vector-35" data-name="Vector" d="M0,68.01,117.8,0V18.76L0,86.77Z" transform="translate(172.18 92.83)" fill="#266ef1" opacity="0.05"/>
          <path id="Vector-36" data-name="Vector" d="M0,0,4.07,2.34V21.1L0,18.76Z" transform="translate(168.11 158.5)" fill="#397bf2"/>
          <path id="Vector-37" data-name="Vector" d="M0,0,4.07,2.34V21.1L0,18.76Z" transform="translate(168.11 158.5)" fill="#397bf2" opacity="0.2"/>
          <path id="Vector-38" data-name="Vector" d="M121.87,2.34,117.81,0,0,68.01l4.07,2.34Z" transform="translate(168.11 90.49)" fill="#4583f3"/>
          <path id="Vector-39" data-name="Vector" d="M121.87,2.34,117.81,0,0,68.01l4.07,2.34Z" transform="translate(168.11 90.49)" fill="#266ef1" opacity="0.4"/>
          <path id="Vector-40" data-name="Vector" d="M0,68.01,117.8,0V107.88L0,175.89Z" transform="translate(172.18 111.59)" fill="#508cfb"/>
          <path id="Vector-41" data-name="Vector" d="M0,0,4.07,2.34V110.22L.01,107.88Z" transform="translate(168.11 177.26)" fill="#397bf2"/>
          <path id="Vector-42" data-name="Vector" d="M0,0,4.07,2.34V110.22L.01,107.88Z" transform="translate(168.11 177.26)" fill="#397bf2" opacity="0.15"/>
        </g>
        <path id="Vector-43" data-name="Vector" d="M8.676,5.306l-.13.12a1.14,1.14,0,0,1-.34.26c-.25.16-.38,0-.61-.15l-1.88-1.1c-.77-.45-1.68-1-2.63-1.57s-2-1.2-3-1.84c-.3-.2.25-1.2.59-1,1.07.56,2.11,1.14,3.1,1.68s1.89,1,2.68,1.5l1.88,1.07c.22.15.45.16.44.46a1.18,1.18,0,0,1-.05.41Z" transform="translate(230.414 135.844)" fill="#e0e0e0"/>
        <path id="Vector-44" data-name="Vector" d="M7.563,7c-1.45,2.51-3.81,3.87-6.3,2.52l-.14-.07h-.06a2.69,2.69,0,0,1-1.05-2.41A8.38,8.38,0,0,1,3.783.495a2.79,2.79,0,0,1,2.53-.33l.14.07.23.15C9.033,1.845,9.013,4.5,7.563,7Z" transform="translate(233.437 135.495)" fill="#37474f"/>
        <path id="Vector-45" data-name="Vector" d="M7.629,9.318l2.8-4.78a27.31,27.31,0,0,1-5.9-4.08l-.11-.11-.09-.09a1.63,1.63,0,0,0-1.86.07,5.44,5.44,0,0,0-2.46,4.26,1.74,1.74,0,0,0,.72,1.59,1.23,1.23,0,0,0,.47.14,25.38,25.38,0,0,1,6.43,3Z" transform="translate(236.431 138.152)" fill="#455a64"/>
        <path id="Vector-46" data-name="Vector" d="M7.64,2.95A3,3,0,0,0,4.64,0a3.06,3.06,0,0,0-1,.2H3.47A3.31,3.31,0,0,0,3,.42,6.6,6.6,0,0,0,0,5.59a3.42,3.42,0,0,0,.09.75,2.95,2.95,0,0,0,5.85-.51,2.4,2.4,0,0,0,0-.28,3,3,0,0,0,1.7-2.6Z" transform="translate(241.63 140.65)" fill="#37474f"/>
        <path id="Vector-47" data-name="Vector" d="M3,.407c1.65-.95,3-.18,3,1.73a6.59,6.59,0,0,1-.88,2.945A6.59,6.59,0,0,1,3,7.307c-1.65.95-3,.18-3-1.72A6.62,6.62,0,0,1,3,.407Z" transform="translate(243.32 141.693)" fill="#455a64"/>
        <path id="Vector-48" data-name="Vector" d="M4.06.558c2.25-1.3,4.07-.25,4.07,2.35a9,9,0,0,1-1.2,3.984A9,9,0,0,1,4.06,9.908c-2.24,1.3-4.06.25-4.06-2.34A9,9,0,0,1,4.06.558Z" transform="translate(178.64 180.442)" fill="#fafafa"/>
        <path id="Vector-49" data-name="Vector" d="M1.77,11.65,21.52.26c1-.57,1.77-.17,1.77.89a3.82,3.82,0,0,1-1.77,3L1.77,15.55c-1,.56-1.77.16-1.77-.9a3.82,3.82,0,0,1,1.77-3Z" transform="translate(189.78 164.35)" fill="#455a64"/>
        <path id="Vector-50" data-name="Vector" d="M1.3,10.473,19.01.243c.72-.41,1.3-.29,1.3.27a2.56,2.56,0,0,1-1.29,1.77L1.29,12.8c-.71.42-1.29.24-1.29-.41a2.6,2.6,0,0,1,1.3-1.92Z" transform="translate(189.78 172.267)" fill="#455a64"/>
        <path id="Vector-51" data-name="Vector" d="M0,59.72c0,1,.78,1.4,1.73.85L99.82,3.94a3.68,3.68,0,0,0,1.73-2.85c0-1-.77-1.39-1.73-.84L1.7,56.86A3.7,3.7,0,0,0,0,59.72Z" transform="translate(180.3 138.14)" opacity="0.3"/>
        <path id="Vector-52" data-name="Vector" d="M0,37.018c0,1,.78,1.4,1.73.84L60.48,3.938A3.69,3.69,0,0,0,62.21,1.1c0-1-.78-1.4-1.73-.85L1.7,34.178A3.69,3.69,0,0,0,0,37.018Z" transform="translate(180.3 167.882)" opacity="0.3"/>
        <path id="Vector-53" data-name="Vector" d="M0,58.63,101.55,0V60.97L0,119.6Z" transform="translate(180.3 153.82)" fill="#508cfb"/>
        <path id="Vector-54" data-name="Vector" d="M0,58.63,101.55,0V60.97L0,119.6Z" transform="translate(180.3 153.82)" fill="#82aeff" opacity="0.7"/>
        <path id="Vector-55" data-name="Vector" d="M0,79.73V60.97L36.56,11.72,68.97,25.84,58.31,18.76,73.12,0l28.43,10.68V21.1Z" transform="translate(180.3 193.69)" fill="#fafafa"/>
        <path id="Vector-56" data-name="Vector" d="M5.74.785c3.17-1.83,5.74-.35,5.74,3.31A12.68,12.68,0,0,1,9.8,9.751,12.68,12.68,0,0,1,5.74,14.035c-3.17,1.83-5.74.35-5.74-3.31A12.68,12.68,0,0,1,5.74.785Z" transform="translate(261.54 173.215)" fill="#fafafa"/>
      </g>
      <g id="freepik--character-2--inject-16">
        <g id="freepik--Character--inject-16">
          <path id="Vector-57" data-name="Vector" d="M0,.18c4.36-1,9.09,2.18,11.8,9s8.08,24.33,9.18,28.9C21.48,40.13,5.75,58,6.31,57.74c.17-.08-4.94-8.88-4.94-8.88L9.04,37.38,4.49,24.75Z" transform="translate(427.29 194.82)" fill="#ffb7a7"/>
          <path id="Vector-58" data-name="Vector" d="M16.83,10.629c.58.23.72,1.36.78,3.59,0,1.69.37,4.64-1.62,5.2s-4.87.22-6.12-1.38c-1.55-2-2.6-3.77-4.82-6.22-1.93-2.13-4-4.12-4.78-7.07C-.41,2.069.2.929,2.03.179c2.51-1,6.39,2.49,8.34,3.07C12.05,3.739,16.24,10.4,16.83,10.629Z" transform="translate(418.38 346.181)" fill="#263238"/>
          <path id="Vector-59" data-name="Vector" d="M4.6.285a3.53,3.53,0,0,0-2.78,0c-1.88.55-2.45,1.9-1,3.42s4.9,4.85,4.9,4.85l1.65-4.22Z" transform="translate(422.863 349.195)" fill="#ffb7a7"/>
          <path id="Vector-60" data-name="Vector" d="M28.144,0s.75,2.39,1.15,4.48c.31,1.66.76,4.43.16,5.67s-2.87,2-6.37,1.94c-2.27-.05-5.83,1.45-8.27,2.77a12.956,12.956,0,0,1-7.88,1c-3.11-.4-6.32-2.25-6.81-3.55s.17-1.91,7.56-4.95c.07,0,7.8-3.4,11.41-7.28Z" transform="translate(386.506 371.1)" fill="#263238"/>
          <path id="Vector-61" data-name="Vector" d="M2.73,7.32c-1,.42-1.9.79-2.68,1.13-.2.7.07,1.8,3.33,2.35,5,.83,17.9-8.19,17.9-8.19S20.89,1.2,20.49,0H14.14C10.54,3.88,2.8,7.29,2.73,7.32Z" transform="translate(391.46 371.12)" fill="#ffb7a7"/>
          <path id="Vector-62" data-name="Vector" d="M40.68,75.4a65,65,0,0,0-3.16-14.13s1.74-12.09,2.74-23.7c1.88-20.83.68-27.67-3.3-37.07,0,0-34.95-4-36.21,10.52-1.57,18.1-.25,53.12.14,59.53s1,9.29,3.05,22.69c1.59,10.2,4.08,37.87,4.08,37.87,1.12,2.76,8.1,2.35,8.87-.81,0,0,3.28-32.66,3.08-40a63.23,63.23,0,0,0-2.59-16.16s2.55-29.48,3.24-34.17c0,0,1,9.37,1.37,15.78s2.22,12.54,3.92,24.45c1.47,10.33,4.89,36.15,4.89,36.15,3.29,3.39,6.4,1.36,6.65-.23C37.46,116.065,41.82,84.365,40.68,75.4Z" transform="translate(397.74 241.425)" fill="#ffb7a7"/>
          <path id="Vector-63" data-name="Vector" d="M0,2.4,1.47,15.94l11.9-.91L12.21,0Z" transform="translate(409.72 189.78)" fill="#ffb7a7"/>
          <path id="Vector-64" data-name="Vector" d="M39.508,6.91c-1.26-3.58-5.66-7.6-10.24-6.81-1.19.21-2.12.34-3.24.56-.15,3.11-6.16,4.67-12,2.7-1.76.49-3.4.94-4.85,1.48C7.058,5.63.728,16.68.048,23.75c-.56,5.75,3.93,9.71,3.93,9.71C2.048,45.78.248,95.04.248,95.04a11.75,11.75,0,0,0,6,1.13l1.76-10.41.62,10.76c3.3.58,12.57-.16,18.46-2a46.33,46.33,0,0,0,17.34-10.16s.12-16.85-1.32-25.1-1.86-10.21-9.13-21.76C40.518,20.81,41.378,12.21,39.508,6.91Z" transform="translate(396.352 194.96)" fill="#266ef2"/>
          <g id="Group" opacity="0.6">
            <path id="Vector-65" data-name="Vector" d="M39.508,6.91c-1.26-3.58-5.66-7.6-10.24-6.81-1.19.21-2.12.34-3.24.56-.15,3.11-6.16,4.67-12,2.7-1.76.49-3.4.94-4.85,1.48C7.058,5.63.728,16.68.048,23.75c-.56,5.75,3.93,9.71,3.93,9.71C2.048,45.78.248,95.04.248,95.04a11.75,11.75,0,0,0,6,1.13l1.76-10.41.62,10.76c3.3.58,12.57-.16,18.46-2a46.33,46.33,0,0,0,17.34-10.16s.12-16.85-1.32-25.1-1.86-10.21-9.13-21.76C40.518,20.81,41.378,12.21,39.508,6.91Z" transform="translate(396.352 194.96)" fill="#266ef2" opacity="0.6"/>
          </g>
          <path id="Vector-66" data-name="Vector" d="M27.116,44.8c6-30.71,5.54-41-2.66-44.8-6.39,1.81-6.45,9.88-6.09,17.58,0,0,.38,16-2,27.32-1.29,6.13-3.26,15-5.62,19.67a3.81,3.81,0,0,1-2,1.81c-2.32.92-3,2.26-4.84,3.62-1.47,1.06-2.57,1.19-2.48,1.63a2.06,2.06,0,0,0,2.42,1.39,10.57,10.57,0,0,0,2.78-.91,21.14,21.14,0,0,1-3.95,4.35c-3.58,3.06-4.11,5.24,1.79,6.37,3.69.71,7.06-1,11.34-8.68a68.42,68.42,0,0,0,4.27-8.69C22.946,57.65,25.856,51.21,27.116,44.8Z" transform="translate(380.824 199.9)" fill="#ffb7a7"/>
          <path id="Vector-67" data-name="Vector" d="M2.409,16.517s-4.57-5.3-1.12-10.57c4.08-6.22,11.78-7.19,20.87-4.62,4.5,1.27,9.34,6.22,9.79,14.89.35,6.7-16.94,11.32-16.57,15.91Z" transform="translate(400.841 158.903)" fill="#263238"/>
          <path id="Vector-68" data-name="Vector" d="M2.263,0S-.317,4,.033,4.44a6.28,6.28,0,0,0,2,.85Z" transform="translate(398.407 177.42)" fill="#f28f8f"/>
          <path id="Vector-69" data-name="Vector" d="M8.205,1.125c-2.55,1.36-6.95,3.87-7.95,13.34-1,9.71,1.17,13.05,2.51,14.3.9.85,5.51,1.1,7.9.32,3-1,9.46-4.29,12.44-9.34,3.51-5.93,4.14-13.79,0-16.81C17.165-1.315,10.355-.025,8.205,1.125Z" transform="translate(400.355 163.545)" fill="#ffb7a7"/>
          <path id="Vector-70" data-name="Vector" d="M.778,3.677s-2.12,8.88.64,14.43c0,0,1.52-3.47,4.5-2.53s2.79,4.95.46,7a4.46,4.46,0,0,1-4.62,1,20,20,0,0,0,4.36,6.78s8.82,4.06,16.6-4.5c6.09-6.7,3.13-22.39-4.67-24.86C7.428-2.313.778,3.677.778,3.677Z" transform="translate(407.032 161.413)" fill="#263238"/>
          <path id="Vector-71" data-name="Vector" d="M9.5,14.5a7.4,7.4,0,1,1,4.4-3.56A7.4,7.4,0,0,1,9.5,14.5Z" transform="translate(427.772 176.204)" fill="#263238"/>
          <path id="Vector-72" data-name="Vector" d="M5.793,8.787A4.48,4.48,0,1,1,8.448,6.618,4.49,4.49,0,0,1,5.793,8.787Z" transform="translate(431.497 172.033)" fill="#263238"/>
          <path id="Vector-73" data-name="Vector" d="M5.793,8.787A4.49,4.49,0,1,1,8.445,6.616,4.49,4.49,0,0,1,5.793,8.787Z" transform="translate(425.807 184.413)" fill="#263238"/>
          <path id="Vector-74" data-name="Vector" d="M2.348,3.89c-3.88,4.06-3.94,15.63,7.51,18.31L20.488,2.01C13.408-1.74,5.818.26,2.348,3.89Z" transform="translate(398.592 157.32)" fill="#263238"/>
          <path id="Vector-75" data-name="Vector" d="M1.48,4.381A2.26,2.26,0,0,1,2.96.111Z" transform="translate(405.86 178.329)" fill="#263238"/>
        </g>
      </g>
      <g id="freepik--character-1--inject-16">
        <g id="freepik--character--inject-16-2" data-name="freepik--character--inject-16">
          <path id="Vector-76" data-name="Vector" d="M19.639,41.21c1.43-28.8-.73-35.75-8.28-41.21L8.009,16.63s3.05,19.76,2.53,26.3c-.46,5.75-1.18,12.94-2.65,17.56a3.51,3.51,0,0,1-1.57,1.94c-2,1.18-2.8,2.42-4.3,3.93-1.18,1.18-2.17,1.45-2,1.84a1.89,1.89,0,0,0,2.4.92,13.49,13.49,0,0,0,2.81-1.45,17.49,17.49,0,0,1-2.95,4.82c-2.81,3.3-3,5.36,2.55,5.53,3.46.11,6.28-2,9.06-9.55a63.07,63.07,0,0,0,2.63-8.52C17.989,52.39,19.409,45.84,19.639,41.21Z" transform="translate(355.121 237.61)" fill="#ffa8a7"/>
          <path id="Vector-77" data-name="Vector" d="M0,.132a11.05,11.05,0,0,1,11.72,6.25c3.09,5.83,3.65,15.74,3.8,25.58,0,0-6.51,5.2-14.11,2.4Z" transform="translate(360.07 235.148)" fill="#256ef2"/>
          <path id="Vector-78" data-name="Vector" d="M16.512,10.608c.57.24.7,1.35.73,3.55,0,1.67.32,4.59-1.64,5.12s-4.82.18-6-1.42c-1.52-2-2.54-3.74-4.71-6.19-1.89-2.12-3.93-4.1-4.65-7C-.4,2.028.242.9,2.022.178c2.49-1,6.29,2.52,8.21,3.11C11.852,3.758,15.932,10.378,16.512,10.608Z" transform="translate(350.768 383.392)" fill="#263238"/>
          <path id="Vector-79" data-name="Vector" d="M7.52,1.17,7.46,3.88a6.6,6.6,0,0,1-3.415.952A6.6,6.6,0,0,1,.63,3.88C.51,3.62,0,0,0,0Z" transform="translate(359.8 390.83)" fill="#ffa8a7"/>
          <path id="Vector-80" data-name="Vector" d="M30.365.02s.72,2.37,1.1,4.44c.29,1.64.71,4.38.11,5.6s-2.86,2-6.32,1.85c-2.24-.06-5.77,1.38-8.19,2.66S9.415,16.33,6.8,15.96c-3.07-.43-6.22-2.29-6.69-3.57s.22-2.6,7.55-5.53c.07,0,10.16-3.06,13.76-6.86Z" transform="translate(314.635 409.07)" fill="#263238"/>
          <path id="Vector-81" data-name="Vector" d="M9,.02s-.06,2-.07,3.15S7.52,6,4.01,5.79c-2.46-.14-4.16-.84-4-2.87L.08,0Z" transform="translate(336.1 406.15)" fill="#ffa8a7"/>
          <path id="Vector-82" data-name="Vector" d="M41.328,71.728a73.33,73.33,0,0,0-2.89-14.12s1.24-12.13,2-23.63c.78-12.44.6-28.09.91-31.19,0,0-40-9-41,5.34s.44,51,.77,57.36,1.3,11.94,2.38,22.22,4.13,34.08,4.13,34.08a9.5,9.5,0,0,0,8.94,0s3.47-28.7,3.34-36a62.18,62.18,0,0,0-2.41-16s1-11.84,1.93-22.14,1.73-15.24,2-19.72l.87-.41s.48,17.81.82,24.14,1.2,12.41,2.76,24.19c1.36,10.22,5.59,31.86,5.59,31.86,4.53,2.59,7.33-.16,7.33-.16S42.368,80.608,41.328,71.728Z" transform="translate(328.562 284.392)" fill="#37474f"/>
          <path id="Vector-83" data-name="Vector" d="M0,8.8S9.85,4.22,14.82,0c0,0-4.67,6.27-10.68,9,0,0-2.61,22.06-2.59,21.62L.82,8.81Z" transform="translate(350 303.54)" fill="#263238"/>
          <path id="Vector-84" data-name="Vector" d="M0,2.82,2.08,15.95l11.84-.6L12.53,0Z" transform="translate(343.12 227.52)" fill="#ffa8a7"/>
          <path id="Vector-85" data-name="Vector" d="M40.79,6.908c-1.09-3.58-5.51-7.55-10-6.82l-3.07.52c-.55,2.22-6.21,3.93-12,2.56q-2.62.69-4.8,1.41c-4.17,1.39-8,4.87-8.66,18.46,0,0-2.1,31.65-2.26,37.78,10.28,4.34,21.08,4.46,27.07,3.29,12.48-2.44,14.09-7.55,14.09-7.55s.68-22.78.53-32.63C41.51,15.558,41.54,9.368,40.79,6.908Z" transform="translate(328.74 235.292)" fill="#e6e6e6"/>
          <path id="Vector-86" data-name="Vector" d="M2.778,0S-.322,4.71.028,5.17s2.64.88,2.64.88Z" transform="translate(331.592 214.23)" fill="#f28f8f"/>
          <path id="Vector-87" data-name="Vector" d="M8.86.618C2.59,1.938.77,4.7.18,14.678-.44,25.1.63,28.368,2,29.778c.92.94,6.06,1.11,8.65.4,3.24-.89,10.57-3.49,14-8.73,4-6.17,5.1-14.53.78-18C19.32-1.332,11.4.078,8.86.618Z" transform="translate(334.14 200.592)" fill="#ffa8a7"/>
          <path id="Vector-88" data-name="Vector" d="M2.242,9.448l.19.18c1.2,1.15,2.75,1.87,4,3a9.32,9.32,0,0,1,2.86,4.54c.41,1.44.58,3.16,2.14,3.83,0,0,1-3.86,4.24-3.37s3.71,4.65,1.65,7.18-4,1.56-4,1.56.11,5.51,2.54,8.63c0,0,2.78.9,7.89-.19,3.14-.67,7.57-4.6,9.44-8.75,4-8.79,4.22-16.7-1.39-19.06-.6-4-3.79-5.87-7.43-6.71-5.43-1.24-10.52,2-15.89.78-1.13-.25-2.22-.66-3.37-.8a.74.74,0,0,0-.39,0c-.27.14-.25.53-.17.83A6.87,6.87,0,0,0,6.132,4a16.64,16.64,0,0,1-6.1-.77,7.89,7.89,0,0,0,2.21,6.22Z" transform="translate(331.368 195.022)" fill="#263238"/>
          <path id="Vector-89" data-name="Vector" d="M.3,3.286l3.76-2.21A2.181,2.181,0,0,0,.3,3.286Z" transform="translate(362.999 200.044)" fill="#263238"/>
          <path id="Vector-90" data-name="Vector" d="M2.126,4.361,2.236,0a2.181,2.181,0,0,0-.11,4.36Z" transform="translate(340.624 213.809)" fill="#263238"/>
          <path id="Vector-91" data-name="Vector" d="M12.919,22.42c1.93.9,24.43,18.33,28,16.44S63.319,16,63.319,16a14.78,14.78,0,0,0,.36-16s-5.89.95-9.07,5.52S37.8,26.43,37.8,26.43q-4.86-2.56-9.68-5.2c-2.65-1.45-5.31-2.9-7.9-4.45a9.83,9.83,0,0,1-2-1.32c-1.27-1.31-1-4.4-.92-6.08a23.19,23.19,0,0,1,.17-2.36c.13-1,.37-3.31-1.38-2.6a2.2,2.2,0,0,0-.84.68,3.89,3.89,0,0,0-.65,1.16c-.35,1-.27,2.13-.59,3.15a.83.83,0,0,1-.22.4.73.73,0,0,1-.55.16c-2.52-.13-4.83-3.72-5.94-5.62a5.19,5.19,0,0,0-1.87-2.23c-1.36-.67-3,.21-4,1.43A8,8,0,0,0,.059,9.08a11,11,0,0,0,3.13,7,34.12,34.12,0,0,0,9.73,6.34Z" transform="translate(276.211 239.87)" fill="#ffa8a7"/>
          <path id="Vector-92" data-name="Vector" d="M22.39,0c-2.53.23-6.73.33-10.94,4.89C6.53,10.22,0,18.96,0,18.96A14,14,0,0,0,10.83,29.63s8.86-8.68,11.38-13.51S25.29,3.36,22.39,0Z" transform="translate(319.42 239.18)" fill="#256ef2"/>
        </g>
      </g>
    </g>
  </g>
</svg>
