<svg xmlns="http://www.w3.org/2000/svg" width="16.076" height="31.607" viewBox="0 0 16.076 31.607"><defs><style>.a{fill:#e14b77;}</style></defs><g transform="translate(-621 -1180)"><g transform="translate(621 1180)"><g transform="translate(0 6.326)"><g transform="translate(0)"><path class="a" d="M141.8,113.19c-.02-.056-2.046-5.6-2.939-8.195-.576-1.675-1.541-2.525-2.869-2.525h-4.309c-1.328,0-2.293.849-2.869,2.525-.892,2.6-2.918,8.139-2.939,8.195a1.241,1.241,0,1,0,2.331.852c.017-.046,1.406-3.847,2.4-6.645a1.406,1.406,0,0,0,.508.718l0,1.818-2.134,5.382a.518.518,0,0,0,.36.7c.319.077.741.181,1.2.3v9.958a1.489,1.489,0,0,0,2.978,0v-9.254a3.616,3.616,0,0,0,.643,0v9.254a1.489,1.489,0,1,0,2.978,0V116.3c.457-.114.879-.218,1.2-.295a.519.519,0,0,0,.361-.7l-2.134-5.381,0-1.818a1.406,1.406,0,0,0,.508-.718c.991,2.8,2.38,6.6,2.4,6.645a1.241,1.241,0,0,0,2.331-.852Z" transform="translate(-125.795 -102.471)"/></g></g><g transform="translate(5.328 0)"><g transform="translate(0 0)"><circle class="a" cx="2.71" cy="2.71" r="2.71"/></g></g></g></g></svg>